{"glyphs":{"0":{"ha":882,"x_min":182,"x_max":979,"o":"m 690 873 q 622 862 658 873 q 545 823 587 851 q 465 754 503 795 q 391 646 427 713 q 331 495 355 578 q 300 304 300 386 q 315 202 300 245 q 355 135 330 159 q 408 99 380 111 q 467 88 436 88 q 535 100 500 88 q 613 140 571 111 q 694 213 656 170 q 770 329 733 257 q 833 490 807 400 q 861 663 861 587 q 845 762 861 720 q 804 828 830 804 q 750 862 779 851 q 690 873 722 873 m 720 977 q 792 968 757 977 q 861 939 827 960 q 922 887 896 918 q 963 805 947 855 q 979 693 979 755 q 947 492 979 604 q 865 288 915 378 q 761 143 814 198 q 648 51 708 87 q 536 0 587 14 q 438 -14 486 -14 q 367 -5 401 -14 q 298 25 332 3 q 239 78 264 46 q 198 162 214 111 q 182 277 182 213 q 217 494 182 374 q 297 688 248 602 q 399 827 346 774 q 511 915 452 880 q 622 963 571 949 q 720 977 673 977 z "},"1":{"ha":882,"x_min":198,"x_max":812,"o":"m 679 964 l 812 964 l 565 101 l 789 101 l 760 0 l 198 0 l 227 101 l 454 101 l 669 852 l 433 769 l 418 869 l 679 964 z "},"2":{"ha":882,"x_min":153,"x_max":966,"o":"m 387 905 q 713 970 562 970 q 899 918 833 970 q 966 783 966 865 q 957 722 966 753 q 911 629 943 673 q 836 550 879 585 q 742 479 793 514 q 635 406 692 445 q 526 326 579 368 q 418 226 472 284 q 322 102 363 168 l 797 102 l 768 0 l 153 0 l 171 63 q 283 218 221 146 q 402 340 345 290 q 520 434 460 390 q 630 511 579 477 q 723 574 681 544 q 793 637 765 605 q 831 702 822 669 q 837 738 837 722 q 788 833 837 795 q 663 871 740 871 q 395 815 566 871 l 387 905 z "},"3":{"ha":882,"x_min":125,"x_max":925,"o":"m 399 906 q 691 975 559 975 q 861 927 798 975 q 925 802 925 879 q 917 747 925 775 q 838 612 895 671 q 706 528 781 553 q 840 369 840 489 q 829 296 840 333 q 656 60 787 150 q 362 -31 525 -31 q 125 22 237 -31 l 185 115 q 394 77 315 77 q 590 131 500 77 q 705 271 680 185 q 711 317 711 293 q 705 358 711 338 q 682 397 699 377 q 636 431 664 417 q 562 455 608 446 q 453 464 515 464 l 481 563 q 594 574 543 563 q 679 602 645 585 q 737 642 712 619 q 775 686 762 665 q 795 728 789 707 q 800 762 800 745 q 760 840 800 810 q 647 871 720 871 q 410 814 547 871 l 399 906 z "},"4":{"ha":882,"x_min":149,"x_max":908,"o":"m 747 964 l 908 964 l 728 335 l 897 335 l 867 233 l 699 233 l 632 0 l 521 0 l 588 233 l 149 233 l 170 309 l 747 964 m 766 854 l 311 335 l 617 335 l 766 854 z "},"5":{"ha":882,"x_min":120,"x_max":1016,"o":"m 435 964 l 1016 964 l 987 862 l 517 862 l 441 599 q 582 608 514 608 q 702 595 650 608 q 786 562 754 583 q 838 513 817 542 q 865 456 858 484 q 873 395 873 427 q 860 308 873 353 q 841 257 852 283 q 809 198 830 231 q 762 137 788 166 q 695 80 735 109 q 608 32 655 52 q 498 -1 562 12 q 361 -14 434 -14 q 120 10 237 -14 l 172 113 q 382 91 267 91 q 509 104 451 91 q 604 139 566 118 q 670 189 642 161 q 713 243 699 217 q 736 296 728 269 q 743 347 743 322 q 732 403 743 377 q 696 453 721 429 q 625 491 672 477 q 514 505 578 505 q 299 488 443 505 l 435 964 z "},"6":{"ha":882,"x_min":197,"x_max":976,"o":"m 893 971 q 976 966 928 971 l 939 866 q 867 870 903 870 q 745 858 802 870 q 645 827 688 846 q 566 779 603 808 q 504 722 528 750 q 456 659 479 694 q 421 597 434 623 q 395 538 408 570 q 510 607 446 581 q 644 632 575 632 q 811 575 751 632 q 872 422 872 519 q 858 327 872 378 q 694 83 817 184 q 426 -17 572 -17 q 366 -12 394 -17 q 305 8 337 -7 q 250 47 273 23 q 212 113 227 71 q 197 211 197 155 q 227 391 197 288 q 322 627 264 524 q 443 793 379 729 q 585 898 507 857 q 737 955 663 939 q 893 971 811 971 m 591 537 q 425 477 503 537 q 320 323 347 416 q 310 252 310 286 q 352 128 310 178 q 466 78 394 78 q 634 148 552 78 q 743 315 715 218 q 753 382 753 351 q 708 495 753 453 q 591 537 662 537 z "},"7":{"ha":882,"x_min":209,"x_max":1069,"o":"m 365 964 l 1069 964 l 1048 891 l 343 0 l 209 0 l 897 855 l 334 855 l 365 964 z "},"8":{"ha":882,"x_min":168,"x_max":949,"o":"m 688 880 q 558 839 618 880 q 483 744 498 798 q 478 711 478 728 q 490 669 478 689 q 515 636 501 649 q 556 611 530 624 q 597 593 582 598 q 639 578 612 587 q 769 657 725 623 q 826 738 812 692 q 831 776 831 756 q 791 852 831 825 q 688 880 751 880 m 562 492 q 389 404 460 465 q 298 275 318 342 q 292 231 292 252 q 340 129 292 169 q 475 88 389 88 q 643 141 570 88 q 739 269 716 193 q 747 322 747 298 q 736 374 747 350 q 709 416 726 399 q 667 448 692 433 q 617 473 642 463 q 562 492 593 483 m 716 977 q 891 935 832 977 q 949 816 949 893 q 938 741 949 782 q 874 635 921 682 q 743 537 827 587 q 870 346 870 471 q 849 244 870 296 q 787 147 827 193 q 695 65 747 101 q 576 7 643 28 q 440 -14 510 -14 q 243 44 319 -14 q 168 197 168 102 q 178 264 168 229 q 275 421 201 347 q 448 536 349 495 q 361 685 361 588 q 370 745 361 717 q 493 909 397 842 q 716 977 589 977 z "},"9":{"ha":882,"x_min":180,"x_max":958,"o":"m 732 977 q 793 972 764 977 q 853 951 823 966 q 907 912 884 936 q 943 846 929 888 q 958 750 958 804 q 928 566 958 670 q 833 333 890 435 q 712 168 777 231 q 570 63 648 104 q 419 6 493 22 q 263 -10 345 -10 q 180 -6 220 -10 l 217 94 q 289 91 247 91 q 414 103 356 91 q 514 135 473 116 q 593 184 556 153 q 654 242 631 215 q 701 310 677 270 q 735 377 724 351 q 764 444 747 404 q 645 377 709 399 q 520 355 581 355 q 352 413 415 355 q 290 565 290 471 q 302 650 290 607 q 392 813 328 739 q 547 932 457 888 q 732 977 637 977 m 690 882 q 525 814 608 882 q 417 661 441 747 q 409 605 409 632 q 455 494 409 537 q 572 450 501 450 q 737 510 659 450 q 840 653 816 570 q 848 710 848 682 q 804 831 848 781 q 690 882 761 882 z "}," ":{"ha":380,"x_min":0,"x_max":0,"o":""},"!":{"ha":441,"x_min":153,"x_max":554,"o":"m 191 136 l 327 136 l 288 0 l 153 0 l 191 136 m 439 964 l 554 964 l 367 311 l 252 311 l 439 964 z "},"\"":{"ha":539,"x_min":286,"x_max":758,"o":"m 633 1025 l 758 1025 l 675 734 l 550 734 l 633 1025 m 368 1025 l 494 1025 l 411 734 l 286 734 l 368 1025 z "},"#":{"ha":951,"x_min":105,"x_max":1120,"o":"m 522 964 l 631 964 l 555 699 l 798 699 l 873 964 l 982 964 l 906 699 l 1120 699 l 1091 597 l 877 597 l 808 358 l 1023 358 l 994 256 l 779 256 l 700 -20 l 591 -20 l 671 256 l 428 256 l 349 -20 l 240 -20 l 319 256 l 105 256 l 134 358 l 349 358 l 417 597 l 201 597 l 231 699 l 446 699 l 522 964 m 526 597 l 457 358 l 700 358 l 768 597 l 526 597 z "},"$":{"ha":814,"x_min":212,"x_max":871,"o":"m 668 1025 l 750 1025 l 700 848 q 771 845 741 848 q 820 837 802 841 q 871 821 838 832 l 819 736 q 666 762 735 762 q 578 751 616 762 q 520 723 541 740 q 490 691 500 705 q 475 663 479 677 q 473 648 473 655 q 505 602 473 622 q 583 565 537 581 q 674 530 628 549 q 751 479 720 511 q 783 403 783 446 q 777 362 783 385 q 750 301 768 331 q 701 241 732 272 q 618 188 669 211 q 502 157 566 165 l 444 -44 l 361 -44 l 418 153 q 212 203 322 153 l 268 288 q 362 250 324 260 q 444 240 400 240 q 514 245 483 240 q 575 262 546 250 q 624 295 604 273 q 652 349 644 317 q 655 366 655 360 q 638 401 655 386 q 594 428 621 417 q 535 450 568 439 q 470 474 503 460 q 411 503 437 487 q 367 546 384 519 q 350 605 350 572 q 357 651 350 627 q 382 705 364 677 q 430 760 400 732 q 508 809 460 787 q 616 841 557 831 l 668 1025 z "},"%":{"ha":901,"x_min":58,"x_max":1106,"o":"m 468 860 q 436 854 452 860 q 402 837 420 849 q 370 800 385 824 q 346 742 355 776 q 335 678 335 705 q 353 625 335 640 q 397 610 371 610 q 429 616 413 610 q 461 634 444 621 q 495 674 479 648 q 522 739 511 701 q 531 795 531 771 q 468 860 531 860 m 487 924 q 524 920 507 924 q 560 905 542 916 q 589 872 578 895 q 600 818 600 850 q 588 741 600 783 q 504 598 562 650 q 378 547 445 547 q 296 573 328 547 q 265 656 265 599 q 279 741 265 694 q 331 844 296 801 q 407 905 367 886 q 487 924 446 924 m 770 357 q 738 352 753 357 q 704 334 722 347 q 672 297 687 321 q 648 239 657 273 q 637 176 637 204 q 655 123 637 138 q 699 108 673 108 q 731 113 715 108 q 764 132 747 119 q 797 172 781 145 q 824 236 813 198 q 833 292 833 269 q 815 343 833 328 q 770 357 796 357 m 789 422 q 827 418 809 422 q 863 403 845 414 q 892 370 882 392 q 903 315 903 347 q 891 238 903 279 q 806 97 865 149 q 680 45 747 45 q 599 71 630 45 q 568 154 568 96 q 582 239 568 191 q 667 375 607 327 q 789 422 726 422 m 991 964 l 1106 964 l 173 0 l 58 0 l 991 964 z "},"&":{"ha":1078,"x_min":167,"x_max":1140,"o":"m 760 977 q 893 940 846 977 q 941 842 941 903 q 934 797 941 819 q 915 753 928 775 q 890 714 903 732 q 855 676 878 697 q 817 642 832 655 q 773 609 802 629 q 731 580 745 589 q 685 550 717 571 q 644 524 653 530 l 808 272 l 1095 511 l 1140 448 l 852 204 l 985 0 l 848 0 l 755 136 q 696 92 720 109 q 628 48 672 75 q 547 7 585 22 q 457 -20 509 -9 q 355 -32 406 -32 q 215 10 264 -32 q 167 123 167 52 q 177 191 167 156 q 196 242 184 217 q 221 288 208 267 q 253 331 233 309 q 286 369 272 353 q 323 404 300 384 q 360 434 347 423 q 398 461 373 444 q 433 485 424 479 q 465 506 441 490 q 492 522 489 521 q 481 537 490 525 q 470 554 473 550 q 460 570 468 557 q 449 587 452 582 q 440 604 446 592 q 431 622 434 615 q 425 641 429 629 q 419 661 420 652 q 416 681 417 670 q 414 703 414 692 q 423 762 414 731 q 547 917 450 857 q 760 977 644 977 m 720 880 q 604 843 659 880 q 534 755 549 806 q 530 726 530 741 q 537 691 530 709 q 552 662 544 673 q 576 627 559 650 q 600 591 592 604 q 643 618 614 600 q 683 643 672 636 q 716 665 694 650 q 747 687 738 680 q 770 707 755 694 q 791 729 785 720 q 805 750 798 738 q 815 775 812 762 q 819 800 819 786 q 792 857 819 834 q 720 880 766 880 m 538 455 q 404 363 437 390 q 299 222 320 295 q 293 180 293 201 q 328 99 293 131 q 422 68 363 68 q 489 78 454 68 q 551 100 524 88 q 613 135 578 113 q 664 169 648 157 q 709 203 681 181 l 538 455 z "},"'":{"ha":275,"x_min":286,"x_max":494,"o":"m 368 1025 l 494 1025 l 411 734 l 286 734 l 368 1025 z "},"(":{"ha":503,"x_min":222,"x_max":736,"o":"m 736 1003 q 439 550 541 782 q 337 89 337 318 q 386 -220 337 -67 l 282 -277 q 222 102 222 -90 q 261 391 222 253 q 336 582 288 484 q 441 766 383 680 q 552 920 499 852 q 661 1050 604 987 l 736 1003 z "},")":{"ha":503,"x_min":-9,"x_max":505,"o":"m -9 -220 q 95 -95 46 -158 q 200 61 143 -32 q 296 246 256 153 q 362 456 336 339 q 389 690 389 574 q 342 1003 389 848 l 445 1050 q 505 675 505 865 q 466 391 505 526 q 391 197 439 296 q 283 10 342 98 q 171 -146 224 -78 q 62 -277 118 -215 l -9 -220 z "},"*":{"ha":811,"x_min":286,"x_max":909,"o":"m 624 964 l 739 964 l 665 747 l 880 866 l 909 766 l 688 670 l 853 572 l 766 471 l 620 590 l 570 374 l 455 374 l 529 590 l 315 471 l 286 572 l 507 670 l 342 766 l 428 866 l 574 747 l 624 964 z "},"+":{"ha":949,"x_min":199,"x_max":1006,"o":"m 665 836 l 765 836 l 666 493 l 1006 493 l 979 399 l 640 399 l 541 56 l 441 56 l 539 399 l 199 399 l 226 493 l 566 493 l 665 836 z "},",":{"ha":387,"x_min":-14,"x_max":291,"o":"m 169 115 l 291 115 l 108 -149 l -14 -149 l 169 115 z "},"-":{"ha":821,"x_min":233,"x_max":844,"o":"m 260 494 l 844 494 l 817 399 l 233 399 l 260 494 z "},".":{"ha":387,"x_min":122,"x_max":305,"o":"m 163 142 l 305 142 l 264 0 l 122 0 l 163 142 z "},"/":{"ha":492,"x_min":9,"x_max":755,"o":"m 640 964 l 755 964 l 125 -61 l 9 -61 l 640 964 z "},":":{"ha":387,"x_min":122,"x_max":458,"o":"m 163 142 l 305 142 l 264 0 l 122 0 l 163 142 m 315 673 l 458 673 l 417 531 l 275 531 l 315 673 z "},";":{"ha":387,"x_min":-14,"x_max":458,"o":"m 169 115 l 291 115 l 108 -149 l -14 -149 l 169 115 m 315 673 l 458 673 l 417 531 l 275 531 l 315 673 z "},"<":{"ha":728,"x_min":172,"x_max":879,"o":"m 879 765 l 849 660 l 307 421 l 715 193 l 683 81 l 172 361 l 203 473 l 879 765 z "},"=":{"ha":949,"x_min":218,"x_max":986,"o":"m 247 340 l 898 340 l 869 238 l 218 238 l 247 340 m 335 647 l 986 647 l 957 545 l 306 545 l 335 647 z "},">":{"ha":728,"x_min":91,"x_max":795,"o":"m 287 765 l 795 473 l 764 361 l 91 81 l 123 193 l 663 421 l 257 660 l 287 765 z "},"?":{"ha":709,"x_min":211,"x_max":819,"o":"m 250 136 l 385 136 l 347 0 l 211 0 l 250 136 m 566 975 q 753 934 687 975 q 819 813 819 893 q 808 744 819 781 q 765 645 792 688 q 707 572 738 601 q 642 518 676 543 q 573 470 607 494 q 508 420 538 447 q 452 355 477 394 q 412 266 427 315 l 297 266 q 342 372 314 324 q 402 450 370 419 q 469 508 434 481 q 539 556 505 534 q 603 601 573 578 q 656 655 633 624 q 690 725 680 687 q 696 765 696 747 q 688 805 696 787 q 662 841 680 824 q 607 868 644 858 q 520 878 571 878 q 431 868 481 878 q 346 846 381 859 l 334 928 q 566 975 441 975 z "},"@":{"ha":1424,"x_min":170,"x_max":1476,"o":"m 902 652 q 1057 612 988 652 l 1086 656 l 1162 656 l 1023 171 q 1004 77 1004 105 q 1065 14 1004 14 q 1121 31 1090 14 q 1187 85 1152 49 q 1257 190 1222 122 q 1316 346 1291 258 q 1350 550 1350 463 q 987 840 1350 840 q 825 821 902 840 q 687 770 748 802 q 573 693 627 738 q 481 601 520 649 q 410 498 442 553 q 357 395 378 444 q 322 297 336 346 q 297 132 297 208 q 323 -9 297 54 q 395 -112 349 -72 q 502 -172 441 -151 q 634 -193 563 -193 q 845 -148 739 -193 l 865 -229 q 590 -290 728 -290 q 520 -286 555 -290 q 443 -271 486 -282 q 363 -244 400 -260 q 289 -198 326 -227 q 227 -133 253 -170 q 185 -43 201 -96 q 170 73 170 9 q 201 274 170 161 q 249 408 221 343 q 317 542 276 473 q 407 669 357 610 q 523 780 456 728 q 666 869 590 832 q 840 927 743 906 q 1046 949 938 949 q 1476 608 1476 949 q 1434 359 1476 501 q 1359 172 1404 254 q 1271 44 1315 90 q 1179 -31 1227 -1 q 1094 -69 1130 -60 q 1025 -78 1058 -78 q 930 -46 966 -78 q 892 38 895 -14 q 694 -14 789 -14 q 536 41 594 -14 q 478 194 478 96 q 496 307 478 244 q 652 556 540 460 q 902 652 764 652 m 894 570 q 717 504 797 570 q 603 322 637 439 q 589 233 589 273 q 634 115 589 156 q 755 74 680 74 q 900 109 825 74 l 1023 538 q 894 570 962 570 z "},"A":{"ha":938,"x_min":88,"x_max":904,"o":"m 707 964 l 838 964 l 904 0 l 787 0 l 770 280 l 372 280 l 195 0 l 88 0 l 707 964 m 735 851 l 436 381 l 764 381 l 735 851 z "},"B":{"ha":966,"x_min":197,"x_max":1021,"o":"m 563 876 l 470 552 q 515 553 483 553 q 565 554 547 553 q 615 556 583 554 q 668 562 648 559 q 718 571 688 565 q 766 586 747 578 q 809 608 786 595 q 848 637 832 621 q 877 676 863 654 q 899 726 891 699 q 905 771 905 749 q 870 846 905 817 q 749 876 835 876 l 563 876 m 445 463 l 341 102 l 521 102 q 562 102 545 102 q 611 106 578 102 q 667 116 644 110 q 722 136 691 123 q 774 168 752 149 q 816 215 796 186 q 846 280 836 243 q 854 333 854 309 q 799 436 854 399 q 644 472 743 472 q 445 463 631 472 m 473 964 l 812 964 q 901 953 863 964 q 961 926 939 943 q 997 887 983 910 q 1016 843 1011 864 q 1021 798 1021 822 q 1011 732 1021 765 q 938 614 994 673 q 831 538 881 555 q 937 477 899 526 q 975 361 975 429 q 965 292 975 328 q 949 248 959 271 q 919 196 939 225 q 875 140 900 167 q 814 88 850 114 q 734 43 777 62 q 633 12 691 24 q 510 0 575 0 l 197 0 l 473 964 z "},"C":{"ha":984,"x_min":300,"x_max":1194,"o":"m 947 970 q 1194 919 1078 970 l 1131 823 q 914 869 1013 869 q 754 837 833 869 q 614 750 675 804 q 507 627 553 696 q 440 481 462 557 q 422 364 422 419 q 499 168 422 243 q 717 92 576 92 q 946 133 821 92 l 957 47 q 657 -14 798 -14 q 497 13 566 -14 q 385 87 427 40 q 321 195 342 134 q 300 326 300 255 q 321 473 300 397 q 380 620 342 548 q 476 755 418 692 q 604 867 534 819 q 763 943 674 915 q 947 970 852 970 z "},"D":{"ha":1089,"x_min":197,"x_max":1152,"o":"m 559 862 l 341 102 l 481 102 q 532 102 512 102 q 588 106 553 103 q 649 117 623 110 q 712 136 676 123 q 777 168 747 149 q 839 214 806 186 q 900 279 871 243 q 1004 488 969 366 q 1025 619 1025 558 q 1009 716 1025 673 q 966 788 993 760 q 906 833 939 816 q 835 857 873 850 q 746 862 806 862 l 559 862 m 771 964 q 923 948 857 964 q 1031 905 989 932 q 1102 840 1074 878 q 1140 759 1129 801 q 1152 667 1152 717 q 1127 511 1152 595 q 1083 390 1109 448 q 1016 271 1057 332 q 925 163 975 211 q 807 77 876 115 q 660 20 739 39 q 571 6 619 11 q 492 1 523 1 q 406 0 461 0 l 197 0 l 473 964 l 771 964 z "},"E":{"ha":870,"x_min":197,"x_max":1038,"o":"m 197 0 l 473 964 l 1038 964 l 1008 862 l 559 862 l 469 547 l 881 547 l 852 446 l 439 446 l 341 102 l 791 102 l 762 0 l 197 0 z "},"F":{"ha":846,"x_min":197,"x_max":1031,"o":"m 559 862 l 469 547 l 871 547 l 842 446 l 439 446 l 312 0 l 197 0 l 473 964 l 1031 964 l 1002 862 l 559 862 z "},"G":{"ha":1079,"x_min":260,"x_max":1188,"o":"m 902 971 q 1188 889 1064 971 l 1118 803 q 1012 850 1075 830 q 879 869 949 869 q 734 843 808 869 q 595 769 661 817 q 478 648 530 721 q 401 488 426 575 q 382 366 382 423 q 462 164 382 240 q 678 89 542 89 q 913 168 809 89 l 984 414 l 710 414 l 737 509 l 1123 509 l 1015 130 q 960 90 990 109 q 880 44 930 70 q 762 2 830 18 q 621 -14 694 -14 q 458 13 529 -14 q 345 86 388 39 q 281 194 302 134 q 260 325 260 254 q 281 472 260 396 q 340 619 302 547 q 436 755 378 691 q 564 867 494 819 q 721 943 633 915 q 902 971 808 971 z "},"H":{"ha":1085,"x_min":197,"x_max":1219,"o":"m 1103 964 l 1219 964 l 943 0 l 827 0 l 956 446 l 440 446 l 312 0 l 197 0 l 473 964 l 588 964 l 469 548 l 985 548 l 1103 964 z "},"I":{"ha":495,"x_min":217,"x_max":608,"o":"m 493 964 l 608 964 l 332 0 l 217 0 l 493 964 z "},"J":{"ha":646,"x_min":76,"x_max":780,"o":"m 665 964 l 780 964 l 587 289 q 537 163 566 214 q 458 72 509 113 q 204 -12 354 -12 q 76 5 136 -12 l 122 101 q 214 90 165 90 q 291 99 256 90 q 350 119 326 107 q 394 150 374 131 q 426 184 414 169 q 448 222 437 200 q 461 255 458 244 q 470 283 465 267 l 665 964 z "},"K":{"ha":961,"x_min":197,"x_max":1157,"o":"m 473 964 l 588 964 l 312 0 l 197 0 l 473 964 m 1013 964 l 1157 964 l 618 504 l 907 0 l 758 0 l 470 494 l 1013 964 z "},"L":{"ha":768,"x_min":197,"x_max":774,"o":"m 473 964 l 588 964 l 341 101 l 774 101 l 745 0 l 197 0 l 473 964 z "},"M":{"ha":1278,"x_min":197,"x_max":1411,"o":"m 473 964 l 635 964 l 777 379 l 1259 964 l 1411 964 l 1135 0 l 1020 0 l 1249 798 l 803 276 l 688 276 l 541 798 l 312 0 l 197 0 l 473 964 z "},"N":{"ha":1125,"x_min":197,"x_max":1259,"o":"m 473 964 l 618 964 l 913 157 l 1143 964 l 1259 964 l 983 0 l 837 0 l 544 808 l 312 0 l 197 0 l 473 964 z "},"O":{"ha":1143,"x_min":258,"x_max":1218,"o":"m 879 974 q 1126 889 1035 974 q 1218 655 1218 804 q 1193 493 1218 579 q 960 130 1128 269 q 592 -10 792 -10 q 461 10 522 -10 q 356 69 401 30 q 284 170 310 108 q 258 311 258 232 q 283 479 258 389 q 514 839 348 703 q 879 974 681 974 m 844 873 q 718 850 782 873 q 594 782 654 827 q 484 663 534 738 q 406 494 433 588 q 384 349 384 414 q 450 160 384 229 q 629 91 517 91 q 728 105 677 91 q 830 150 779 119 q 927 226 882 181 q 1010 336 972 271 q 1071 481 1048 402 q 1093 623 1093 560 q 1079 715 1093 673 q 1042 786 1065 758 q 986 835 1019 815 q 919 864 954 854 q 844 873 883 873 z "},"P":{"ha":908,"x_min":197,"x_max":1053,"o":"m 473 964 l 791 964 q 832 963 816 964 q 879 960 848 963 q 929 950 909 956 q 975 932 950 945 q 1016 903 1000 920 q 1042 859 1031 886 q 1053 798 1053 832 q 1038 707 1053 755 q 1005 622 1025 661 q 964 553 986 583 q 913 500 942 524 q 858 461 885 477 q 796 434 830 446 q 733 415 762 422 q 667 405 703 409 q 602 400 630 401 q 538 399 573 399 q 428 404 492 399 l 312 0 l 197 0 l 473 964 m 457 506 q 579 500 521 500 q 635 501 612 500 q 691 506 658 502 q 748 517 724 510 q 801 538 772 524 q 849 572 829 553 q 887 621 869 591 q 916 688 905 650 q 926 749 926 721 q 913 801 926 779 q 882 834 900 823 q 834 852 863 846 q 782 861 805 859 q 727 862 759 862 l 559 862 l 457 506 z "},"Q":{"ha":1157,"x_min":257,"x_max":1216,"o":"m 880 974 q 1034 948 968 974 q 1139 878 1100 923 q 1197 775 1178 833 q 1216 650 1216 718 q 1154 381 1216 520 q 993 149 1093 243 l 1081 28 l 1000 -38 l 907 82 q 600 -10 764 -10 q 350 74 444 -10 q 257 311 257 159 q 283 478 257 389 q 417 741 326 627 q 630 914 509 854 q 880 974 750 974 m 842 873 q 719 850 782 873 q 596 784 656 828 q 484 664 535 739 q 406 491 433 588 q 383 347 383 412 q 455 158 383 224 q 642 91 526 91 q 852 154 752 91 l 696 356 l 789 429 l 937 225 q 1066 465 1024 318 q 1091 624 1091 552 q 1076 723 1091 679 q 1036 794 1061 766 q 978 840 1012 821 q 911 865 945 858 q 842 873 878 873 z "},"R":{"ha":975,"x_min":197,"x_max":1050,"o":"m 1034 699 q 996 608 1020 651 q 936 525 972 564 q 849 457 900 486 q 736 414 798 428 l 889 0 l 760 0 l 614 401 l 428 401 l 313 0 l 197 0 l 473 964 l 827 964 q 880 962 857 964 q 937 950 903 960 q 994 925 971 941 q 1033 877 1017 909 q 1050 800 1050 844 q 1034 699 1050 755 m 457 503 l 623 503 q 674 505 651 503 q 728 512 696 507 q 785 531 760 518 q 837 563 811 543 q 882 613 863 582 q 914 686 902 645 q 924 746 924 718 q 754 863 924 863 l 560 863 l 457 503 z "},"S":{"ha":923,"x_min":178,"x_max":1064,"o":"m 836 972 q 1064 934 947 972 l 996 829 q 795 864 885 864 q 613 821 694 864 q 512 712 531 779 q 507 681 507 697 q 530 624 507 649 q 588 582 552 599 q 668 549 625 565 q 755 514 711 533 q 834 473 798 496 q 893 415 871 450 q 916 334 916 380 q 905 269 916 305 q 871 192 895 231 q 808 116 848 154 q 719 50 769 79 q 600 4 669 22 q 452 -14 530 -14 q 312 3 373 -14 q 178 52 251 19 l 249 163 q 498 100 401 100 q 679 142 602 100 q 775 252 755 183 q 781 288 781 269 q 758 349 781 322 q 699 392 735 375 q 620 425 663 410 q 533 458 576 441 q 453 497 489 475 q 394 552 417 518 q 372 631 372 587 q 381 693 372 661 q 542 891 414 809 q 836 972 669 972 z "},"T":{"ha":821,"x_min":304,"x_max":1093,"o":"m 334 964 l 1093 964 l 1064 862 l 742 862 l 495 0 l 380 0 l 627 862 l 304 862 l 334 964 z "},"U":{"ha":1073,"x_min":267,"x_max":1205,"o":"m 473 964 l 588 964 l 409 339 q 391 237 391 275 q 410 163 391 195 q 588 86 457 86 q 760 128 684 86 q 877 245 837 170 q 912 339 896 281 l 1091 964 l 1205 964 l 1025 329 q 1008 274 1016 298 q 981 213 1000 251 q 941 147 962 175 q 882 87 919 119 q 802 34 846 55 q 696 0 759 14 q 559 -14 633 -14 q 461 -6 505 -14 q 387 14 416 2 q 334 44 357 26 q 299 79 311 62 q 279 118 286 97 q 269 156 271 140 q 267 190 267 172 l 267 203 q 292 330 268 250 l 473 964 z "},"V":{"ha":950,"x_min":371,"x_max":1185,"o":"m 371 964 l 508 964 l 543 122 l 1059 964 l 1185 964 l 574 0 l 431 0 l 371 964 z "},"W":{"ha":1468,"x_min":371,"x_max":1704,"o":"m 371 964 l 493 964 l 503 154 l 979 964 l 1095 964 l 1114 154 l 1581 964 l 1704 964 l 1131 0 l 1008 0 l 985 805 l 518 0 l 395 0 l 371 964 z "},"X":{"ha":928,"x_min":75,"x_max":1146,"o":"m 1013 964 l 1146 964 l 710 506 l 907 0 l 758 0 l 604 406 l 217 0 l 75 0 l 567 503 l 391 964 l 531 964 l 673 601 l 1013 964 z "},"Y":{"ha":857,"x_min":344,"x_max":1105,"o":"m 344 964 l 480 964 l 612 566 l 977 964 l 1105 964 l 632 456 l 501 0 l 386 0 l 517 456 l 344 964 z "},"Z":{"ha":921,"x_min":105,"x_max":1138,"o":"m 401 964 l 1138 964 l 1117 890 l 288 102 l 909 102 l 880 0 l 105 0 l 127 75 l 944 862 l 372 862 l 401 964 z "},"[":{"ha":514,"x_min":90,"x_max":774,"o":"m 463 1025 l 774 1025 l 745 924 l 546 924 l 230 -177 l 429 -177 l 400 -278 l 90 -278 l 463 1025 z "},"\\":{"ha":492,"x_min":290,"x_max":448,"o":"m 290 964 l 405 964 l 448 -61 l 332 -61 l 290 964 z "},"]":{"ha":514,"x_min":-46,"x_max":638,"o":"m 328 1025 l 638 1025 l 264 -278 l -46 -278 l -17 -177 l 182 -177 l 498 924 l 299 924 l 328 1025 z "},"^":{"ha":1003,"x_min":543,"x_max":909,"o":"m 791 1045 l 909 851 l 829 791 l 748 924 l 587 791 l 543 845 l 791 1045 z "},"_":{"ha":787,"x_min":102,"x_max":714,"o":"m 131 102 l 714 102 l 685 0 l 102 0 l 131 102 z "},"`":{"ha":761,"x_min":471,"x_max":824,"o":"m 543 1076 l 824 865 l 760 792 l 471 992 l 543 1076 z "},"a":{"ha":718,"x_min":125,"x_max":733,"o":"m 530 666 q 686 629 638 666 q 733 526 733 593 q 719 437 733 488 l 593 0 l 515 0 l 507 61 q 300 -14 405 -14 q 173 28 220 -14 q 125 132 125 70 q 131 174 125 152 q 177 257 144 222 q 251 315 209 293 q 349 349 292 336 q 463 367 406 362 q 588 372 519 372 l 603 422 q 614 486 614 459 q 485 574 614 574 q 301 545 420 574 l 303 625 q 530 666 425 666 m 564 288 l 524 288 q 457 286 486 288 q 390 279 429 285 q 325 262 351 273 q 275 230 298 251 q 243 179 252 208 q 241 159 241 170 q 273 99 241 123 q 355 74 305 74 q 522 140 441 74 l 564 288 z "},"b":{"ha":793,"x_min":125,"x_max":819,"o":"m 420 1025 l 531 1025 l 415 621 q 604 667 513 667 q 680 656 644 667 q 748 623 716 646 q 800 559 781 601 q 819 462 819 517 q 798 334 819 404 q 639 80 752 173 q 389 -14 526 -14 q 225 31 298 -14 l 203 0 l 125 0 l 420 1025 m 539 574 q 392 540 467 574 l 267 104 q 397 74 331 74 q 458 80 428 74 q 523 104 488 87 q 587 148 557 121 q 643 217 616 174 q 684 315 669 260 q 701 422 701 373 q 686 497 701 466 q 646 545 671 529 q 595 568 621 561 q 539 574 569 574 z "},"c":{"ha":669,"x_min":155,"x_max":768,"o":"m 175 311 q 234 450 197 389 q 312 552 270 512 q 404 617 354 591 q 501 654 454 644 q 595 665 548 665 q 768 625 690 665 l 718 545 q 582 570 652 570 q 498 559 538 570 q 417 523 458 548 q 342 450 376 498 q 290 334 309 402 q 273 231 273 275 q 288 157 273 188 q 329 110 302 126 q 386 85 355 93 q 453 78 416 78 q 583 100 514 78 l 588 24 q 388 -14 482 -14 q 304 -4 343 -14 q 231 27 266 5 q 176 90 196 49 q 155 187 155 131 q 175 311 155 243 z "},"d":{"ha":796,"x_min":157,"x_max":959,"o":"m 176 315 q 274 508 209 427 q 418 628 338 589 q 587 667 498 667 q 735 631 666 667 l 848 1025 l 959 1025 l 665 0 l 588 0 l 582 42 q 373 -14 473 -14 q 294 -2 331 -14 q 225 32 257 9 q 175 96 194 55 q 157 192 157 137 q 176 315 157 248 m 435 78 q 587 115 509 78 l 711 548 q 578 579 649 579 q 517 573 547 579 q 452 549 487 566 q 389 505 418 532 q 333 434 359 478 q 290 332 306 389 q 273 232 273 274 q 288 156 273 188 q 328 109 303 125 q 380 85 353 92 q 435 78 406 78 z "},"e":{"ha":738,"x_min":155,"x_max":775,"o":"m 594 666 q 775 506 775 666 q 742 326 775 444 l 727 275 l 275 275 q 269 229 269 250 q 318 120 269 165 q 464 75 368 75 q 620 99 531 75 l 618 24 q 397 -14 500 -14 q 300 -3 342 -14 q 232 25 258 7 q 187 70 205 43 q 162 124 170 96 q 155 186 155 153 q 174 305 155 243 q 248 468 200 397 q 354 581 296 539 q 473 645 412 623 q 594 666 534 666 m 543 570 q 392 507 458 570 q 302 359 326 444 l 643 359 q 660 459 660 418 q 543 570 660 570 z "},"f":{"ha":542,"x_min":-177,"x_max":832,"o":"m 692 876 q 621 864 652 876 q 570 837 589 852 q 536 798 551 821 q 516 761 522 775 q 506 732 511 747 l 484 653 l 703 653 l 677 566 l 458 566 l 258 -133 q 195 -265 233 -220 q 98 -335 155 -311 q -26 -360 41 -360 q -177 -334 -100 -360 l -137 -253 q -37 -269 -83 -269 q 34 -258 2 -269 q 83 -233 65 -247 q 116 -198 102 -218 q 135 -164 130 -177 q 144 -138 140 -152 l 346 566 l 252 566 l 277 653 l 371 653 l 392 725 q 458 867 418 818 q 557 943 498 916 q 682 969 615 969 q 832 943 753 969 l 791 859 q 692 876 736 876 z "},"g":{"ha":788,"x_min":43,"x_max":851,"o":"m 581 667 q 748 613 661 667 l 773 653 l 851 653 l 650 -47 q 638 -86 644 -68 q 615 -139 631 -104 q 578 -201 598 -173 q 525 -261 558 -229 q 452 -315 491 -294 q 356 -352 412 -337 q 235 -367 299 -367 q 43 -323 134 -367 l 98 -243 q 247 -274 170 -274 q 548 -17 475 -274 l 562 33 q 376 -14 464 -14 q 295 -2 333 -14 q 225 34 257 10 q 176 100 194 58 q 157 197 157 142 q 178 325 157 252 q 238 462 199 401 q 320 560 277 523 q 413 622 363 597 q 504 657 463 647 q 581 667 545 667 m 563 576 q 396 511 471 576 q 290 337 321 445 q 275 239 275 286 q 314 122 275 165 q 433 78 354 78 q 586 115 506 78 l 707 540 q 563 576 627 576 z "},"h":{"ha":799,"x_min":125,"x_max":808,"o":"m 574 566 q 385 516 496 566 l 237 0 l 125 0 l 420 1025 l 531 1025 l 410 602 q 646 665 545 665 q 808 519 808 665 q 782 375 808 467 l 674 0 l 560 0 l 673 393 q 685 467 685 438 q 574 566 685 566 z "},"i":{"ha":355,"x_min":122,"x_max":519,"o":"m 388 964 l 519 964 l 483 836 l 351 836 l 388 964 m 314 670 l 425 670 l 233 0 l 122 0 l 314 670 z "},"j":{"ha":353,"x_min":-68,"x_max":517,"o":"m 385 964 l 517 964 l 480 836 l 349 836 l 385 964 m 311 670 l 422 670 l 204 -93 q 188 -144 195 -124 q 161 -200 180 -164 q 116 -262 141 -237 q 48 -316 92 -288 q -51 -362 5 -344 l -68 -278 q 90 -104 56 -225 l 311 670 z "},"k":{"ha":720,"x_min":119,"x_max":848,"o":"m 413 1025 l 524 1025 l 231 0 l 119 0 l 413 1025 m 725 684 l 848 684 l 474 382 l 669 0 l 536 0 l 347 370 l 725 684 z "},"l":{"ha":382,"x_min":136,"x_max":541,"o":"m 429 1025 l 541 1025 l 247 0 l 136 0 l 429 1025 z "},"m":{"ha":1161,"x_min":119,"x_max":1168,"o":"m 545 564 q 378 513 488 564 l 231 0 l 119 0 l 307 653 l 385 653 l 392 597 q 618 666 531 666 q 754 591 719 666 q 1009 665 905 665 q 1168 526 1168 665 q 1145 392 1168 472 l 1034 0 l 922 0 l 1036 398 q 1048 469 1048 440 q 944 564 1048 564 q 768 513 882 564 q 742 386 767 475 l 631 0 l 520 0 l 635 400 q 646 469 646 438 q 545 564 646 564 z "},"n":{"ha":789,"x_min":119,"x_max":800,"o":"m 307 653 l 385 653 l 393 596 q 644 667 540 667 q 800 529 800 667 q 776 390 800 474 l 664 0 l 553 0 l 666 395 q 679 470 679 441 q 567 566 679 566 q 378 516 490 566 l 231 0 l 119 0 l 307 653 z "},"o":{"ha":810,"x_min":160,"x_max":835,"o":"m 597 666 q 770 610 706 666 q 835 451 835 554 q 818 340 835 399 q 653 82 771 178 q 392 -14 535 -14 q 222 44 284 -14 q 160 203 160 101 q 178 319 160 258 q 338 572 223 478 q 597 666 454 666 m 562 571 q 457 546 510 571 q 359 466 405 520 q 292 338 313 411 q 278 248 278 290 q 318 127 278 174 q 431 81 359 81 q 595 147 518 81 q 703 318 673 213 q 716 407 716 365 q 672 528 716 485 q 562 571 627 571 z "},"p":{"ha":789,"x_min":16,"x_max":814,"o":"m 600 666 q 662 660 632 666 q 719 638 691 653 q 768 600 747 623 q 802 541 789 577 q 814 460 814 505 q 794 334 814 407 q 700 147 763 227 q 556 27 637 68 q 385 -14 475 -14 q 237 22 306 -14 l 127 -360 l 16 -360 l 307 653 l 384 653 l 390 610 q 600 666 499 666 m 535 574 q 385 538 462 574 l 260 105 q 393 74 323 74 q 454 80 424 74 q 519 104 484 87 q 583 148 553 121 q 638 217 612 174 q 680 315 665 260 q 697 421 697 373 q 682 497 697 465 q 642 544 667 528 q 591 567 617 560 q 535 574 565 574 z "},"q":{"ha":788,"x_min":157,"x_max":851,"o":"m 581 667 q 748 613 661 667 l 773 653 l 851 653 l 561 -360 l 450 -360 l 562 33 q 371 -14 461 -14 q 293 -3 330 -14 q 225 31 256 8 q 175 96 193 54 q 157 193 157 137 q 177 323 157 252 q 247 474 201 407 q 349 583 293 542 q 465 645 405 624 q 581 667 524 667 m 563 576 q 396 511 471 576 q 289 333 321 445 q 273 233 273 277 q 288 159 273 190 q 326 111 302 127 q 378 86 351 94 q 435 79 405 79 q 586 115 509 79 l 707 540 q 563 576 627 576 z "},"r":{"ha":535,"x_min":119,"x_max":709,"o":"m 391 603 q 592 666 492 666 q 709 640 661 666 l 651 551 q 549 571 604 571 q 381 526 467 571 l 231 0 l 119 0 l 307 653 l 385 653 l 391 603 z "},"s":{"ha":682,"x_min":97,"x_max":745,"o":"m 585 666 q 611 666 599 666 q 635 664 623 665 q 654 662 646 663 q 672 659 662 661 q 688 656 683 657 q 703 652 692 655 q 716 648 714 649 q 731 644 719 648 q 745 639 743 640 l 692 555 q 542 579 607 579 q 456 568 494 579 q 398 539 418 557 q 368 507 378 522 q 354 479 358 492 q 352 465 352 472 q 375 426 352 444 q 431 396 397 408 q 505 368 465 384 q 578 335 545 352 q 635 290 612 319 q 658 226 658 262 q 652 186 658 208 q 629 134 644 159 q 587 81 615 109 q 523 33 559 54 q 430 0 486 13 q 307 -14 374 -14 q 97 37 205 -14 l 151 120 q 254 84 213 95 q 336 74 294 74 q 528 176 498 74 q 530 192 530 184 q 499 237 530 218 q 424 270 468 256 q 336 301 380 284 q 261 349 292 318 q 230 425 230 380 q 237 469 230 446 q 258 518 243 493 q 302 570 273 543 q 368 618 331 597 q 462 652 406 639 q 585 666 519 666 z "},"t":{"ha":517,"x_min":176,"x_max":632,"o":"m 472 12 q 315 -14 368 -14 q 176 106 176 -14 q 193 205 176 146 l 296 566 l 208 566 l 233 653 l 321 653 l 381 862 l 492 862 l 433 653 l 632 653 l 607 566 l 408 566 l 305 208 q 294 145 294 168 q 374 73 294 73 q 479 87 393 73 l 472 12 z "},"u":{"ha":789,"x_min":170,"x_max":852,"o":"m 741 653 l 852 653 l 665 0 l 587 0 l 579 56 q 327 -14 433 -14 q 170 125 170 -14 q 195 263 170 179 l 307 653 l 418 653 l 304 257 q 292 184 292 217 q 404 86 292 86 q 593 137 480 86 l 741 653 z "},"v":{"ha":665,"x_min":231,"x_max":807,"o":"m 807 653 l 387 0 l 275 0 l 231 653 l 353 653 l 366 108 l 692 653 l 807 653 z "},"w":{"ha":1122,"x_min":227,"x_max":1267,"o":"m 227 653 l 346 653 l 366 105 l 691 653 l 798 653 l 815 106 l 1149 653 l 1267 653 l 839 0 l 730 0 l 707 530 l 384 0 l 275 0 l 227 653 z "},"x":{"ha":701,"x_min":51,"x_max":840,"o":"m 231 653 l 359 653 l 469 394 l 722 653 l 840 653 l 500 320 l 640 0 l 511 0 l 406 245 l 170 0 l 51 0 l 374 321 l 231 653 z "},"y":{"ha":711,"x_min":75,"x_max":864,"o":"m 220 653 l 342 653 l 394 94 l 749 653 l 864 653 l 194 -360 l 75 -360 l 301 -39 l 220 653 z "},"z":{"ha":718,"x_min":99,"x_max":785,"o":"m 286 653 l 785 653 l 768 594 l 265 87 l 639 87 l 614 0 l 99 0 l 116 59 l 617 566 l 261 566 l 286 653 z "},"{":{"ha":541,"x_min":155,"x_max":777,"o":"m 181 419 q 244 439 214 425 q 297 470 275 453 q 339 513 319 488 q 373 560 359 538 q 399 611 386 582 q 419 657 412 640 q 434 700 425 675 q 446 732 443 725 q 511 858 473 804 q 585 942 549 913 q 661 991 621 972 q 727 1017 701 1011 q 777 1025 753 1023 l 772 937 q 623 856 689 926 q 570 782 593 825 q 534 697 547 739 q 500 608 520 656 q 460 520 481 561 q 400 440 439 479 q 311 372 362 400 q 376 226 376 321 q 356 84 376 179 q 336 -51 336 -11 q 345 -111 336 -85 q 385 -165 357 -143 q 448 -192 412 -187 l 403 -279 q 367 -274 385 -278 q 322 -256 349 -269 q 277 -221 296 -242 q 243 -163 257 -201 q 229 -76 229 -125 q 237 4 229 -41 q 248 56 239 18 q 261 123 256 94 q 266 180 266 153 q 222 293 266 253 q 155 326 195 318 l 181 419 z "},"|":{"ha":600,"x_min":184,"x_max":667,"o":"m 555 1086 l 667 1086 l 296 -209 l 184 -209 l 555 1086 z "},"}":{"ha":541,"x_min":-22,"x_max":600,"o":"m 352 1025 q 390 1019 371 1023 q 435 1000 409 1014 q 479 966 460 987 q 512 908 498 945 q 526 822 526 870 q 516 732 526 779 q 509 697 513 720 q 500 656 504 675 q 494 621 496 637 q 490 568 490 593 q 520 465 490 501 q 600 419 550 428 l 574 326 q 509 306 540 320 q 457 274 479 292 q 414 230 435 256 q 381 182 394 205 q 355 131 368 160 q 335 83 342 102 q 319 39 328 64 q 307 4 311 14 q 242 -118 281 -65 q 166 -200 203 -172 q 90 -248 130 -229 q 24 -272 49 -267 q -22 -279 0 -278 l -17 -192 q 132 -111 66 -181 q 191 -22 165 -75 q 234 84 216 32 q 275 189 252 136 q 340 290 298 241 q 443 372 382 339 q 379 517 379 422 q 399 659 379 564 q 419 795 419 753 q 410 856 419 829 q 370 910 397 888 q 307 937 343 932 l 352 1025 z "},"~":{"ha":949,"x_min":486,"x_max":1032,"o":"m 859 923 q 874 925 867 923 q 889 933 882 928 q 902 943 897 938 q 915 957 908 948 q 925 973 921 966 q 935 991 929 979 q 944 1010 941 1004 q 954 1029 947 1017 q 962 1048 960 1042 l 1032 1036 q 1020 1011 1029 1030 q 1007 984 1011 993 q 994 958 1003 976 q 979 932 985 941 q 962 908 972 923 q 943 885 951 893 q 922 867 935 878 q 897 852 909 857 q 870 844 885 848 q 839 840 855 840 q 785 853 809 840 q 745 884 760 865 q 716 920 729 902 q 688 951 703 939 q 659 964 674 964 q 643 962 650 964 q 628 954 635 960 q 615 944 621 949 q 603 930 609 939 q 592 915 596 920 q 582 896 589 909 q 573 878 576 884 q 564 859 570 873 q 556 842 558 846 l 486 852 q 497 877 488 858 q 510 904 507 895 q 524 929 514 912 q 539 956 533 947 q 555 979 545 964 q 574 1002 566 994 q 595 1019 583 1009 q 620 1034 608 1029 q 647 1043 632 1039 q 678 1046 662 1046 q 732 1034 708 1046 q 772 1003 757 1021 q 801 966 788 985 q 829 936 814 948 q 859 923 843 923 z "}," ":{"ha":380,"x_min":0,"x_max":0,"o":""},"¡":{"ha":441,"x_min":83,"x_max":545,"o":"m 330 585 l 446 585 l 198 -278 l 83 -278 l 330 585 m 410 896 l 545 896 l 506 760 l 370 760 l 410 896 z "},"¢":{"ha":692,"x_min":220,"x_max":844,"o":"m 240 484 q 378 725 282 631 q 608 838 475 819 l 662 1025 l 744 1025 l 692 842 q 844 802 764 842 l 794 721 q 654 747 726 747 q 465 685 543 747 q 355 507 388 623 q 338 404 338 450 q 354 326 338 359 q 397 277 370 294 q 456 252 425 260 q 524 244 487 244 q 656 267 586 244 l 661 190 q 495 155 564 155 l 437 -44 l 355 -44 l 413 155 q 272 217 324 166 q 220 361 220 268 q 240 484 220 416 z "},"£":{"ha":882,"x_min":103,"x_max":1028,"o":"m 130 92 l 295 92 l 397 449 l 278 449 l 304 541 l 424 541 l 451 636 q 510 773 473 713 q 590 869 547 833 q 683 929 632 906 q 781 962 734 953 q 876 970 827 970 q 1028 945 956 970 l 972 862 q 865 878 916 878 q 770 867 813 878 q 696 833 726 855 q 642 787 665 812 q 602 731 618 763 q 575 673 585 699 q 557 618 566 648 l 535 541 l 895 541 l 868 449 l 509 449 l 406 92 l 805 92 l 779 0 l 103 0 l 130 92 z "},"¤":{"ha":882,"x_min":204,"x_max":966,"o":"m 349 385 q 340 441 340 412 q 416 621 340 534 l 336 734 l 445 819 l 526 705 q 652 737 589 737 q 760 705 716 737 l 905 817 l 966 732 l 821 621 q 828 566 828 596 q 753 386 828 469 l 833 274 l 724 189 l 644 301 q 517 269 581 269 q 410 300 454 269 l 264 188 l 204 273 l 349 385 m 625 642 q 517 601 569 642 q 449 503 466 560 q 444 464 444 484 q 471 392 444 420 q 545 364 499 364 q 652 405 600 364 q 720 503 703 446 q 726 542 726 523 q 697 614 726 586 q 625 642 669 642 z "},"¥":{"ha":882,"x_min":243,"x_max":1061,"o":"m 373 964 l 498 964 l 600 555 l 942 964 l 1061 964 l 631 474 l 822 474 l 798 389 l 602 389 l 563 254 l 759 254 l 734 169 l 538 169 l 490 0 l 382 0 l 430 169 l 243 169 l 268 254 l 454 254 l 494 389 l 307 389 l 331 474 l 513 474 l 373 964 z "},"¦":{"ha":600,"x_min":184,"x_max":667,"o":"m 334 312 l 445 312 l 296 -209 l 184 -209 l 334 312 m 555 1086 l 667 1086 l 518 568 l 407 568 l 555 1086 z "},"§":{"ha":770,"x_min":117,"x_max":896,"o":"m 720 972 q 756 972 739 972 q 788 969 772 971 q 813 966 803 967 q 837 961 823 964 q 856 956 851 957 q 877 949 861 954 q 896 943 892 944 l 840 854 q 677 881 762 881 q 547 854 604 881 q 477 779 490 827 q 474 760 474 770 q 498 714 474 734 q 558 680 522 693 q 637 649 595 666 q 716 615 680 632 q 776 568 752 597 q 800 502 800 539 q 794 463 800 484 q 696 321 771 380 q 726 248 726 290 q 720 208 726 229 q 696 150 712 178 q 651 92 681 122 q 581 39 621 61 q 482 1 542 16 q 351 -14 422 -14 l 342 -14 q 117 31 217 -14 l 172 115 q 367 74 277 74 q 589 194 554 74 q 591 214 591 203 q 568 259 591 239 q 508 290 544 279 q 431 317 473 302 q 354 348 390 332 q 295 394 319 364 q 271 463 271 424 q 279 510 271 484 q 376 640 299 583 q 345 718 345 673 q 351 764 345 740 q 386 832 361 798 q 454 899 412 867 q 566 952 497 932 q 720 972 635 972 m 456 590 q 404 523 414 562 q 401 504 401 514 q 413 469 401 485 q 449 441 425 454 q 496 419 473 429 q 555 398 519 410 q 612 376 590 385 q 662 449 650 405 q 665 469 665 459 q 653 504 665 489 q 617 530 641 519 q 571 550 593 542 q 513 570 548 558 q 456 590 478 581 z "},"¨":{"ha":814,"x_min":432,"x_max":898,"o":"m 468 964 l 593 964 l 557 838 l 432 838 l 468 964 m 772 964 l 898 964 l 862 838 l 736 838 l 772 964 z "},"©":{"ha":1194,"x_min":230,"x_max":1230,"o":"m 820 715 q 947 686 890 715 l 910 627 q 808 646 861 646 q 746 638 776 646 q 687 612 717 630 q 632 557 656 593 q 593 471 608 522 q 581 395 581 427 q 617 308 581 334 q 713 282 654 282 q 810 298 758 282 l 815 243 q 669 216 739 216 q 607 223 635 216 q 552 247 578 231 q 511 294 526 263 q 496 366 496 324 q 511 456 496 408 q 566 578 530 526 q 645 660 602 631 q 731 702 688 688 q 820 715 775 715 m 840 846 q 627 794 732 846 q 445 654 522 742 q 338 463 368 566 q 323 361 323 412 q 405 159 323 239 q 620 80 486 80 q 832 132 727 80 q 1015 273 938 184 q 1121 463 1092 361 q 1136 566 1136 515 q 1055 767 1136 688 q 840 846 974 846 m 865 936 q 1130 838 1030 936 q 1230 590 1230 740 q 1211 463 1230 525 q 1122 282 1184 369 q 977 131 1059 195 q 794 29 895 67 q 594 -9 693 -9 q 330 89 429 -9 q 230 336 230 186 q 248 463 230 401 q 377 696 284 587 q 601 870 471 804 q 865 936 731 936 z "},"ª":{"ha":515,"x_min":288,"x_max":644,"o":"m 562 747 l 566 763 q 572 797 572 783 q 498 854 572 854 q 380 836 444 854 l 381 884 q 522 908 454 908 q 644 823 644 908 q 634 767 644 804 l 562 515 l 514 515 l 510 552 q 396 503 451 503 q 317 525 347 503 q 288 585 288 546 q 294 621 288 600 q 377 722 315 696 q 562 747 438 747 m 546 691 l 527 691 q 477 689 498 691 q 429 682 456 688 q 385 660 402 675 q 360 622 367 645 q 358 608 358 614 q 375 572 358 587 q 422 557 391 557 q 523 612 472 557 l 546 691 z "},"«":{"ha":635,"x_min":172,"x_max":793,"o":"m 667 670 l 793 670 l 536 422 l 651 175 l 526 175 l 424 422 l 667 670 m 416 670 l 541 670 l 285 422 l 399 175 l 274 175 l 172 422 l 416 670 z "},"¬":{"ha":949,"x_min":198,"x_max":1007,"o":"m 227 496 l 1007 496 l 920 191 l 819 191 l 878 395 l 198 395 l 227 496 z "},"­":{"ha":728,"x_min":264,"x_max":721,"o":"m 291 494 l 721 494 l 694 399 l 264 399 l 291 494 z "},"®":{"ha":836,"x_min":250,"x_max":991,"o":"m 697 895 q 723 894 713 895 q 750 888 734 892 q 776 871 766 884 q 790 839 786 859 q 791 824 791 829 q 781 771 791 799 q 745 715 770 743 q 683 677 719 688 l 716 526 l 648 526 l 620 667 l 544 667 l 504 526 l 441 526 l 547 895 l 697 895 m 722 1059 q 917 987 842 1059 q 991 803 991 915 q 977 707 991 757 q 879 531 950 612 q 711 403 807 450 q 520 356 616 356 q 324 429 398 356 q 250 613 250 502 q 264 707 250 661 q 362 884 291 803 q 530 1012 434 965 q 722 1059 626 1059 m 700 983 q 477 902 583 983 q 339 707 372 821 q 328 633 328 670 q 387 489 328 546 q 541 431 445 431 q 764 513 659 431 q 902 707 869 595 q 913 781 913 745 q 854 926 913 869 q 700 983 796 983 m 659 841 l 594 841 l 559 720 q 602 719 591 720 q 621 719 612 719 q 724 778 707 719 q 727 800 727 791 q 659 841 727 841 z "},"¯":{"ha":949,"x_min":484,"x_max":1075,"o":"m 512 1112 l 1075 1112 l 1046 1011 l 484 1011 l 512 1112 z "},"°":{"ha":399,"x_min":285,"x_max":595,"o":"m 466 928 q 395 901 429 928 q 352 838 362 874 q 348 812 348 825 q 366 765 348 784 q 414 747 383 747 q 484 774 451 747 q 526 838 516 802 q 530 863 530 850 q 513 909 530 891 q 466 928 496 928 m 483 989 q 564 959 532 989 q 595 880 595 928 q 589 838 595 860 q 514 729 570 774 q 397 685 458 685 q 316 716 347 685 q 285 795 285 747 q 291 838 285 815 q 366 945 309 901 q 483 989 422 989 z "},"±":{"ha":949,"x_min":178,"x_max":996,"o":"m 205 195 l 856 195 l 829 102 l 178 102 l 205 195 m 701 964 l 800 964 l 720 684 l 996 684 l 970 591 l 694 591 l 614 313 l 515 313 l 595 591 l 319 591 l 345 684 l 621 684 l 701 964 z "},"²":{"ha":543,"x_min":247,"x_max":680,"o":"m 547 1034 q 644 1006 607 1034 q 680 932 680 979 q 675 899 680 916 q 639 833 665 864 q 578 777 613 802 q 506 725 543 751 q 429 663 469 699 q 361 585 389 626 l 594 585 l 574 514 l 247 514 l 260 558 q 338 662 293 614 q 424 742 383 711 q 501 799 464 773 q 563 847 538 825 q 593 889 587 870 q 595 904 595 897 q 573 946 595 929 q 516 964 551 964 q 380 929 477 964 l 372 991 q 547 1034 469 1034 z "},"³":{"ha":543,"x_min":239,"x_max":663,"o":"m 378 991 q 539 1031 472 1031 q 631 1004 600 1031 q 663 936 663 977 q 638 860 663 898 q 570 800 613 823 q 621 718 621 776 q 603 648 621 684 q 552 580 584 611 q 471 529 519 549 q 368 509 422 509 q 239 538 303 509 l 280 604 q 391 583 350 583 q 481 607 439 583 q 533 670 522 632 q 536 693 536 681 q 524 727 536 713 q 490 746 512 740 q 449 753 469 751 q 404 755 430 755 l 425 825 q 535 847 500 825 q 578 898 570 869 q 581 911 581 905 q 563 945 581 932 q 511 959 545 959 q 387 928 463 959 l 378 991 z "},"´":{"ha":761,"x_min":434,"x_max":859,"o":"m 836 1075 l 859 991 l 455 791 l 434 865 l 836 1075 z "},"µ":{"ha":796,"x_min":46,"x_max":859,"o":"m 313 653 l 424 653 l 319 286 q 303 190 303 229 q 419 76 303 76 q 597 127 478 76 l 747 653 l 859 653 l 671 0 l 593 0 l 587 45 q 374 -18 472 -18 q 247 36 291 -18 l 157 -278 l 46 -278 l 313 653 z "},"¶":{"ha":907,"x_min":291,"x_max":1072,"o":"m 701 1025 l 1072 1025 l 779 0 l 663 0 l 928 923 l 765 923 l 500 0 l 385 0 l 518 465 q 464 469 491 465 q 405 486 437 473 q 348 519 372 498 q 308 575 324 539 q 291 659 291 612 q 309 768 291 707 q 338 844 320 810 q 376 903 356 878 q 421 947 395 928 q 470 980 448 967 q 522 1001 492 992 q 572 1015 551 1010 q 621 1022 593 1019 q 664 1024 649 1024 q 701 1025 680 1025 z "},"·":{"ha":400,"x_min":251,"x_max":434,"o":"m 292 568 l 434 568 l 393 426 l 251 426 l 292 568 z "},"¸":{"ha":747,"x_min":175,"x_max":498,"o":"m 424 -220 q 426 -206 426 -212 q 423 -192 426 -198 q 413 -180 420 -185 q 400 -170 406 -174 q 379 -161 393 -166 q 356 -152 366 -155 q 326 -143 346 -149 q 294 -132 306 -136 l 375 15 l 461 15 l 404 -92 l 413 -95 q 426 -99 422 -98 q 439 -104 429 -100 q 454 -111 449 -108 q 467 -119 458 -114 q 480 -131 475 -125 q 489 -144 484 -137 q 496 -161 494 -152 q 498 -181 498 -170 q 494 -213 498 -197 q 431 -299 479 -261 q 319 -337 383 -337 q 289 -335 305 -337 q 255 -328 273 -332 q 227 -320 237 -323 q 197 -310 216 -317 q 175 -302 178 -303 l 210 -241 q 341 -273 308 -273 q 395 -257 372 -273 q 424 -220 418 -242 z "},"¹":{"ha":368,"x_min":304,"x_max":526,"o":"m 464 1025 l 526 1025 l 380 515 l 304 515 l 429 951 l 323 924 l 324 989 l 464 1025 z "},"º":{"ha":509,"x_min":248,"x_max":703,"o":"m 528 960 q 480 952 504 960 q 430 924 456 943 q 382 868 405 905 q 345 779 360 831 q 329 680 329 723 q 356 601 329 623 q 420 578 382 578 q 468 586 444 578 q 517 615 491 595 q 568 676 544 635 q 608 774 591 717 q 623 862 623 824 q 595 939 623 917 q 528 960 568 960 m 550 1030 q 601 1024 577 1030 q 649 1003 625 1018 q 689 958 674 989 q 703 884 703 928 q 686 777 703 835 q 571 582 651 653 q 399 510 490 510 q 290 545 332 510 q 248 659 248 581 q 267 777 248 711 q 384 964 302 899 q 550 1030 465 1030 z "},"»":{"ha":635,"x_min":84,"x_max":705,"o":"m 352 670 l 454 422 l 210 175 l 84 175 l 341 422 l 226 670 l 352 670 m 604 670 l 705 422 l 461 175 l 336 175 l 593 422 l 477 670 l 604 670 z "},"¼":{"ha":1221,"x_min":243,"x_max":1213,"o":"m 1076 964 l 1195 964 l 363 0 l 243 0 l 1076 964 m 507 964 l 583 964 l 427 419 l 337 419 l 468 876 l 366 849 l 368 928 l 507 964 m 1106 567 l 1213 567 l 1109 207 l 1181 207 l 1160 132 l 1088 132 l 1050 0 l 960 0 l 998 132 l 733 132 l 750 193 l 1106 567 m 1093 467 l 855 207 l 1019 207 l 1093 467 z "},"½":{"ha":1253,"x_min":243,"x_max":1261,"o":"m 1076 964 l 1195 964 l 363 0 l 243 0 l 1076 964 m 507 964 l 583 964 l 425 412 l 335 412 l 468 876 l 366 849 l 368 928 l 507 964 m 1114 571 q 1221 541 1180 571 q 1261 460 1261 511 q 1256 423 1261 440 q 1216 351 1245 385 q 1149 289 1187 317 q 1069 232 1110 260 q 985 163 1029 203 q 910 79 941 123 l 1166 79 l 1144 0 l 784 0 l 798 49 q 884 163 835 110 q 978 251 934 216 q 1063 313 1023 285 q 1131 367 1103 342 q 1164 412 1158 391 q 1166 429 1166 420 q 1143 475 1166 456 q 1080 494 1120 494 q 931 456 1036 494 l 922 524 q 1114 571 1032 571 z "},"¾":{"ha":1322,"x_min":258,"x_max":1314,"o":"m 1185 964 l 1303 964 l 471 0 l 352 0 l 1185 964 m 1208 567 l 1314 567 l 1211 207 l 1283 207 l 1262 132 l 1190 132 l 1152 0 l 1061 0 l 1099 132 l 835 132 l 852 193 l 1208 567 m 1195 467 l 957 207 l 1120 207 l 1195 467 m 411 939 q 589 983 514 983 q 689 954 655 983 q 724 878 724 924 q 696 794 724 836 q 623 728 669 753 q 679 642 679 701 q 672 598 679 623 q 570 460 648 513 q 399 408 493 408 q 258 441 331 408 l 304 513 q 425 489 384 489 q 524 516 478 489 q 581 585 569 543 q 585 610 585 599 q 439 680 585 680 l 462 756 q 584 780 545 756 q 631 836 623 804 q 633 850 633 844 q 614 888 633 873 q 557 903 594 903 q 420 869 504 903 l 411 939 z "},"¿":{"ha":710,"x_min":77,"x_max":671,"o":"m 432 670 l 547 670 q 527 544 527 598 q 542 460 527 497 q 578 400 557 424 q 621 353 600 376 q 656 301 642 331 q 671 235 671 272 q 660 163 671 203 q 576 31 640 92 q 440 -63 513 -31 q 306 -96 367 -96 q 183 -81 235 -96 q 77 -36 131 -66 l 136 47 q 315 0 237 0 q 465 45 402 0 q 545 153 528 90 q 552 195 552 176 q 537 250 552 224 q 500 296 522 275 q 457 342 479 317 q 420 409 435 368 q 405 503 405 450 q 432 670 405 576 m 506 964 l 642 964 l 603 827 l 467 827 l 506 964 z "},"À":{"ha":938,"x_min":88,"x_max":1013,"o":"m 707 964 l 838 964 l 904 0 l 787 0 l 770 280 l 372 280 l 195 0 l 88 0 l 707 964 m 735 851 l 436 381 l 764 381 l 735 851 m 732 1308 l 1013 1098 l 950 1025 l 661 1225 l 732 1308 z "},"Á":{"ha":938,"x_min":88,"x_max":1032,"o":"m 707 964 l 838 964 l 904 0 l 787 0 l 770 280 l 372 280 l 195 0 l 88 0 l 707 964 m 735 851 l 436 381 l 764 381 l 735 851 m 1008 1308 l 1032 1225 l 627 1025 l 606 1098 l 1008 1308 z "},"Â":{"ha":938,"x_min":88,"x_max":1002,"o":"m 707 964 l 838 964 l 904 0 l 787 0 l 770 280 l 372 280 l 195 0 l 88 0 l 707 964 m 735 851 l 436 381 l 764 381 l 735 851 m 884 1305 l 1002 1111 l 921 1051 l 840 1184 l 680 1052 l 635 1105 l 884 1305 z "},"Ã":{"ha":938,"x_min":88,"x_max":1119,"o":"m 1049 1274 l 1119 1262 q 1107 1237 1116 1256 q 1094 1210 1098 1219 q 1081 1184 1090 1202 q 1066 1158 1072 1167 q 1049 1135 1060 1149 q 1030 1112 1039 1120 q 1009 1095 1021 1105 q 985 1080 997 1084 q 958 1071 972 1075 q 926 1067 943 1067 q 872 1080 897 1067 q 832 1111 848 1093 q 803 1146 817 1128 q 776 1177 790 1164 q 746 1190 762 1190 q 728 1186 736 1190 q 712 1179 719 1183 q 697 1165 705 1175 q 685 1149 690 1156 q 673 1130 681 1143 q 663 1111 666 1117 q 652 1088 660 1104 q 642 1067 645 1072 l 572 1078 q 584 1102 575 1084 q 597 1129 593 1121 q 610 1155 601 1138 q 626 1181 620 1173 q 642 1205 631 1190 q 661 1227 652 1220 q 682 1245 670 1235 q 707 1260 694 1255 q 734 1269 719 1265 q 765 1272 749 1272 q 819 1260 795 1272 q 859 1229 844 1247 q 888 1193 875 1211 q 916 1163 901 1175 q 945 1150 930 1150 q 965 1154 956 1150 q 984 1166 975 1157 q 999 1181 993 1175 q 1014 1202 1005 1187 q 1025 1224 1022 1217 q 1038 1250 1029 1231 q 1049 1274 1047 1269 m 735 851 l 436 381 l 764 381 l 735 851 m 707 964 l 838 964 l 904 0 l 787 0 l 770 280 l 372 280 l 195 0 l 88 0 l 707 964 z "},"Ä":{"ha":938,"x_min":88,"x_max":1080,"o":"m 707 964 l 838 964 l 904 0 l 787 0 l 770 280 l 372 280 l 195 0 l 88 0 l 707 964 m 735 851 l 436 381 l 764 381 l 735 851 m 651 1286 l 777 1286 l 741 1161 l 615 1161 l 651 1286 m 955 1286 l 1080 1286 l 1044 1161 l 919 1161 l 955 1286 z "},"Å":{"ha":938,"x_min":88,"x_max":998,"o":"m 861 1270 q 960 1235 922 1270 q 998 1143 998 1199 q 991 1097 998 1120 q 935 1002 977 1045 q 840 938 893 959 l 904 0 l 787 0 l 770 280 l 372 280 l 195 0 l 88 0 l 691 939 q 627 1048 627 973 q 645 1125 627 1086 q 694 1197 663 1164 q 769 1250 724 1229 q 861 1270 813 1270 m 842 1200 q 758 1170 797 1200 q 707 1097 719 1139 q 703 1069 703 1083 q 724 1015 703 1036 q 783 994 745 994 q 866 1025 827 994 q 916 1097 904 1056 q 920 1125 920 1112 q 899 1178 920 1157 q 842 1200 878 1200 m 735 851 l 436 381 l 764 381 l 735 851 z "},"Æ":{"ha":1299,"x_min":88,"x_max":1466,"o":"m 455 381 l 765 381 l 903 862 l 779 862 l 455 381 m 741 964 l 1466 964 l 1437 862 l 1018 862 l 928 547 l 1310 547 l 1280 446 l 899 446 l 800 102 l 1219 102 l 1190 0 l 656 0 l 736 281 l 387 281 l 198 0 l 88 0 l 741 964 z "},"Ç":{"ha":984,"x_min":300,"x_max":1194,"o":"m 683 -214 q 617 -305 668 -267 q 503 -343 566 -343 q 453 -338 477 -343 q 351 -307 429 -332 l 392 -237 q 528 -271 494 -271 q 578 -256 557 -271 q 604 -222 599 -242 q 606 -208 606 -214 q 605 -198 606 -203 q 599 -189 603 -193 q 591 -181 595 -184 q 579 -174 587 -178 q 564 -168 571 -170 q 545 -161 557 -165 q 524 -154 533 -157 q 498 -145 514 -151 q 469 -136 481 -140 l 545 -1 q 361 115 423 27 q 300 326 300 203 q 329 502 300 412 q 415 676 358 593 q 549 825 472 760 q 729 931 625 891 q 947 970 833 970 q 1194 919 1078 970 l 1131 823 q 914 869 1013 869 q 754 837 833 869 q 614 750 675 804 q 507 627 553 696 q 440 481 462 557 q 422 364 422 419 q 499 168 422 243 q 717 92 576 92 q 946 133 821 92 l 957 47 q 657 -14 798 -14 l 638 -14 l 596 -92 l 602 -94 q 612 -96 608 -95 q 625 -101 616 -98 q 639 -107 633 -104 q 653 -116 645 -111 q 666 -128 661 -121 q 677 -142 672 -134 q 685 -160 682 -150 q 688 -182 688 -170 q 683 -214 688 -198 z "},"È":{"ha":870,"x_min":197,"x_max":1038,"o":"m 473 964 l 1038 964 l 1008 862 l 559 862 l 469 547 l 881 547 l 852 446 l 439 446 l 341 102 l 791 102 l 762 0 l 197 0 l 473 964 m 700 1308 l 981 1098 l 918 1025 l 628 1225 l 700 1308 z "},"É":{"ha":870,"x_min":197,"x_max":1044,"o":"m 473 964 l 1038 964 l 1008 862 l 559 862 l 469 547 l 881 547 l 852 446 l 439 446 l 341 102 l 791 102 l 762 0 l 197 0 l 473 964 m 1021 1308 l 1044 1225 l 640 1025 l 618 1098 l 1021 1308 z "},"Ê":{"ha":870,"x_min":197,"x_max":1038,"o":"m 473 964 l 1038 964 l 1008 862 l 559 862 l 469 547 l 881 547 l 852 446 l 439 446 l 341 102 l 791 102 l 762 0 l 197 0 l 473 964 m 864 1310 l 982 1116 l 901 1057 l 821 1190 l 660 1057 l 615 1110 l 864 1310 z "},"Ë":{"ha":870,"x_min":197,"x_max":1063,"o":"m 473 964 l 1038 964 l 1008 862 l 559 862 l 469 547 l 881 547 l 852 446 l 439 446 l 341 102 l 791 102 l 762 0 l 197 0 l 473 964 m 633 1287 l 759 1287 l 723 1162 l 597 1162 l 633 1287 m 937 1287 l 1063 1287 l 1027 1162 l 901 1162 l 937 1287 z "},"Ì":{"ha":495,"x_min":217,"x_max":797,"o":"m 493 964 l 608 964 l 332 0 l 217 0 l 493 964 m 515 1307 l 797 1097 l 733 1025 l 443 1223 l 515 1307 z "},"Í":{"ha":495,"x_min":217,"x_max":775,"o":"m 493 964 l 608 964 l 332 0 l 217 0 l 493 964 m 751 1309 l 775 1225 l 370 1025 l 350 1099 l 751 1309 z "},"Î":{"ha":495,"x_min":217,"x_max":758,"o":"m 493 964 l 608 964 l 332 0 l 217 0 l 493 964 m 640 1305 l 758 1111 l 677 1051 l 597 1184 l 436 1052 l 391 1105 l 640 1305 z "},"Ï":{"ha":454,"x_min":197,"x_max":804,"o":"m 473 964 l 588 964 l 312 0 l 197 0 l 473 964 m 414 1237 l 540 1237 l 504 1112 l 378 1112 l 414 1237 m 678 1237 l 804 1237 l 768 1112 l 642 1112 l 678 1237 z "},"Ð":{"ha":1088,"x_min":208,"x_max":1183,"o":"m 503 964 l 798 964 q 852 962 827 964 q 919 955 878 961 q 993 937 960 948 q 1063 904 1027 926 q 1125 852 1100 882 q 1167 776 1150 822 q 1183 673 1183 730 q 1158 511 1183 602 q 1084 329 1128 410 q 991 196 1039 248 q 882 105 943 144 q 771 47 821 66 q 660 16 720 27 q 561 2 599 5 q 479 0 524 0 l 227 0 l 355 446 l 208 446 l 237 548 l 385 548 l 503 964 m 589 862 l 500 548 l 673 548 l 644 446 l 471 446 l 372 102 l 512 102 q 568 103 543 102 q 629 109 594 104 q 695 122 665 114 q 761 144 725 130 q 826 178 796 159 q 888 228 857 198 q 945 294 920 257 q 995 380 971 330 q 1035 488 1018 430 q 1055 621 1055 558 q 1047 694 1055 661 q 1019 760 1039 728 q 968 813 999 791 q 888 849 937 836 q 777 862 839 862 l 589 862 z "},"Ñ":{"ha":1125,"x_min":197,"x_max":1259,"o":"m 862 1272 q 916 1260 892 1272 q 956 1229 941 1247 q 985 1193 972 1211 q 1013 1163 998 1175 q 1042 1150 1027 1150 q 1061 1154 1052 1150 q 1076 1161 1069 1157 q 1091 1175 1083 1166 q 1103 1191 1099 1184 q 1116 1211 1108 1197 q 1126 1231 1123 1224 q 1137 1253 1129 1237 q 1147 1274 1144 1269 l 1217 1262 q 1205 1237 1214 1257 q 1192 1210 1196 1218 q 1179 1184 1188 1202 q 1163 1158 1169 1166 q 1147 1135 1158 1149 q 1127 1112 1136 1120 q 1106 1095 1119 1105 q 1082 1080 1094 1084 q 1055 1071 1069 1075 q 1023 1067 1040 1067 q 969 1080 994 1067 q 929 1111 945 1093 q 900 1146 913 1128 q 873 1177 887 1164 q 843 1190 859 1190 q 823 1186 832 1190 q 805 1174 814 1183 q 790 1159 796 1166 q 776 1138 784 1152 q 764 1116 768 1123 q 751 1090 760 1108 q 740 1066 743 1072 l 670 1078 q 685 1108 671 1080 q 702 1143 698 1137 q 719 1174 705 1150 q 740 1206 732 1198 q 763 1231 747 1215 q 792 1254 779 1248 q 823 1266 805 1261 q 862 1272 842 1272 m 473 964 l 618 964 l 913 157 l 1143 964 l 1259 964 l 983 0 l 837 0 l 544 808 l 312 0 l 197 0 l 473 964 z "},"Ò":{"ha":1143,"x_min":258,"x_max":1218,"o":"m 879 974 q 1126 889 1035 974 q 1218 655 1218 804 q 1193 493 1218 579 q 960 130 1128 269 q 592 -10 792 -10 q 461 10 522 -10 q 356 69 401 30 q 284 170 310 108 q 258 311 258 232 q 283 479 258 389 q 514 839 348 703 q 879 974 681 974 m 1071 481 q 1093 622 1093 557 q 1072 734 1093 685 q 1016 813 1051 784 q 936 858 980 843 q 842 873 892 873 q 744 859 794 873 q 643 815 694 845 q 548 741 592 785 q 466 634 503 698 q 406 494 428 570 q 384 349 384 414 q 450 160 384 229 q 629 91 517 91 q 728 105 677 91 q 830 150 779 119 q 927 226 882 181 q 1010 336 972 271 q 1071 481 1048 402 m 876 1310 l 1157 1100 l 1093 1027 l 804 1227 l 876 1310 z "},"Ó":{"ha":1143,"x_min":258,"x_max":1218,"o":"m 879 974 q 1126 889 1035 974 q 1218 655 1218 804 q 1193 493 1218 579 q 960 130 1128 269 q 592 -10 792 -10 q 461 10 522 -10 q 356 69 401 30 q 284 170 310 108 q 258 311 258 232 q 283 479 258 389 q 514 839 348 703 q 879 974 681 974 m 1071 481 q 1093 622 1093 557 q 1072 734 1093 685 q 1016 813 1051 784 q 936 858 980 843 q 842 873 892 873 q 744 859 794 873 q 643 815 694 845 q 548 741 592 785 q 466 634 503 698 q 406 494 428 570 q 384 349 384 414 q 450 160 384 229 q 629 91 517 91 q 728 105 677 91 q 830 150 779 119 q 927 226 882 181 q 1010 336 972 271 q 1071 481 1048 402 m 1126 1309 l 1149 1225 l 745 1025 l 724 1099 l 1126 1309 z "},"Ô":{"ha":1143,"x_min":258,"x_max":1218,"o":"m 879 974 q 1126 889 1035 974 q 1218 655 1218 804 q 1193 493 1218 579 q 960 130 1128 269 q 592 -10 792 -10 q 461 10 522 -10 q 356 69 401 30 q 284 170 310 108 q 258 311 258 232 q 283 479 258 389 q 514 839 348 703 q 879 974 681 974 m 1071 481 q 1093 622 1093 557 q 1072 734 1093 685 q 1016 813 1051 784 q 936 858 980 843 q 842 873 892 873 q 744 859 794 873 q 643 815 694 845 q 548 741 592 785 q 466 634 503 698 q 406 494 428 570 q 384 349 384 414 q 450 160 384 229 q 629 91 517 91 q 728 105 677 91 q 830 150 779 119 q 927 226 882 181 q 1010 336 972 271 q 1071 481 1048 402 m 993 1305 l 1111 1111 l 1030 1051 l 949 1184 l 789 1052 l 744 1105 l 993 1305 z "},"Õ":{"ha":1143,"x_min":258,"x_max":1228,"o":"m 1158 1274 l 1228 1262 q 1216 1237 1225 1257 q 1203 1210 1207 1218 q 1190 1184 1200 1202 q 1175 1158 1181 1166 q 1158 1135 1169 1149 q 1139 1112 1147 1120 q 1118 1095 1131 1105 q 1093 1080 1105 1084 q 1066 1071 1081 1075 q 1035 1067 1051 1067 q 981 1080 1005 1067 q 941 1111 956 1093 q 912 1146 925 1128 q 884 1177 899 1164 q 854 1190 870 1190 q 834 1186 844 1190 q 817 1174 825 1183 q 802 1159 808 1166 q 787 1138 795 1152 q 775 1116 779 1123 q 763 1090 771 1108 q 751 1066 754 1072 l 682 1078 q 693 1102 684 1084 q 706 1129 703 1121 q 720 1155 710 1138 q 735 1181 729 1173 q 751 1205 741 1190 q 770 1227 762 1220 q 791 1245 779 1235 q 816 1260 804 1255 q 843 1269 828 1265 q 874 1272 858 1272 q 928 1260 904 1272 q 968 1229 953 1247 q 997 1193 984 1211 q 1025 1163 1010 1175 q 1055 1150 1039 1150 q 1075 1154 1065 1150 q 1093 1166 1084 1157 q 1108 1181 1102 1175 q 1123 1202 1114 1187 q 1135 1224 1131 1217 q 1147 1250 1138 1231 q 1158 1274 1156 1269 m 1071 481 q 1093 623 1093 557 q 1020 809 1093 745 q 842 873 948 873 q 744 859 794 873 q 643 815 694 845 q 548 741 592 785 q 466 634 503 698 q 406 494 428 570 q 384 349 384 414 q 450 160 384 229 q 629 91 517 91 q 728 105 677 91 q 830 150 779 119 q 927 226 882 181 q 1010 336 972 271 q 1071 481 1048 402 m 879 974 q 1126 889 1035 974 q 1218 655 1218 804 q 1193 493 1218 579 q 960 130 1128 269 q 592 -10 792 -10 q 461 10 522 -10 q 356 69 401 30 q 284 170 310 108 q 258 311 258 232 q 283 479 258 389 q 514 839 348 703 q 879 974 681 974 z "},"Ö":{"ha":1143,"x_min":258,"x_max":1218,"o":"m 879 974 q 1126 889 1035 974 q 1218 655 1218 804 q 1193 493 1218 579 q 960 130 1128 269 q 592 -10 792 -10 q 461 10 522 -10 q 356 69 401 30 q 284 170 310 108 q 258 311 258 232 q 283 479 258 389 q 514 839 348 703 q 879 974 681 974 m 1071 481 q 1093 622 1093 557 q 1072 734 1093 685 q 1016 813 1051 784 q 936 858 980 843 q 842 873 892 873 q 744 859 794 873 q 643 815 694 845 q 548 741 592 785 q 466 634 503 698 q 406 494 428 570 q 384 349 384 414 q 450 160 384 229 q 629 91 517 91 q 728 105 677 91 q 830 150 779 119 q 927 226 882 181 q 1010 336 972 271 q 1071 481 1048 402 m 760 1287 l 885 1287 l 849 1162 l 724 1162 l 760 1287 m 1064 1287 l 1190 1287 l 1154 1162 l 1028 1162 l 1064 1287 z "},"×":{"ha":881,"x_min":182,"x_max":949,"o":"m 233 132 l 182 203 l 492 444 l 323 678 l 415 749 l 589 505 l 899 745 l 949 673 l 641 433 l 808 198 l 717 127 l 542 372 l 233 132 z "},"Ø":{"ha":1191,"x_min":118,"x_max":1359,"o":"m 879 974 q 1049 940 972 974 q 1171 836 1126 905 l 1329 956 l 1359 911 l 1194 788 q 1217 655 1217 728 q 1193 493 1217 576 q 960 130 1128 269 q 592 -10 792 -10 q 514 -3 551 -10 q 451 13 477 3 q 400 38 425 22 q 362 63 376 53 q 334 90 349 74 q 317 110 320 106 q 308 123 314 115 l 146 3 l 118 47 l 283 171 q 258 310 258 231 q 283 479 258 391 q 514 839 348 703 q 879 974 681 974 m 1062 755 q 974 843 1031 812 q 844 873 916 873 q 718 850 782 873 q 594 782 654 827 q 484 663 534 738 q 406 494 433 588 q 384 348 384 418 q 396 256 384 297 l 1062 755 m 629 91 q 728 105 677 91 q 830 150 779 119 q 927 226 882 181 q 1010 336 972 271 q 1071 481 1048 402 q 1093 623 1093 560 q 1083 704 1093 665 l 417 205 q 504 120 448 149 q 629 91 559 91 z "},"Ù":{"ha":1072,"x_min":266,"x_max":1205,"o":"m 473 964 l 588 964 l 409 339 q 391 236 391 275 q 587 86 391 86 q 716 106 660 86 q 810 163 773 126 q 871 242 848 199 q 911 339 895 285 l 1090 964 l 1205 964 l 1023 328 q 1010 287 1016 303 q 993 241 1005 271 q 969 191 981 212 q 935 141 956 170 q 890 93 913 113 q 831 51 866 73 q 757 17 796 30 q 665 -5 718 3 q 554 -14 613 -14 q 266 190 266 -14 q 290 328 266 243 l 473 964 m 798 1307 l 1080 1097 l 1016 1025 l 726 1223 l 798 1307 z "},"Ú":{"ha":1072,"x_min":266,"x_max":1205,"o":"m 473 964 l 588 964 l 409 339 q 391 236 391 275 q 587 86 391 86 q 716 106 660 86 q 810 163 773 126 q 871 242 848 199 q 911 339 895 285 l 1090 964 l 1205 964 l 1023 328 q 1010 287 1016 303 q 993 241 1005 271 q 969 191 981 212 q 935 141 956 170 q 890 93 913 113 q 831 51 866 73 q 757 17 796 30 q 665 -5 718 3 q 554 -14 613 -14 q 266 190 266 -14 q 290 328 266 243 l 473 964 m 1097 1309 l 1120 1225 l 715 1025 l 695 1099 l 1097 1309 z "},"Û":{"ha":1072,"x_min":266,"x_max":1205,"o":"m 473 964 l 588 964 l 409 339 q 391 236 391 275 q 587 86 391 86 q 716 106 660 86 q 810 163 773 126 q 871 242 848 199 q 911 339 895 285 l 1090 964 l 1205 964 l 1023 328 q 1010 287 1016 303 q 993 241 1005 271 q 969 191 981 212 q 935 141 956 170 q 890 93 913 113 q 831 51 866 73 q 757 17 796 30 q 665 -5 718 3 q 554 -14 613 -14 q 266 190 266 -14 q 290 328 266 243 l 473 964 m 947 1305 l 1065 1111 l 983 1051 l 903 1184 l 743 1052 l 698 1105 l 947 1305 z "},"Ü":{"ha":1072,"x_min":266,"x_max":1205,"o":"m 473 964 l 588 964 l 409 339 q 391 236 391 275 q 587 86 391 86 q 716 106 660 86 q 810 163 773 126 q 871 242 848 199 q 911 339 895 285 l 1090 964 l 1205 964 l 1023 328 q 1010 287 1016 303 q 993 241 1005 271 q 969 191 981 212 q 935 141 956 170 q 890 93 913 113 q 831 51 866 73 q 757 17 796 30 q 665 -5 718 3 q 554 -14 613 -14 q 266 190 266 -14 q 290 328 266 243 l 473 964 m 717 1287 l 842 1287 l 806 1162 l 681 1162 l 717 1287 m 1021 1287 l 1147 1287 l 1111 1162 l 985 1162 l 1021 1287 z "},"Ý":{"ha":857,"x_min":344,"x_max":1105,"o":"m 344 964 l 480 964 l 612 566 l 977 964 l 1105 964 l 632 456 l 501 0 l 386 0 l 517 456 l 344 964 m 966 1309 l 989 1225 l 585 1025 l 564 1099 l 966 1309 z "},"Þ":{"ha":899,"x_min":197,"x_max":1005,"o":"m 659 684 q 506 677 580 684 l 406 328 q 536 321 479 321 l 555 321 q 600 322 582 321 q 649 327 618 323 q 702 338 680 331 q 752 359 724 345 q 799 392 779 373 q 838 442 819 412 q 867 510 857 472 q 876 566 876 541 q 862 619 876 597 q 828 654 848 642 q 776 673 808 666 q 719 682 745 680 q 659 684 692 684 m 473 964 l 588 964 l 535 778 q 720 787 626 787 q 833 779 784 787 q 922 753 882 771 q 984 701 962 734 q 1005 619 1005 667 q 992 536 1005 582 q 968 471 983 503 q 930 402 954 438 q 877 336 906 366 q 805 281 847 306 q 715 243 764 256 q 486 221 635 221 q 376 225 431 221 l 312 0 l 197 0 l 473 964 z "},"ß":{"ha":848,"x_min":132,"x_max":852,"o":"m 675 970 q 808 922 764 970 q 852 804 852 873 q 844 747 852 774 q 803 667 831 703 q 743 610 775 632 q 680 568 711 587 q 624 528 648 549 q 593 483 600 507 q 591 464 591 474 q 608 427 591 443 q 651 401 625 410 q 708 378 677 391 q 764 349 738 364 q 807 306 790 334 q 825 240 825 278 q 814 177 825 213 q 796 131 808 155 q 761 80 784 107 q 708 31 738 52 q 633 -4 678 10 q 535 -18 588 -18 q 339 14 437 -18 l 382 93 q 538 72 482 72 q 696 175 667 72 q 701 206 701 191 q 684 252 701 233 q 642 282 667 272 q 587 306 617 293 q 532 332 557 319 q 490 369 507 345 q 473 427 473 394 q 481 478 473 450 q 521 552 493 519 q 581 606 549 585 q 644 646 612 627 q 701 688 675 665 q 734 740 726 712 q 739 772 739 756 q 708 843 739 815 q 635 870 677 870 q 607 867 622 870 q 567 853 591 865 q 520 824 542 842 q 477 772 498 806 q 442 693 455 738 l 243 0 l 132 0 l 331 694 q 377 800 348 752 q 442 878 407 847 q 518 930 477 909 q 598 961 559 951 q 675 970 637 970 z "},"à":{"ha":718,"x_min":125,"x_max":772,"o":"m 529 665 q 685 629 638 665 q 732 526 732 593 q 718 434 732 485 l 593 0 l 515 0 l 507 61 q 300 -14 405 -14 q 173 28 220 -14 q 125 132 125 70 q 131 174 125 152 q 177 257 144 222 q 251 314 209 293 q 349 349 292 336 q 463 367 406 362 q 588 371 519 371 l 603 422 q 614 486 614 459 q 485 574 614 574 q 301 545 420 574 l 303 625 q 529 665 422 665 m 564 288 l 524 288 q 457 286 486 288 q 391 279 429 285 q 325 262 352 273 q 275 230 298 251 q 244 179 252 208 q 241 159 241 170 q 273 99 241 123 q 355 74 305 74 q 522 140 441 74 l 564 288 m 596 1044 l 772 814 l 698 743 l 513 966 l 596 1044 z "},"á":{"ha":718,"x_min":125,"x_max":790,"o":"m 751 1050 l 790 973 l 477 750 l 444 821 l 751 1050 m 564 288 l 524 288 q 457 286 486 288 q 391 279 429 285 q 325 262 352 273 q 275 230 298 251 q 244 179 252 208 q 241 159 241 170 q 273 99 241 123 q 355 74 305 74 q 522 140 441 74 l 564 288 m 529 665 q 685 629 638 665 q 732 526 732 593 q 718 434 732 485 l 593 0 l 515 0 l 507 61 q 300 -14 405 -14 q 173 28 220 -14 q 125 132 125 70 q 131 174 125 152 q 177 257 144 222 q 251 314 209 293 q 349 349 292 336 q 463 367 406 362 q 588 371 519 371 l 603 422 q 614 486 614 459 q 485 574 614 574 q 301 545 420 574 l 303 625 q 529 665 422 665 z "},"â":{"ha":718,"x_min":125,"x_max":764,"o":"m 652 1010 l 764 806 l 684 744 l 608 884 l 448 745 l 405 800 l 652 1010 m 564 288 l 524 288 q 457 286 486 288 q 391 279 429 285 q 325 262 352 273 q 275 230 298 251 q 244 179 252 208 q 241 159 241 170 q 273 99 241 123 q 355 74 305 74 q 522 140 441 74 l 564 288 m 529 665 q 685 629 638 665 q 732 526 732 593 q 718 434 732 485 l 593 0 l 515 0 l 507 61 q 300 -14 405 -14 q 173 28 220 -14 q 125 132 125 70 q 131 174 125 152 q 177 257 144 222 q 251 314 209 293 q 349 349 292 336 q 463 367 406 362 q 588 371 519 371 l 603 422 q 614 486 614 459 q 485 574 614 574 q 301 545 420 574 l 303 625 q 529 665 422 665 z "},"ã":{"ha":717,"x_min":125,"x_max":885,"o":"m 815 979 l 885 968 l 857 909 q 798 817 826 846 q 693 768 751 768 q 640 781 664 768 q 601 813 616 794 q 573 850 586 831 q 546 882 560 869 q 517 895 532 895 q 502 893 509 895 q 488 885 494 890 q 475 875 481 880 q 464 862 469 870 q 455 849 458 854 q 447 834 451 843 q 440 822 442 826 q 435 811 438 818 q 431 803 431 804 l 415 768 l 345 778 l 373 838 q 386 865 382 857 q 408 899 391 874 q 440 939 425 924 q 482 965 456 953 q 536 978 508 978 q 589 965 566 978 q 628 933 613 951 q 655 896 643 914 q 682 864 668 877 q 711 850 696 850 q 725 853 718 850 q 738 858 732 855 q 750 867 744 861 q 761 878 756 873 q 770 890 765 882 q 778 902 775 897 q 785 915 781 907 q 791 926 789 923 q 795 936 792 930 l 798 943 l 815 979 m 564 288 l 524 288 q 457 286 486 288 q 391 279 429 285 q 325 262 352 273 q 275 230 298 251 q 244 179 252 208 q 241 159 241 170 q 273 99 241 123 q 355 74 305 74 q 522 140 441 74 l 564 288 m 529 665 q 685 629 638 665 q 732 526 732 593 q 718 434 732 485 l 593 0 l 515 0 l 507 61 q 300 -14 405 -14 q 173 28 220 -14 q 125 132 125 70 q 131 174 125 152 q 177 257 144 222 q 251 314 209 293 q 349 349 292 336 q 463 367 406 362 q 588 371 519 371 l 603 422 q 614 486 614 459 q 485 574 614 574 q 301 545 420 574 l 303 625 q 529 665 422 665 z "},"ä":{"ha":720,"x_min":125,"x_max":876,"o":"m 750 964 l 876 964 l 839 838 l 713 838 l 750 964 m 450 964 l 575 964 l 539 838 l 414 838 l 450 964 m 567 288 l 526 288 q 460 286 488 288 q 392 279 431 285 q 326 262 353 273 q 276 230 299 251 q 244 179 252 208 q 241 159 241 170 q 274 99 241 123 q 357 74 306 74 q 524 140 443 74 l 567 288 m 530 665 q 688 629 640 665 q 736 525 736 592 q 721 434 736 485 l 596 0 l 517 0 l 509 61 q 302 -14 408 -14 q 173 28 222 -14 q 125 132 125 71 q 131 174 125 152 q 177 257 144 222 q 251 314 209 293 q 351 349 293 336 q 465 367 408 362 q 591 371 521 371 l 606 422 q 616 485 616 459 q 486 574 616 574 q 301 545 420 574 l 303 625 q 530 665 423 665 z "},"å":{"ha":720,"x_min":125,"x_max":783,"o":"m 657 1005 q 588 977 621 1005 q 543 909 555 948 q 539 879 539 894 q 555 831 539 850 q 602 812 572 812 q 670 842 637 812 q 713 909 703 871 q 718 938 718 924 q 701 986 718 967 q 657 1005 685 1005 m 674 1067 q 752 1036 722 1067 q 783 955 783 1004 q 776 909 783 932 q 701 797 757 843 q 584 751 644 751 q 506 782 536 751 q 475 862 475 813 q 482 909 475 886 q 557 1020 501 974 q 674 1067 614 1067 m 566 288 l 526 288 q 459 286 488 288 q 392 279 431 285 q 326 262 353 273 q 276 230 299 251 q 244 179 252 208 q 241 159 241 170 q 273 99 241 123 q 356 74 305 74 q 524 140 442 74 l 566 288 m 530 665 q 687 629 640 665 q 735 525 735 592 q 720 434 735 485 l 595 0 l 517 0 l 509 61 q 301 -14 407 -14 q 173 28 221 -14 q 125 132 125 70 q 131 174 125 152 q 177 257 144 222 q 251 314 209 293 q 350 349 292 336 q 464 367 408 362 q 590 371 520 371 l 605 422 q 616 486 616 460 q 486 574 616 574 q 301 545 420 574 l 303 625 q 530 665 423 665 z "},"æ":{"ha":1119,"x_min":125,"x_max":1147,"o":"m 244 182 q 241 161 241 173 q 276 100 241 125 q 359 75 310 75 q 521 138 444 75 l 564 287 q 378 273 448 287 q 281 238 308 259 q 244 182 254 216 m 938 569 q 793 511 858 569 q 705 371 729 452 l 1028 371 q 1042 459 1042 421 q 938 569 1042 569 m 303 623 q 538 665 426 665 q 661 634 617 665 q 715 549 705 604 q 844 633 773 602 q 985 665 916 665 q 1147 493 1147 665 q 1111 287 1147 414 l 675 287 q 667 233 667 258 q 719 120 667 163 q 857 76 770 76 q 1000 100 907 76 l 997 24 q 789 -14 885 -14 q 658 12 716 -14 q 572 88 600 37 q 311 -14 466 -14 q 179 28 232 -14 q 125 134 125 69 q 132 176 125 154 q 229 303 153 251 q 426 366 305 355 q 588 372 486 372 l 598 406 q 608 468 608 437 q 484 573 608 573 q 308 545 420 573 l 303 623 z "},"ç":{"ha":670,"x_min":145,"x_max":768,"o":"m 389 -221 q 391 -206 391 -213 q 388 -192 391 -199 q 378 -180 385 -186 q 365 -171 372 -175 q 345 -162 359 -167 q 322 -153 332 -157 q 294 -143 313 -150 q 262 -133 275 -137 l 328 -14 q 202 46 251 -1 q 154 183 154 93 q 174 307 154 237 q 232 446 196 384 q 311 547 269 507 q 403 613 353 587 q 499 650 452 639 q 595 661 547 661 q 768 621 690 661 l 719 541 q 582 565 653 565 q 515 559 547 565 q 448 536 483 553 q 384 494 413 519 q 329 426 355 469 q 288 330 304 384 q 272 227 272 273 q 287 152 272 183 q 328 105 302 121 q 385 81 355 88 q 452 73 415 73 q 584 95 513 73 l 589 19 q 410 -18 493 -14 l 370 -92 q 379 -95 370 -92 q 392 -99 388 -98 q 405 -104 395 -101 q 419 -112 414 -108 q 432 -120 424 -115 q 445 -132 440 -125 q 454 -145 449 -138 q 461 -162 459 -153 q 463 -182 463 -171 q 458 -214 463 -197 q 397 -300 444 -262 q 287 -338 349 -338 q 257 -335 273 -338 q 224 -328 241 -333 q 196 -320 206 -323 q 166 -311 185 -317 q 145 -303 148 -304 l 180 -241 q 307 -273 275 -273 q 360 -258 338 -273 q 389 -221 382 -243 z "},"è":{"ha":738,"x_min":155,"x_max":783,"o":"m 594 666 q 775 506 775 666 q 742 326 775 444 l 727 275 l 275 275 q 269 229 269 250 q 318 120 269 165 q 464 75 368 75 q 620 99 531 75 l 618 24 q 397 -14 500 -14 q 300 -3 342 -14 q 232 25 258 7 q 187 70 205 43 q 162 124 170 96 q 155 186 155 153 q 174 305 155 243 q 248 468 200 397 q 354 581 296 539 q 473 645 412 623 q 594 666 534 666 m 543 570 q 392 507 458 570 q 302 359 326 444 l 643 359 q 660 459 660 418 q 543 570 660 570 m 608 1050 l 783 821 l 710 750 l 525 973 l 608 1050 z "},"é":{"ha":738,"x_min":155,"x_max":857,"o":"m 594 666 q 775 506 775 666 q 742 326 775 444 l 727 275 l 275 275 q 269 229 269 250 q 318 120 269 165 q 464 75 368 75 q 620 99 531 75 l 618 24 q 397 -14 500 -14 q 300 -3 342 -14 q 232 25 258 7 q 187 70 205 43 q 162 124 170 96 q 155 186 155 153 q 174 305 155 243 q 248 468 200 397 q 354 581 296 539 q 473 645 412 623 q 594 666 534 666 m 543 570 q 392 507 458 570 q 302 359 326 444 l 643 359 q 660 459 660 418 q 543 570 660 570 m 817 1050 l 857 973 l 543 750 l 511 821 l 817 1050 z "},"ê":{"ha":738,"x_min":155,"x_max":822,"o":"m 594 666 q 775 506 775 666 q 742 326 775 444 l 727 275 l 275 275 q 269 229 269 250 q 318 120 269 165 q 464 75 368 75 q 620 99 531 75 l 618 24 q 397 -14 500 -14 q 300 -3 342 -14 q 232 25 258 7 q 187 70 205 43 q 162 124 170 96 q 155 186 155 153 q 174 305 155 243 q 248 468 200 397 q 354 581 296 539 q 473 645 412 623 q 594 666 534 666 m 543 570 q 392 507 458 570 q 302 359 326 444 l 643 359 q 660 459 660 418 q 543 570 660 570 m 710 1010 l 822 806 l 741 744 l 665 884 l 505 745 l 463 800 l 710 1010 z "},"ë":{"ha":743,"x_min":155,"x_max":900,"o":"m 597 666 q 779 506 779 666 q 746 326 779 444 l 731 275 l 277 275 q 270 229 270 250 q 320 120 270 165 q 467 75 370 75 q 625 99 534 75 l 623 24 q 399 -14 503 -14 q 283 2 332 -14 q 207 46 234 18 q 168 110 180 75 q 155 187 155 144 q 174 305 155 243 q 231 440 195 379 q 309 542 267 500 q 401 612 352 583 q 500 653 451 640 q 597 666 549 666 m 545 570 q 392 507 458 570 q 300 359 325 444 l 648 359 q 664 458 664 414 q 545 570 664 570 m 474 964 l 600 964 l 564 838 l 438 838 l 474 964 m 774 964 l 900 964 l 863 838 l 738 838 l 774 964 z "},"ì":{"ha":350,"x_min":119,"x_max":543,"o":"m 311 670 l 422 670 l 231 0 l 119 0 l 311 670 m 362 1050 l 543 831 l 470 763 l 280 977 l 362 1050 z "},"í":{"ha":350,"x_min":119,"x_max":659,"o":"m 311 670 l 422 670 l 231 0 l 119 0 l 311 670 m 618 1050 l 659 977 l 346 763 l 312 831 l 618 1050 z "},"î":{"ha":354,"x_min":119,"x_max":564,"o":"m 311 670 l 422 670 l 231 0 l 119 0 l 311 670 m 469 1010 l 564 817 l 485 757 l 423 883 l 286 758 l 243 810 l 469 1010 z "},"ï":{"ha":355,"x_min":122,"x_max":642,"o":"m 314 670 l 425 670 l 233 0 l 122 0 l 314 670 m 266 964 l 391 964 l 355 838 l 230 838 l 266 964 m 516 964 l 642 964 l 606 838 l 480 838 l 516 964 z "},"ð":{"ha":838,"x_min":154,"x_max":953,"o":"m 288 326 q 275 243 275 286 q 316 123 275 169 q 425 77 357 77 q 470 82 447 77 q 522 102 492 87 q 579 140 552 117 q 635 203 607 163 q 685 296 663 243 q 729 427 708 350 l 741 469 q 549 547 640 547 q 390 486 464 547 q 288 326 315 424 m 625 989 q 792 890 726 958 l 935 962 l 953 897 l 833 838 q 882 665 882 763 q 848 466 882 583 q 814 362 831 410 q 774 264 798 315 q 724 174 750 214 q 663 98 698 134 q 588 38 627 62 q 497 0 548 14 q 389 -14 446 -14 q 212 44 270 -14 q 154 194 154 101 q 187 344 154 265 q 274 489 220 423 q 404 597 328 554 q 560 640 481 640 q 763 566 656 640 q 768 631 768 602 q 722 782 768 717 l 583 712 l 566 777 l 675 832 q 559 902 627 876 l 625 989 z "},"ñ":{"ha":789,"x_min":119,"x_max":942,"o":"m 307 653 l 385 653 l 393 596 q 644 667 540 667 q 801 528 801 667 q 777 390 801 474 l 665 0 l 553 0 l 666 395 q 679 470 679 441 q 567 566 679 566 q 378 516 490 566 l 231 0 l 119 0 l 307 653 m 872 983 l 942 971 l 913 911 q 854 819 883 849 q 750 770 808 770 q 697 784 721 770 q 658 815 673 797 q 630 853 643 834 q 603 885 617 871 q 574 898 589 898 q 559 896 566 898 q 545 888 551 893 q 533 878 538 884 q 522 865 527 873 q 512 852 516 858 q 504 838 508 846 q 497 825 500 829 q 492 814 495 821 q 489 806 489 807 l 472 770 l 402 781 l 431 841 q 444 868 440 860 q 465 902 448 877 q 497 942 482 928 q 539 968 513 956 q 593 981 565 981 q 646 967 623 981 q 685 936 670 954 q 712 898 700 917 q 739 866 725 880 q 768 853 753 853 q 782 856 774 853 q 794 861 789 858 q 806 870 800 865 q 817 881 812 876 q 826 893 821 886 q 834 906 831 901 q 841 918 838 911 q 847 929 845 926 q 851 939 848 933 q 854 946 854 945 l 872 983 z "},"ò":{"ha":810,"x_min":160,"x_max":835,"o":"m 654 1050 l 829 821 l 755 750 l 571 973 l 654 1050 m 562 571 q 457 546 510 571 q 359 466 405 520 q 292 338 313 411 q 278 248 278 290 q 318 127 278 174 q 431 81 359 81 q 595 147 518 81 q 703 318 673 213 q 716 407 716 365 q 672 528 716 485 q 562 571 627 571 m 597 666 q 770 610 706 666 q 835 451 835 554 q 818 340 835 399 q 653 82 771 178 q 392 -14 535 -14 q 222 44 284 -14 q 160 203 160 101 q 178 319 160 258 q 338 572 223 478 q 597 666 454 666 z "},"ó":{"ha":810,"x_min":160,"x_max":835,"o":"m 597 666 q 770 610 706 666 q 835 451 835 554 q 818 340 835 399 q 653 82 771 178 q 392 -14 535 -14 q 222 44 284 -14 q 160 203 160 101 q 178 319 160 258 q 338 572 223 478 q 597 666 454 666 m 562 571 q 457 546 510 571 q 359 466 405 520 q 292 338 313 411 q 278 248 278 290 q 318 127 278 174 q 431 81 359 81 q 595 147 518 81 q 703 318 673 213 q 716 407 716 365 q 672 528 716 485 q 562 571 627 571 m 771 1050 l 810 973 l 496 750 l 464 821 l 771 1050 z "},"ô":{"ha":810,"x_min":160,"x_max":835,"o":"m 597 666 q 770 610 706 666 q 835 451 835 554 q 818 340 835 399 q 653 82 771 178 q 392 -14 535 -14 q 222 44 284 -14 q 160 203 160 101 q 178 319 160 258 q 338 572 223 478 q 597 666 454 666 m 562 571 q 457 546 510 571 q 359 466 405 520 q 292 338 313 411 q 278 248 278 290 q 318 127 278 174 q 431 81 359 81 q 595 147 518 81 q 703 318 673 213 q 716 407 716 365 q 672 528 716 485 q 562 571 627 571 m 705 1010 l 816 806 l 737 744 l 661 884 l 500 745 l 458 800 l 705 1010 z "},"õ":{"ha":812,"x_min":160,"x_max":928,"o":"m 859 982 l 928 970 q 913 939 926 966 q 897 903 901 911 q 879 871 892 895 q 858 838 866 848 q 835 812 850 829 q 807 789 820 796 q 775 777 793 783 q 737 770 757 770 q 684 784 708 770 q 646 815 661 797 q 618 853 631 834 q 591 885 605 871 q 562 898 577 898 q 545 895 553 898 q 529 886 536 891 q 515 872 523 882 q 503 856 507 863 q 491 836 498 849 q 480 815 484 823 q 470 792 477 808 q 460 770 463 777 l 389 781 q 404 812 391 785 q 421 848 417 840 q 438 880 425 857 q 460 913 452 903 q 483 939 468 922 q 511 962 498 955 q 543 975 524 968 q 581 981 561 981 q 633 967 610 981 q 672 936 657 954 q 700 898 687 917 q 727 866 713 880 q 755 853 741 853 q 775 857 766 853 q 793 869 784 860 q 808 885 802 878 q 822 908 814 892 q 834 930 831 924 q 847 957 838 937 q 859 982 857 977 m 562 571 q 457 546 510 571 q 359 466 405 520 q 292 338 313 411 q 278 249 278 290 q 319 127 278 174 q 433 81 359 81 q 597 147 520 81 q 705 318 675 212 q 718 406 718 365 q 673 528 718 484 q 562 571 629 571 m 599 666 q 772 610 707 666 q 837 450 837 553 q 820 340 837 399 q 655 82 773 178 q 393 -14 537 -14 q 222 44 285 -14 q 160 204 160 101 q 178 319 160 258 q 339 572 223 477 q 599 666 454 666 z "},"ö":{"ha":816,"x_min":160,"x_max":916,"o":"m 601 666 q 775 610 711 666 q 840 450 840 553 q 823 340 840 399 q 658 82 777 178 q 395 -14 539 -14 q 223 44 286 -14 q 160 204 160 101 q 178 319 160 258 q 339 572 223 478 q 601 666 456 666 m 564 571 q 459 546 512 571 q 359 466 406 520 q 292 338 313 411 q 278 249 278 290 q 319 127 278 174 q 434 81 360 81 q 601 147 522 81 q 709 318 679 213 q 722 406 722 367 q 677 528 722 484 q 564 571 631 571 m 490 964 l 615 964 l 579 838 l 454 838 l 490 964 m 790 964 l 916 964 l 880 838 l 754 838 l 790 964 z "},"÷":{"ha":949,"x_min":199,"x_max":1006,"o":"m 648 836 l 781 836 l 743 704 l 610 704 l 648 836 m 463 189 l 595 189 l 557 56 l 425 56 l 463 189 m 226 493 l 1006 493 l 979 399 l 199 399 l 226 493 z "},"ø":{"ha":810,"x_min":81,"x_max":910,"o":"m 882 658 l 910 620 l 814 545 q 834 448 834 503 q 817 338 834 397 q 654 82 771 177 q 393 -14 536 -14 q 205 66 266 -14 l 109 -10 l 81 28 l 180 106 q 160 208 160 153 q 178 321 160 261 q 338 572 223 479 q 597 666 454 666 q 790 585 728 666 l 882 658 m 562 571 q 448 541 502 571 q 357 464 394 511 q 299 359 321 416 q 278 248 278 302 q 286 189 278 214 l 690 507 q 562 571 648 571 m 709 463 l 304 145 q 431 81 345 81 q 548 113 493 81 q 639 193 603 144 q 696 298 675 241 q 717 408 717 355 q 709 463 717 437 z "},"ù":{"ha":789,"x_min":172,"x_max":857,"o":"m 746 670 l 857 670 l 665 0 l 587 0 l 579 56 q 327 -14 433 -14 q 172 126 172 -14 q 197 270 172 184 l 311 670 l 422 670 l 305 262 q 292 185 292 218 q 404 86 292 86 q 593 138 481 86 l 746 670 m 619 1050 l 798 831 l 725 763 l 537 977 l 619 1050 z "},"ú":{"ha":789,"x_min":172,"x_max":857,"o":"m 746 670 l 857 670 l 665 0 l 587 0 l 579 56 q 327 -14 433 -14 q 172 126 172 -14 q 197 270 172 184 l 311 670 l 422 670 l 305 262 q 292 185 292 218 q 404 86 292 86 q 593 138 481 86 l 746 670 m 810 1050 l 850 977 l 541 763 l 507 831 l 810 1050 z "},"û":{"ha":789,"x_min":172,"x_max":857,"o":"m 746 670 l 857 670 l 665 0 l 587 0 l 579 56 q 327 -14 433 -14 q 172 126 172 -14 q 197 270 172 184 l 311 670 l 422 670 l 305 262 q 292 185 292 218 q 404 86 292 86 q 593 138 481 86 l 746 670 m 696 1010 l 811 817 l 732 757 l 653 890 l 496 758 l 452 810 l 696 1010 z "},"ü":{"ha":793,"x_min":172,"x_max":885,"o":"m 749 670 l 861 670 l 669 0 l 591 0 l 583 56 q 329 -14 436 -14 q 172 127 172 -14 q 197 270 172 181 l 311 670 l 422 670 l 305 262 q 292 186 292 218 q 406 86 292 86 q 597 138 483 86 l 749 670 m 460 964 l 586 964 l 550 838 l 425 838 l 460 964 m 760 964 l 885 964 l 849 838 l 724 838 l 760 964 z "},"ý":{"ha":705,"x_min":68,"x_max":862,"o":"m 225 670 l 340 670 l 389 102 l 747 670 l 862 670 l 187 -360 l 68 -360 l 301 -26 l 225 670 m 814 1050 l 854 977 l 543 763 l 509 831 l 814 1050 z "},"þ":{"ha":818,"x_min":22,"x_max":840,"o":"m 570 568 q 319 309 393 568 q 302 203 302 246 q 432 79 302 79 q 488 87 458 79 q 551 112 517 94 q 613 156 584 130 q 669 224 643 182 q 709 318 694 267 q 723 406 723 363 q 679 525 723 482 q 570 568 635 568 m 616 663 q 779 606 717 663 q 840 447 840 549 q 823 337 840 396 q 663 84 779 184 q 416 -16 547 -16 q 322 3 366 -16 q 253 57 279 22 l 134 -360 l 22 -360 l 402 964 l 513 964 l 404 583 q 616 663 496 663 z "},"ÿ":{"ha":707,"x_min":68,"x_max":865,"o":"m 225 670 l 340 670 l 390 102 l 750 670 l 865 670 l 187 -360 l 68 -360 l 302 -26 l 225 670 m 425 964 l 551 964 l 515 838 l 389 838 l 425 964 m 726 964 l 851 964 l 815 838 l 690 838 l 726 964 z "},"Ā":{"ha":938,"x_min":88,"x_max":1079,"o":"m 707 964 l 838 964 l 904 0 l 787 0 l 770 280 l 372 280 l 195 0 l 88 0 l 707 964 m 735 851 l 436 381 l 764 381 l 735 851 m 577 1151 l 1079 1151 l 1054 1063 l 552 1063 l 577 1151 z "},"ā":{"ha":718,"x_min":125,"x_max":790,"o":"m 437 904 l 790 904 l 765 817 l 412 817 l 437 904 m 564 288 l 524 288 q 457 286 486 288 q 390 279 429 285 q 325 262 351 273 q 275 230 298 251 q 243 179 252 208 q 241 159 241 170 q 273 99 241 123 q 355 74 305 74 q 522 140 441 74 l 564 288 m 530 666 q 732 526 732 666 q 718 434 732 486 l 593 0 l 515 0 l 507 61 q 300 -14 405 -14 q 173 28 220 -14 q 125 132 125 70 q 131 174 125 152 q 177 257 144 222 q 251 315 209 293 q 349 349 292 336 q 463 367 406 362 q 588 372 519 372 l 603 422 q 614 486 614 459 q 485 574 614 574 q 301 545 420 574 l 303 625 q 530 666 425 666 z "},"Ă":{"ha":938,"x_min":88,"x_max":1126,"o":"m 596 1232 l 693 1276 q 707 1233 698 1253 q 731 1193 715 1213 q 771 1161 746 1173 q 827 1149 796 1149 q 945 1186 882 1149 q 1064 1276 1008 1223 l 1126 1224 q 961 1104 1051 1152 q 789 1056 870 1056 q 707 1071 743 1056 q 647 1112 670 1086 q 612 1168 625 1137 q 596 1232 599 1198 m 735 851 l 436 381 l 764 381 l 735 851 m 707 964 l 838 964 l 904 0 l 787 0 l 770 280 l 372 280 l 195 0 l 88 0 l 707 964 z "},"ă":{"ha":716,"x_min":125,"x_max":903,"o":"m 382 934 l 479 982 q 491 935 483 958 q 514 891 500 913 q 553 858 529 870 q 608 845 577 845 q 724 885 662 845 q 843 982 787 924 l 903 926 q 739 801 828 851 q 570 751 649 751 q 435 805 482 751 q 382 934 387 859 m 564 288 l 524 288 q 457 286 486 288 q 391 279 429 285 q 325 262 352 273 q 275 230 298 251 q 244 179 252 208 q 241 159 241 170 q 273 99 241 123 q 355 74 305 74 q 522 140 441 74 l 564 288 m 529 665 q 685 629 638 665 q 732 526 732 593 q 718 434 732 485 l 593 0 l 515 0 l 507 61 q 300 -14 405 -14 q 173 28 220 -14 q 125 132 125 70 q 131 174 125 152 q 177 257 144 222 q 251 314 209 293 q 349 349 292 336 q 463 367 406 362 q 588 371 519 371 l 603 422 q 614 486 614 459 q 485 574 614 574 q 301 545 420 574 l 303 625 q 529 665 422 665 z "},"Ą":{"ha":938,"x_min":88,"x_max":904,"o":"m 707 964 l 838 964 l 904 0 q 778 -20 836 0 q 683 -68 719 -41 q 621 -127 648 -96 q 583 -179 593 -159 q 570 -206 572 -198 q 567 -230 567 -220 q 579 -264 567 -251 q 620 -278 592 -278 q 744 -239 666 -278 l 759 -300 q 563 -369 644 -369 q 486 -343 515 -369 q 458 -274 458 -317 q 465 -231 458 -257 q 588 -61 489 -146 q 784 53 687 24 l 770 280 l 372 280 l 195 0 l 88 0 l 707 964 m 735 851 l 436 381 l 764 381 l 735 851 z "},"ą":{"ha":720,"x_min":125,"x_max":733,"o":"m 484 566 q 299 536 418 566 l 301 616 q 528 657 421 657 q 686 621 638 657 q 733 517 733 584 q 718 426 733 477 l 587 -31 q 549 -47 576 -36 q 511 -64 523 -59 q 476 -81 499 -70 q 442 -98 454 -92 q 412 -114 431 -104 q 384 -133 393 -125 q 360 -151 374 -140 q 340 -172 347 -162 q 326 -193 332 -181 q 315 -217 319 -205 q 312 -238 312 -229 q 327 -273 312 -260 q 367 -286 341 -286 q 487 -248 408 -286 l 503 -304 q 309 -368 388 -368 q 233 -343 261 -368 q 205 -277 205 -319 q 212 -239 205 -259 q 239 -183 220 -210 q 278 -135 258 -155 q 331 -92 298 -115 q 383 -58 363 -70 q 438 -29 403 -46 q 482 -9 473 -12 q 516 5 490 -5 l 509 58 q 293 -12 388 -12 q 172 30 218 -12 q 125 132 125 71 q 131 174 125 152 q 154 224 138 199 q 196 275 170 249 q 264 321 222 300 q 359 353 307 342 q 591 372 441 372 l 603 415 q 614 477 614 452 q 484 566 614 566 m 351 79 q 522 134 433 79 l 566 288 l 540 288 q 383 279 439 288 q 286 239 327 271 q 241 158 241 202 q 270 102 241 124 q 351 79 299 79 z "},"Ć":{"ha":984,"x_min":300,"x_max":1194,"o":"m 1112 1340 l 1135 1257 l 731 1057 l 710 1130 l 1112 1340 m 657 -14 q 497 13 566 -14 q 385 87 427 40 q 321 195 342 134 q 300 326 300 255 q 321 473 300 397 q 380 620 342 548 q 476 755 418 692 q 604 867 534 819 q 763 943 674 915 q 947 970 852 970 q 1194 919 1078 970 l 1131 823 q 914 869 1013 869 q 754 837 833 869 q 614 750 675 804 q 507 627 553 696 q 440 481 462 557 q 422 364 422 419 q 499 168 422 243 q 717 92 576 92 q 946 133 821 92 l 957 47 q 657 -14 798 -14 z "},"ć":{"ha":669,"x_min":155,"x_max":796,"o":"m 175 311 q 234 450 197 389 q 312 552 270 512 q 404 617 354 591 q 501 654 454 644 q 595 665 548 665 q 768 625 690 665 l 718 545 q 582 570 652 570 q 498 559 538 570 q 417 523 458 548 q 342 450 376 498 q 290 334 309 402 q 273 231 273 275 q 288 157 273 188 q 329 110 302 126 q 386 85 355 93 q 453 78 416 78 q 583 100 514 78 l 588 24 q 388 -14 482 -14 q 304 -4 343 -14 q 231 27 266 5 q 176 90 196 49 q 155 187 155 131 q 175 311 155 243 m 758 1050 l 796 973 l 484 750 l 451 821 l 758 1050 z "},"Ĉ":{"ha":984,"x_min":300,"x_max":1194,"o":"m 657 -14 q 497 13 566 -14 q 385 87 427 40 q 321 195 342 134 q 300 326 300 255 q 321 473 300 397 q 380 620 342 548 q 476 755 418 692 q 604 867 534 819 q 763 943 674 915 q 947 970 852 970 q 1194 919 1078 970 l 1131 823 q 914 869 1013 869 q 754 837 833 869 q 614 750 675 804 q 507 627 553 696 q 440 481 462 557 q 422 364 422 419 q 499 168 422 243 q 717 92 576 92 q 946 133 821 92 l 957 47 q 657 -14 798 -14 m 949 1310 l 1067 1116 l 987 1057 l 906 1190 l 745 1057 l 701 1110 l 949 1310 z "},"ĉ":{"ha":669,"x_min":155,"x_max":780,"o":"m 175 311 q 234 450 197 389 q 312 552 270 512 q 404 617 354 591 q 501 654 454 644 q 595 665 548 665 q 768 625 690 665 l 718 545 q 582 570 652 570 q 498 559 538 570 q 417 523 458 548 q 342 450 376 498 q 290 334 309 402 q 273 231 273 275 q 288 157 273 188 q 329 110 302 126 q 386 85 355 93 q 453 78 416 78 q 583 100 514 78 l 588 24 q 388 -14 482 -14 q 304 -4 343 -14 q 231 27 266 5 q 176 90 196 49 q 155 187 155 131 q 175 311 155 243 m 669 1016 l 780 812 l 701 749 l 624 889 l 465 750 l 422 806 l 669 1016 z "},"Ċ":{"ha":984,"x_min":300,"x_max":1194,"o":"m 867 1240 l 1009 1240 l 968 1098 l 826 1098 l 867 1240 m 657 -14 q 497 13 566 -14 q 385 87 427 40 q 321 195 342 134 q 300 326 300 255 q 321 473 300 397 q 380 620 342 548 q 476 755 418 692 q 604 867 534 819 q 763 943 674 915 q 947 970 852 970 q 1194 919 1078 970 l 1131 823 q 914 869 1013 869 q 754 837 833 869 q 614 750 675 804 q 507 627 553 696 q 440 481 462 557 q 422 364 422 419 q 499 168 422 243 q 717 92 576 92 q 946 133 821 92 l 957 47 q 657 -14 798 -14 z "},"ċ":{"ha":672,"x_min":155,"x_max":772,"o":"m 175 311 q 234 450 197 389 q 313 552 271 512 q 405 617 355 591 q 502 654 454 644 q 597 665 549 665 q 772 625 693 665 l 722 545 q 584 570 656 570 q 499 559 540 570 q 418 523 459 548 q 343 450 376 498 q 290 334 309 402 q 273 232 273 278 q 288 157 273 189 q 330 110 303 126 q 387 85 356 93 q 455 78 418 78 q 587 100 516 78 l 591 24 q 390 -14 486 -14 q 322 -8 354 -14 q 259 12 290 -3 q 205 48 228 26 q 169 106 183 71 q 155 188 155 142 q 175 311 155 243 m 613 964 l 755 964 l 715 822 l 572 822 l 613 964 z "},"Č":{"ha":984,"x_min":300,"x_max":1194,"o":"m 657 -14 q 497 13 566 -14 q 385 87 427 40 q 321 195 342 134 q 300 326 300 255 q 321 473 300 397 q 380 620 342 548 q 476 755 418 692 q 604 867 534 819 q 763 943 674 915 q 947 970 852 970 q 1194 919 1078 970 l 1131 823 q 914 869 1013 869 q 754 837 833 869 q 614 750 675 804 q 507 627 553 696 q 440 481 462 557 q 422 364 422 419 q 499 168 422 243 q 717 92 576 92 q 946 133 821 92 l 957 47 q 657 -14 798 -14 m 907 1057 l 789 1251 l 869 1310 l 950 1177 l 1111 1310 l 1155 1257 l 907 1057 z "},"č":{"ha":669,"x_min":155,"x_max":823,"o":"m 175 311 q 234 450 197 389 q 312 552 270 512 q 404 617 354 591 q 501 654 454 644 q 595 665 548 665 q 768 625 690 665 l 718 545 q 582 570 652 570 q 498 559 538 570 q 417 523 458 548 q 342 450 376 498 q 290 334 309 402 q 273 231 273 275 q 288 157 273 188 q 329 110 302 126 q 386 85 355 93 q 453 78 416 78 q 583 100 514 78 l 588 24 q 388 -14 482 -14 q 304 -4 343 -14 q 231 27 266 5 q 176 90 196 49 q 155 187 155 131 q 175 311 155 243 m 575 749 l 465 954 l 544 1016 l 620 876 l 780 1015 l 823 961 l 575 749 z "},"Ď":{"ha":1088,"x_min":197,"x_max":1152,"o":"m 772 964 q 923 948 857 964 q 1032 905 989 932 q 1102 840 1074 878 q 1140 760 1129 802 q 1152 668 1152 718 q 1127 511 1152 595 q 1083 390 1109 448 q 1016 271 1057 332 q 925 163 975 211 q 807 77 876 115 q 660 20 739 39 q 571 6 619 11 q 492 1 523 1 q 406 0 461 0 l 197 0 l 473 964 l 772 964 m 559 862 l 341 102 l 481 102 q 532 102 512 102 q 588 106 553 103 q 649 117 623 110 q 712 136 676 123 q 777 168 747 149 q 839 214 806 186 q 900 279 871 243 q 1004 488 969 366 q 1025 619 1025 558 q 1009 716 1025 673 q 966 788 993 760 q 906 833 939 816 q 835 857 873 850 q 746 862 806 862 l 559 862 m 876 1057 l 758 1251 l 838 1310 l 919 1177 l 1080 1310 l 1124 1257 l 876 1057 z "},"ď":{"ha":955,"x_min":157,"x_max":1213,"o":"m 1101 1025 l 1213 1025 l 1053 747 l 941 747 l 1101 1025 m 176 315 q 274 508 209 427 q 418 628 338 589 q 587 667 498 667 q 735 631 666 667 l 848 1025 l 959 1025 l 665 0 l 588 0 l 582 42 q 373 -14 473 -14 q 294 -2 331 -14 q 225 32 257 9 q 175 96 194 55 q 157 192 157 137 q 176 315 157 248 m 435 78 q 587 115 509 78 l 711 548 q 578 579 649 579 q 517 573 547 579 q 452 549 487 566 q 389 505 418 532 q 333 434 359 478 q 290 332 306 389 q 273 232 273 274 q 288 156 273 188 q 328 109 303 125 q 380 85 353 92 q 435 78 406 78 z "},"Đ":{"ha":1088,"x_min":208,"x_max":1182,"o":"m 802 964 q 954 948 888 964 q 1062 905 1020 932 q 1132 840 1105 878 q 1171 760 1160 802 q 1182 668 1182 718 q 1158 511 1182 595 q 1113 390 1139 448 q 1046 271 1087 332 q 956 163 1006 211 q 838 77 906 115 q 690 20 769 39 q 602 6 650 11 q 523 1 553 1 q 436 0 492 0 l 227 0 l 355 446 l 208 446 l 237 548 l 385 548 l 503 964 l 802 964 m 471 446 l 372 102 l 512 102 q 563 102 543 102 q 618 106 583 103 q 680 117 653 110 q 742 136 707 123 q 807 168 778 149 q 869 214 837 186 q 930 279 902 243 q 1035 488 1000 366 q 1055 619 1055 558 q 1039 716 1055 673 q 996 788 1023 760 q 936 833 969 816 q 865 857 903 850 q 777 862 837 862 l 589 862 l 500 548 l 673 548 l 644 446 l 471 446 z "},"đ":{"ha":828,"x_min":157,"x_max":1006,"o":"m 578 579 q 517 573 547 579 q 452 549 487 566 q 389 505 418 532 q 333 434 359 478 q 290 332 306 389 q 273 232 273 274 q 288 156 273 188 q 328 109 303 125 q 380 85 353 92 q 435 78 406 78 q 587 115 509 78 l 711 548 q 578 579 649 579 m 587 667 q 735 631 666 667 l 781 789 l 603 789 l 628 876 l 806 876 l 848 1025 l 959 1025 l 917 876 l 1006 876 l 981 789 l 892 789 l 665 0 l 588 0 l 582 42 q 373 -14 473 -14 q 294 -2 331 -14 q 225 32 257 9 q 175 96 194 55 q 157 192 157 137 q 176 315 157 248 q 274 508 209 427 q 418 628 338 589 q 587 667 498 667 z "},"Ē":{"ha":870,"x_min":197,"x_max":1072,"o":"m 197 0 l 473 964 l 1038 964 l 1008 862 l 559 862 l 469 547 l 881 547 l 852 446 l 439 446 l 341 102 l 791 102 l 762 0 l 197 0 m 574 1151 l 1072 1151 l 1046 1063 l 549 1063 l 574 1151 z "},"ē":{"ha":738,"x_min":155,"x_max":830,"o":"m 174 305 q 248 468 200 397 q 354 581 296 539 q 473 645 412 623 q 594 666 534 666 q 775 506 775 666 q 742 326 775 444 l 727 275 l 275 275 q 269 229 269 250 q 318 120 269 165 q 464 75 368 75 q 620 99 531 75 l 618 24 q 397 -14 500 -14 q 300 -3 342 -14 q 232 25 258 7 q 187 70 205 43 q 162 124 170 96 q 155 186 155 153 q 174 305 155 243 m 543 570 q 392 507 458 570 q 302 359 326 444 l 643 359 q 660 459 660 418 q 543 570 660 570 m 437 904 l 830 904 l 801 803 l 408 803 l 437 904 z "},"Ĕ":{"ha":870,"x_min":197,"x_max":1108,"o":"m 1046 1276 l 1108 1224 q 933 1099 1021 1140 q 771 1057 846 1057 q 637 1104 689 1057 q 578 1232 585 1151 l 675 1276 q 722 1184 686 1218 q 810 1149 757 1149 q 1046 1276 915 1149 m 197 0 l 473 964 l 1038 964 l 1008 862 l 559 862 l 469 547 l 881 547 l 852 446 l 439 446 l 341 102 l 791 102 l 762 0 l 197 0 z "},"ĕ":{"ha":737,"x_min":155,"x_max":942,"o":"m 174 305 q 248 468 200 397 q 354 581 296 539 q 473 645 412 623 q 594 666 534 666 q 775 506 775 666 q 742 326 775 444 l 727 275 l 275 275 q 269 229 269 250 q 318 120 269 165 q 464 75 368 75 q 620 99 531 75 l 618 24 q 397 -14 500 -14 q 300 -3 342 -14 q 232 25 258 7 q 187 70 205 43 q 162 124 170 96 q 155 186 155 153 q 174 305 155 243 m 543 570 q 392 507 458 570 q 302 359 326 444 l 643 359 q 660 459 660 418 q 543 570 660 570 m 422 934 l 519 982 q 531 935 522 958 q 554 891 539 913 q 592 858 568 870 q 647 845 616 845 q 764 885 701 845 q 882 982 827 925 l 942 926 q 778 801 867 850 q 610 751 689 751 q 475 805 522 751 q 422 934 427 859 z "},"Ė":{"ha":870,"x_min":197,"x_max":1038,"o":"m 197 0 l 473 964 l 1038 964 l 1008 862 l 559 862 l 469 547 l 881 547 l 852 446 l 439 446 l 341 102 l 791 102 l 762 0 l 197 0 m 757 1240 l 899 1240 l 859 1098 l 716 1098 l 757 1240 z "},"ė":{"ha":742,"x_min":155,"x_max":779,"o":"m 174 305 q 248 468 200 397 q 354 581 296 539 q 474 645 412 623 q 596 666 536 666 q 779 506 779 666 q 745 326 779 444 l 730 275 l 275 275 q 269 230 269 252 q 319 120 269 165 q 467 75 370 75 q 624 99 534 75 l 622 24 q 399 -14 504 -14 q 282 2 331 -14 q 207 47 234 18 q 168 110 180 75 q 155 187 155 144 q 174 305 155 243 m 545 570 q 392 507 458 570 q 302 359 326 444 l 647 359 q 664 458 664 416 q 545 570 664 570 m 608 964 l 751 964 l 710 822 l 568 822 l 608 964 z "},"Ę":{"ha":870,"x_min":197,"x_max":1038,"o":"m 473 964 l 1038 964 l 1008 862 l 559 862 l 469 547 l 881 547 l 852 446 l 439 446 l 341 102 l 791 102 l 767 19 q 714 -12 749 8 q 663 -42 680 -32 q 620 -68 647 -52 q 579 -95 593 -85 q 547 -120 566 -105 q 518 -148 528 -136 q 499 -176 509 -161 q 486 -206 490 -191 q 482 -229 482 -220 q 497 -265 482 -252 q 537 -278 511 -278 q 659 -238 585 -278 l 675 -299 q 479 -368 562 -368 q 402 -343 429 -368 q 374 -275 374 -317 q 381 -231 374 -253 q 417 -155 393 -191 q 475 -90 441 -119 q 537 -42 509 -61 q 604 0 566 -22 l 197 0 l 473 964 z "},"ę":{"ha":741,"x_min":153,"x_max":776,"o":"m 170 295 q 231 437 193 374 q 313 542 269 501 q 407 609 356 582 q 503 648 457 637 q 594 659 549 659 q 682 647 646 659 q 738 613 718 635 q 767 563 758 591 q 776 500 776 536 q 743 321 776 435 l 728 269 l 273 269 q 267 224 267 246 q 320 116 267 159 q 466 73 374 73 q 623 98 538 73 l 621 22 q 436 -82 518 -11 q 336 -213 353 -154 q 332 -238 332 -227 q 347 -274 332 -260 q 386 -287 361 -287 q 506 -249 427 -287 l 522 -305 q 328 -369 410 -369 q 253 -345 279 -369 q 226 -278 226 -320 q 274 -153 226 -223 q 416 -16 321 -83 q 221 34 290 -16 q 153 184 153 83 q 170 295 153 235 m 543 563 q 391 500 456 563 q 300 353 325 437 l 644 353 q 660 452 660 409 q 543 563 660 563 z "},"Ě":{"ha":870,"x_min":197,"x_max":1038,"o":"m 197 0 l 473 964 l 1038 964 l 1008 862 l 559 862 l 469 547 l 881 547 l 852 446 l 439 446 l 341 102 l 791 102 l 762 0 l 197 0 m 774 1057 l 656 1251 l 735 1310 l 817 1177 l 978 1310 l 1022 1257 l 774 1057 z "},"ě":{"ha":738,"x_min":155,"x_max":865,"o":"m 174 305 q 248 468 200 397 q 354 581 296 539 q 473 645 412 623 q 594 666 534 666 q 775 506 775 666 q 742 326 775 444 l 727 275 l 275 275 q 269 229 269 250 q 318 120 269 165 q 464 75 368 75 q 620 99 531 75 l 618 24 q 397 -14 500 -14 q 300 -3 342 -14 q 232 25 258 7 q 187 70 205 43 q 162 124 170 96 q 155 186 155 153 q 174 305 155 243 m 543 570 q 392 507 458 570 q 302 359 326 444 l 643 359 q 660 459 660 418 q 543 570 660 570 m 616 749 l 505 954 l 585 1016 l 661 876 l 821 1015 l 865 961 l 616 749 z "},"Ĝ":{"ha":1079,"x_min":260,"x_max":1188,"o":"m 621 -14 q 458 13 529 -14 q 345 86 388 39 q 281 193 302 133 q 260 324 260 253 q 289 500 260 410 q 375 675 318 591 q 509 825 433 759 q 688 931 585 892 q 902 971 791 971 q 1188 889 1064 971 l 1118 803 q 1012 850 1075 830 q 879 869 949 869 q 734 843 808 869 q 595 769 661 817 q 478 648 530 721 q 401 488 426 575 q 382 366 382 423 q 462 164 382 240 q 678 89 542 89 q 913 168 809 89 l 984 414 l 710 414 l 737 509 l 1123 509 l 1015 130 q 960 90 990 109 q 880 44 930 70 q 762 2 830 18 q 621 -14 694 -14 m 968 1310 l 1086 1116 l 1006 1057 l 926 1190 l 764 1057 l 720 1110 l 968 1310 z "},"ĝ":{"ha":788,"x_min":43,"x_max":851,"o":"m 433 78 q 586 115 506 78 l 707 540 q 563 576 627 576 q 396 511 471 576 q 290 337 321 445 q 275 239 275 286 q 314 122 275 165 q 433 78 354 78 m 581 667 q 748 613 661 667 l 773 653 l 851 653 l 650 -47 q 638 -86 644 -68 q 615 -139 631 -104 q 578 -201 598 -173 q 525 -261 558 -229 q 452 -315 491 -294 q 356 -352 412 -337 q 235 -367 299 -367 q 43 -323 134 -367 l 98 -243 q 247 -274 172 -274 q 295 -271 271 -274 q 353 -255 319 -267 q 417 -223 388 -243 q 477 -166 447 -203 q 526 -80 507 -130 q 555 8 540 -47 l 562 33 q 376 -14 464 -14 q 295 -2 333 -14 q 225 34 257 10 q 176 100 194 58 q 157 197 157 142 q 178 325 157 252 q 238 462 199 401 q 320 560 277 523 q 413 622 363 597 q 504 657 463 647 q 581 667 545 667 m 697 1016 l 809 812 l 729 749 l 652 889 l 493 750 l 450 806 l 697 1016 z "},"Ğ":{"ha":1079,"x_min":260,"x_max":1226,"o":"m 697 1232 l 793 1276 q 807 1233 798 1253 q 832 1193 817 1213 q 872 1161 847 1173 q 928 1149 897 1149 q 1046 1186 983 1149 q 1165 1276 1109 1223 l 1226 1224 q 1061 1104 1151 1152 q 890 1056 971 1056 q 808 1071 844 1056 q 748 1112 771 1086 q 713 1168 726 1137 q 697 1232 700 1198 m 902 971 q 1188 889 1064 971 l 1118 803 q 1012 850 1075 830 q 879 869 949 869 q 734 843 808 869 q 595 769 661 817 q 478 648 530 721 q 401 488 426 575 q 382 366 382 423 q 462 164 382 240 q 678 89 542 89 q 913 168 809 89 l 984 414 l 710 414 l 737 509 l 1123 509 l 1015 130 q 960 90 990 109 q 880 44 930 70 q 762 2 830 18 q 621 -14 694 -14 q 458 13 529 -14 q 345 85 387 39 q 281 190 302 131 q 260 320 260 250 q 281 468 260 391 q 341 616 302 544 q 438 753 380 688 q 566 866 496 817 q 723 943 635 914 q 902 971 810 971 z "},"ğ":{"ha":787,"x_min":43,"x_max":949,"o":"m 431 934 l 526 982 q 538 935 530 958 q 561 891 547 913 q 600 858 576 870 q 654 845 624 845 q 771 885 708 845 q 890 982 834 925 l 949 926 q 785 801 874 850 q 617 751 696 751 q 536 767 572 751 q 478 810 500 783 q 445 868 456 836 q 431 934 433 899 m 433 78 q 586 115 506 78 l 707 540 q 563 576 627 576 q 396 511 471 576 q 290 337 321 445 q 275 239 275 286 q 314 122 275 165 q 433 78 354 78 m 235 -367 q 43 -323 134 -367 l 98 -243 q 247 -274 172 -274 q 295 -271 271 -274 q 353 -255 319 -267 q 417 -223 388 -243 q 477 -166 447 -203 q 526 -80 507 -130 q 555 8 540 -47 l 562 33 q 376 -14 464 -14 q 295 -2 333 -14 q 225 34 257 10 q 176 100 194 58 q 157 197 157 142 q 178 325 157 252 q 238 462 199 401 q 320 560 277 523 q 413 622 363 597 q 504 657 463 647 q 581 667 545 667 q 748 613 661 667 l 773 653 l 851 653 l 653 -38 q 595 -173 631 -114 q 516 -268 558 -232 q 425 -327 475 -304 q 329 -358 374 -350 q 235 -367 283 -367 z "},"Ġ":{"ha":1079,"x_min":260,"x_max":1188,"o":"m 896 1240 l 1038 1240 l 998 1098 l 855 1098 l 896 1240 m 621 -14 q 458 13 529 -14 q 345 86 388 39 q 281 193 302 133 q 260 324 260 253 q 289 500 260 410 q 375 675 318 591 q 509 825 433 759 q 688 931 585 892 q 902 971 791 971 q 1188 889 1064 971 l 1118 803 q 1012 850 1075 830 q 879 869 949 869 q 734 843 808 869 q 595 769 661 817 q 478 648 530 721 q 401 488 426 575 q 382 366 382 423 q 462 164 382 240 q 678 89 542 89 q 913 168 809 89 l 984 414 l 710 414 l 737 509 l 1123 509 l 1015 130 q 960 90 990 109 q 880 44 930 70 q 762 2 830 18 q 621 -14 694 -14 z "},"ġ":{"ha":791,"x_min":43,"x_max":855,"o":"m 584 667 q 751 613 663 667 l 777 653 l 855 653 l 654 -47 q 641 -86 648 -68 q 618 -139 635 -104 q 582 -201 602 -173 q 528 -261 562 -229 q 454 -315 494 -294 q 358 -352 415 -337 q 236 -367 301 -367 q 43 -323 134 -367 l 98 -243 q 249 -274 170 -274 q 297 -271 273 -274 q 356 -255 321 -267 q 421 -223 391 -243 q 481 -166 451 -203 q 530 -80 511 -130 q 559 8 542 -53 l 566 33 q 378 -14 466 -14 q 296 -2 334 -14 q 226 34 258 10 q 176 100 195 58 q 157 198 157 142 q 178 325 157 252 q 238 462 199 401 q 321 560 277 523 q 415 622 365 597 q 506 657 465 647 q 584 667 547 667 m 435 78 q 589 115 508 78 l 711 540 q 565 576 631 576 q 396 511 472 576 q 290 337 321 445 q 275 239 275 286 q 315 121 275 165 q 435 78 355 78 m 597 964 l 740 964 l 699 822 l 557 822 l 597 964 z "},"Ģ":{"ha":1079,"x_min":260,"x_max":1188,"o":"m 621 -14 q 458 13 529 -14 q 345 86 388 39 q 281 194 302 134 q 260 325 260 254 q 281 472 260 396 q 340 619 302 547 q 436 755 378 691 q 564 867 494 819 q 721 943 633 915 q 902 971 808 971 q 1188 889 1064 971 l 1118 803 q 1012 850 1075 830 q 879 869 949 869 q 734 843 808 869 q 595 769 661 817 q 478 648 530 721 q 401 488 426 575 q 382 366 382 423 q 462 164 382 240 q 678 89 542 89 q 913 168 809 89 l 984 414 l 710 414 l 737 509 l 1123 509 l 1015 130 q 960 90 990 109 q 880 44 930 70 q 762 2 830 18 q 621 -14 694 -14 m 574 -96 l 696 -96 l 513 -360 l 391 -360 l 574 -96 z "},"ģ":{"ha":793,"x_min":43,"x_max":857,"o":"m 585 665 q 753 612 664 665 l 779 653 l 857 653 l 656 -49 q 643 -87 650 -69 q 620 -140 637 -106 q 584 -202 604 -174 q 530 -262 564 -230 q 456 -317 496 -295 q 359 -353 416 -338 q 237 -368 302 -368 q 43 -325 134 -368 l 98 -244 q 249 -275 170 -275 q 297 -272 273 -275 q 357 -256 321 -269 q 422 -224 392 -244 q 482 -168 452 -205 q 532 -81 512 -131 q 561 7 545 -49 l 568 31 q 379 -14 471 -14 q 297 -2 335 -14 q 227 34 259 9 q 177 99 195 58 q 158 197 158 141 q 178 323 158 254 q 238 460 199 399 q 321 559 277 522 q 415 621 365 596 q 506 655 465 646 q 585 665 548 665 m 436 77 q 591 114 510 77 l 713 538 q 566 575 631 575 q 396 509 472 575 q 290 336 321 444 q 275 237 275 285 q 315 120 275 163 q 436 77 355 77 m 706 1049 l 828 1049 l 642 772 l 519 772 l 706 1049 z "},"Ĥ":{"ha":1085,"x_min":197,"x_max":1219,"o":"m 1103 964 l 1219 964 l 943 0 l 827 0 l 956 446 l 440 446 l 312 0 l 197 0 l 473 964 l 588 964 l 469 548 l 985 548 l 1103 964 m 941 1314 l 1059 1120 l 979 1060 l 898 1193 l 737 1061 l 693 1114 l 941 1314 z "},"ĥ":{"ha":799,"x_min":125,"x_max":885,"o":"m 574 566 q 385 516 496 566 l 237 0 l 125 0 l 417 1017 l 528 1017 l 410 602 q 646 665 545 665 q 808 519 808 665 q 782 375 808 467 l 674 0 l 560 0 l 673 393 q 685 467 685 438 q 574 566 685 566 m 773 1314 l 885 1114 l 806 1053 l 730 1190 l 570 1054 l 527 1108 l 773 1314 z "},"Ħ":{"ha":1085,"x_min":197,"x_max":1291,"o":"m 1103 964 l 1219 964 l 1190 862 l 1291 862 l 1265 768 l 1163 768 l 943 0 l 827 0 l 956 446 l 440 446 l 312 0 l 197 0 l 417 768 l 315 768 l 342 862 l 444 862 l 473 964 l 588 964 l 559 862 l 1074 862 l 1103 964 m 1048 768 l 532 768 l 469 548 l 985 548 l 1048 768 z "},"ħ":{"ha":797,"x_min":125,"x_max":808,"o":"m 420 1025 l 531 1025 l 488 877 l 702 877 l 677 789 l 463 789 l 410 602 q 646 665 545 665 q 808 520 808 665 q 787 392 808 470 l 674 0 l 560 0 l 673 396 q 686 469 686 436 q 574 566 686 566 q 385 516 496 566 l 237 0 l 125 0 l 352 789 l 262 789 l 288 877 l 377 877 l 420 1025 z "},"Ĩ":{"ha":495,"x_min":217,"x_max":849,"o":"m 493 964 l 608 964 l 332 0 l 217 0 l 493 964 m 435 1074 l 370 1093 l 407 1160 q 559 1265 466 1265 q 591 1260 577 1265 q 613 1245 604 1255 q 624 1230 621 1235 q 631 1215 627 1225 l 651 1172 q 688 1137 667 1137 q 716 1153 701 1137 q 738 1180 731 1168 q 747 1198 745 1192 l 784 1264 l 849 1244 l 812 1179 q 652 1051 744 1051 q 637 1053 644 1051 q 624 1056 629 1054 q 613 1061 618 1059 q 604 1068 608 1064 q 597 1076 600 1073 q 592 1084 595 1079 q 588 1091 589 1088 q 585 1098 587 1093 q 583 1103 583 1102 l 563 1146 q 521 1183 547 1183 q 473 1141 496 1183 l 435 1074 z "},"ĩ":{"ha":347,"x_min":119,"x_max":661,"o":"m 253 779 l 190 798 l 227 865 q 294 945 258 920 q 376 970 332 970 q 407 965 394 970 q 429 950 420 960 q 440 935 437 941 q 447 920 443 929 l 467 877 q 502 842 482 842 q 530 858 515 842 q 551 885 545 873 q 560 903 558 897 l 597 968 l 661 949 l 625 884 q 467 756 556 756 q 399 806 419 756 q 398 808 398 807 l 378 851 q 338 888 363 888 q 290 846 313 888 l 253 779 m 311 670 l 422 670 l 230 -1 l 119 -1 l 311 670 z "},"Ī":{"ha":495,"x_min":217,"x_max":744,"o":"m 466 1151 l 744 1151 l 719 1063 l 441 1063 l 466 1151 m 493 964 l 608 964 l 332 0 l 217 0 l 493 964 z "},"ī":{"ha":351,"x_min":119,"x_max":555,"o":"m 311 670 l 422 670 l 231 0 l 119 0 l 311 670 m 312 904 l 555 904 l 530 817 l 287 817 l 312 904 z "},"Ĭ":{"ha":495,"x_min":217,"x_max":842,"o":"m 408 1226 l 504 1271 q 536 1187 509 1217 q 604 1156 563 1156 q 692 1186 647 1156 q 793 1270 738 1215 l 842 1217 q 701 1100 778 1145 q 553 1056 624 1056 q 483 1071 513 1056 q 438 1113 454 1086 q 415 1166 422 1139 q 408 1226 408 1194 m 493 964 l 608 964 l 332 0 l 217 0 l 493 964 z "},"ĭ":{"ha":347,"x_min":119,"x_max":661,"o":"m 311 670 l 422 670 l 231 0 l 119 0 l 311 670 m 236 928 l 330 973 q 361 889 335 920 q 427 859 387 859 q 514 888 470 859 q 614 972 559 918 l 661 920 q 523 803 598 847 q 378 758 447 758 q 309 773 338 758 q 265 815 280 789 q 243 869 250 841 q 236 928 237 897 z "},"Į":{"ha":495,"x_min":-52,"x_max":608,"o":"m 52 -369 q -25 -343 2 -369 q -52 -275 -52 -318 q 22 -113 -52 -201 q 227 33 96 -25 l 493 964 l 608 964 l 338 20 q 210 -49 264 -14 q 125 -113 155 -84 q 80 -164 95 -142 q 60 -205 65 -186 q 56 -229 56 -219 q 71 -266 56 -252 q 112 -279 85 -279 q 233 -239 153 -279 l 248 -300 q 52 -369 132 -369 z "},"į":{"ha":353,"x_min":-157,"x_max":517,"o":"m -56 -376 q -132 -351 -106 -376 q -157 -284 -157 -326 q -124 -173 -157 -233 q -22 -50 -91 -112 q 136 55 46 13 l 312 670 l 423 670 l 235 15 q 54 -83 137 -18 q -46 -211 -28 -149 q -50 -235 -50 -224 q -36 -273 -50 -259 q 4 -286 -21 -286 q 124 -246 43 -286 l 140 -306 q -56 -376 25 -376 m 386 964 l 517 964 l 481 836 l 349 836 l 386 964 z "},"İ":{"ha":495,"x_min":217,"x_max":700,"o":"m 557 1240 l 700 1240 l 659 1098 l 517 1098 l 557 1240 m 493 964 l 608 964 l 332 0 l 217 0 l 493 964 z "},"ı":{"ha":355,"x_min":122,"x_max":420,"o":"m 309 653 l 420 653 l 233 0 l 122 0 l 309 653 z "},"Ĳ":{"ha":1141,"x_min":217,"x_max":1275,"o":"m 1160 964 l 1275 964 l 1082 289 q 1033 163 1061 214 q 953 72 1004 113 q 699 -12 849 -12 q 571 5 631 -12 l 617 101 q 709 90 660 90 q 786 99 751 90 q 845 119 821 107 q 889 150 869 131 q 921 184 909 169 q 943 222 932 200 q 957 255 953 244 q 965 283 960 267 l 1160 964 m 493 964 l 608 964 l 332 0 l 217 0 l 493 964 z "},"ĳ":{"ha":705,"x_min":119,"x_max":867,"o":"m 659 670 l 770 670 l 551 -93 q 534 -144 541 -125 q 508 -200 528 -163 q 464 -262 488 -237 q 397 -316 440 -288 q 298 -362 353 -344 l 281 -278 q 436 -106 401 -228 l 659 670 m 735 964 l 867 964 l 830 836 l 699 836 l 735 964 m 311 670 l 422 670 l 231 0 l 119 0 l 311 670 m 385 964 l 517 964 l 480 836 l 349 836 l 385 964 z "},"Ĵ":{"ha":646,"x_min":76,"x_max":944,"o":"m 826 1310 l 944 1116 l 864 1057 l 783 1190 l 622 1057 l 577 1110 l 826 1310 m 665 964 l 780 964 l 587 289 q 537 163 566 214 q 458 72 509 113 q 204 -12 354 -12 q 76 5 136 -12 l 122 101 q 214 90 165 90 q 291 99 256 90 q 350 119 326 107 q 394 150 374 131 q 426 184 414 169 q 448 222 437 200 q 461 255 458 244 q 470 283 465 267 l 665 964 z "},"ĵ":{"ha":350,"x_min":-68,"x_max":564,"o":"m 469 1010 l 564 817 l 485 757 l 423 883 l 286 758 l 243 810 l 469 1010 m 311 670 l 422 670 l 203 -93 q 187 -144 194 -125 q 160 -200 180 -164 q 116 -262 140 -237 q 48 -316 92 -288 q -51 -362 5 -344 l -68 -278 q 89 -104 55 -226 l 311 670 z "},"Ķ":{"ha":961,"x_min":197,"x_max":1157,"o":"m 416 -83 l 538 -83 l 355 -347 l 233 -347 l 416 -83 m 1013 964 l 1157 964 l 618 504 l 907 0 l 758 0 l 470 494 l 1013 964 m 473 964 l 588 964 l 312 0 l 197 0 l 473 964 z "},"ķ":{"ha":725,"x_min":111,"x_max":853,"o":"m 294 -83 l 416 -83 l 233 -347 l 111 -347 l 294 -83 m 730 684 l 853 684 l 477 382 l 675 0 l 541 0 l 347 370 l 730 684 m 413 1025 l 524 1025 l 231 0 l 119 0 l 413 1025 z "},"ĸ":{"ha":720,"x_min":119,"x_max":821,"o":"m 307 653 l 418 653 l 231 0 l 119 0 l 307 653 m 705 653 l 821 653 l 464 349 l 669 0 l 533 0 l 337 334 l 705 653 z "},"Ĺ":{"ha":768,"x_min":197,"x_max":941,"o":"m 473 964 l 588 964 l 341 101 l 774 101 l 745 0 l 197 0 l 473 964 m 918 1340 l 941 1257 l 537 1057 l 516 1130 l 918 1340 z "},"ĺ":{"ha":375,"x_min":132,"x_max":863,"o":"m 426 1025 l 537 1025 l 243 0 l 132 0 l 426 1025 m 841 1391 l 863 1308 l 465 1107 l 444 1181 l 841 1391 z "},"Ļ":{"ha":768,"x_min":96,"x_max":774,"o":"m 473 964 l 588 964 l 341 101 l 774 101 l 745 0 l 197 0 l 473 964 m 279 -83 l 401 -83 l 218 -347 l 96 -347 l 279 -83 z "},"ļ":{"ha":382,"x_min":-52,"x_max":541,"o":"m 429 1025 l 541 1025 l 247 0 l 136 0 l 429 1025 m 131 -83 l 253 -83 l 70 -347 l -52 -347 l 131 -83 z "},"Ľ":{"ha":768,"x_min":197,"x_max":964,"o":"m 473 964 l 588 964 l 341 101 l 774 101 l 745 0 l 197 0 l 473 964 m 842 964 l 964 964 l 781 699 l 659 699 l 842 964 z "},"ľ":{"ha":544,"x_min":132,"x_max":801,"o":"m 426 1025 l 537 1025 l 243 0 l 132 0 l 426 1025 m 689 1025 l 801 1025 l 645 760 l 533 760 l 689 1025 z "},"Ŀ":{"ha":768,"x_min":197,"x_max":774,"o":"m 473 964 l 588 964 l 341 101 l 774 101 l 745 0 l 197 0 l 473 964 m 621 558 l 763 558 l 722 416 l 580 416 l 621 558 z "},"ŀ":{"ha":555,"x_min":132,"x_max":661,"o":"m 426 1025 l 537 1025 l 243 0 l 132 0 l 426 1025 m 519 568 l 661 568 l 621 426 l 478 426 l 519 568 z "},"Ł":{"ha":768,"x_min":191,"x_max":774,"o":"m 473 964 l 588 964 l 473 560 l 678 662 l 645 545 l 439 444 l 341 101 l 774 101 l 745 0 l 197 0 l 304 376 l 191 320 l 224 437 l 338 493 l 473 964 z "},"ł":{"ha":460,"x_min":152,"x_max":593,"o":"m 446 1025 l 557 1025 l 428 575 l 593 659 l 564 557 l 399 473 l 263 0 l 152 0 l 269 410 l 161 355 l 190 456 l 298 511 l 446 1025 z "},"Ń":{"ha":1125,"x_min":197,"x_max":1259,"o":"m 473 964 l 618 964 l 913 157 l 1143 964 l 1259 964 l 983 0 l 837 0 l 544 808 l 312 0 l 197 0 l 473 964 m 1125 1340 l 1148 1257 l 744 1057 l 723 1130 l 1125 1340 z "},"ń":{"ha":789,"x_min":119,"x_max":890,"o":"m 307 653 l 385 653 l 393 596 q 644 667 540 667 q 801 528 801 667 q 777 390 801 474 l 665 0 l 553 0 l 666 395 q 679 470 679 441 q 567 566 679 566 q 378 516 490 566 l 231 0 l 119 0 l 307 653 m 868 1048 l 890 960 l 490 752 l 471 829 l 868 1048 z "},"Ņ":{"ha":1125,"x_min":197,"x_max":1259,"o":"m 492 -83 l 614 -83 l 431 -347 l 309 -347 l 492 -83 m 473 964 l 618 964 l 913 157 l 1143 964 l 1259 964 l 983 0 l 837 0 l 544 808 l 312 0 l 197 0 l 473 964 z "},"ņ":{"ha":795,"x_min":117,"x_max":806,"o":"m 307 653 l 385 653 l 393 596 q 647 667 541 667 q 806 527 806 667 q 781 387 806 473 l 669 -6 l 557 -6 l 671 393 q 684 469 684 439 q 570 566 684 566 q 378 515 492 566 l 229 -6 l 117 -6 l 307 653 m 311 -87 l 433 -87 l 252 -347 l 130 -347 l 311 -87 z "},"Ň":{"ha":1125,"x_min":197,"x_max":1259,"o":"m 473 964 l 618 964 l 913 157 l 1143 964 l 1259 964 l 983 0 l 837 0 l 544 808 l 312 0 l 197 0 l 473 964 m 918 1057 l 800 1251 l 880 1310 l 961 1177 l 1122 1310 l 1166 1257 l 918 1057 z "},"ň":{"ha":789,"x_min":119,"x_max":861,"o":"m 307 653 l 385 653 l 393 596 q 644 667 540 667 q 801 528 801 667 q 777 390 801 474 l 665 0 l 553 0 l 666 395 q 679 470 679 441 q 567 566 679 566 q 378 516 490 566 l 231 0 l 119 0 l 307 653 m 614 752 l 503 956 l 583 1019 l 659 880 l 819 1018 l 861 961 l 614 752 z "},"ŉ":{"ha":904,"x_min":234,"x_max":916,"o":"m 421 653 l 499 653 l 507 596 q 760 667 654 667 q 916 528 916 667 q 892 390 916 474 l 780 0 l 668 0 l 781 395 q 794 470 794 441 q 682 566 794 566 q 493 516 604 566 l 345 0 l 234 0 l 421 653 m 369 964 l 471 964 l 382 653 l 280 653 l 369 964 z "},"Ŋ":{"ha":1118,"x_min":197,"x_max":1186,"o":"m 968 -24 q 929 -116 954 -75 q 877 -180 905 -156 q 815 -220 848 -205 q 750 -242 781 -236 q 687 -248 720 -248 q 540 -224 623 -248 l 581 -141 q 682 -155 646 -155 q 858 -7 817 -155 l 1027 581 q 1054 730 1054 677 q 963 877 1054 840 q 877 891 927 891 q 541 799 761 891 l 312 0 l 197 0 l 473 964 l 548 964 l 561 901 q 956 1006 823 1006 q 1128 948 1069 1006 q 1186 793 1186 890 q 1181 736 1186 764 q 1153 618 1175 692 l 968 -24 z "},"ŋ":{"ha":789,"x_min":118,"x_max":800,"o":"m 567 566 q 378 515 488 566 l 229 -3 l 118 -3 l 307 653 l 385 653 l 392 597 q 641 666 535 666 q 800 522 800 666 q 779 398 800 471 l 660 -15 q 627 -102 646 -64 q 579 -171 608 -139 q 508 -219 550 -202 q 413 -235 466 -235 q 270 -210 360 -235 l 310 -127 q 407 -142 387 -142 q 549 -14 513 -142 l 666 394 q 679 469 679 440 q 567 566 679 566 z "},"Ō":{"ha":1143,"x_min":258,"x_max":1218,"o":"m 1071 481 q 1093 623 1093 557 q 1020 809 1093 745 q 842 873 948 873 q 744 859 794 873 q 643 815 694 845 q 548 741 592 785 q 466 634 503 698 q 406 494 428 570 q 384 349 384 414 q 450 160 384 229 q 629 91 517 91 q 728 105 677 91 q 830 150 779 119 q 927 226 882 181 q 1010 336 972 271 q 1071 481 1048 402 m 879 974 q 1126 889 1035 974 q 1218 655 1218 804 q 1193 493 1218 579 q 960 130 1128 269 q 592 -10 792 -10 q 461 10 522 -10 q 356 69 401 30 q 284 170 310 108 q 258 311 258 232 q 283 479 258 389 q 514 839 348 703 q 879 974 681 974 m 691 1151 l 1193 1151 l 1168 1063 l 666 1063 l 691 1151 z "},"ō":{"ha":810,"x_min":160,"x_max":918,"o":"m 597 666 q 770 610 706 666 q 835 451 835 554 q 818 340 835 399 q 653 82 771 178 q 392 -14 535 -14 q 222 44 284 -14 q 160 203 160 101 q 178 319 160 258 q 338 572 223 478 q 597 666 454 666 m 562 571 q 457 546 510 571 q 359 466 405 520 q 292 338 313 411 q 278 248 278 290 q 318 127 278 174 q 431 81 359 81 q 595 147 518 81 q 703 318 673 213 q 716 407 716 365 q 672 528 716 485 q 562 571 627 571 m 427 904 l 918 904 l 893 817 l 402 817 l 427 904 z "},"Ŏ":{"ha":1143,"x_min":258,"x_max":1237,"o":"m 708 1232 l 804 1276 q 818 1233 809 1253 q 842 1193 827 1213 q 882 1161 857 1173 q 939 1149 907 1149 q 1057 1186 994 1149 q 1175 1276 1120 1223 l 1237 1224 q 1072 1104 1162 1152 q 901 1056 981 1056 q 818 1071 854 1056 q 759 1112 781 1086 q 723 1168 736 1137 q 708 1232 711 1198 m 1071 481 q 1093 623 1093 557 q 1020 809 1093 745 q 842 873 948 873 q 744 859 794 873 q 643 815 694 845 q 548 741 592 785 q 466 634 503 698 q 406 494 428 570 q 384 349 384 414 q 450 160 384 229 q 629 91 517 91 q 728 105 677 91 q 830 150 779 119 q 927 226 882 181 q 1010 336 972 271 q 1071 481 1048 402 m 879 974 q 1126 889 1035 974 q 1218 655 1218 804 q 1193 493 1218 579 q 960 130 1128 269 q 592 -10 792 -10 q 461 10 522 -10 q 356 69 401 30 q 284 170 310 108 q 258 311 258 232 q 283 479 258 389 q 514 839 348 703 q 879 974 681 974 z "},"ŏ":{"ha":810,"x_min":160,"x_max":964,"o":"m 446 934 l 542 982 q 554 935 545 958 q 576 891 562 913 q 615 858 591 870 q 669 845 639 845 q 786 885 723 845 q 905 982 849 925 l 964 926 q 801 801 889 850 q 633 751 712 751 q 498 805 546 751 q 446 934 451 859 m 562 571 q 457 546 510 571 q 359 466 405 520 q 292 338 313 411 q 278 248 278 290 q 318 127 278 174 q 431 81 359 81 q 595 147 518 81 q 703 318 673 213 q 716 407 716 365 q 672 528 716 485 q 562 571 627 571 m 597 666 q 770 610 706 666 q 835 451 835 554 q 818 340 835 399 q 653 82 771 178 q 392 -14 535 -14 q 222 44 284 -14 q 160 203 160 101 q 178 319 160 258 q 338 572 223 478 q 597 666 454 666 z "},"Ő":{"ha":1143,"x_min":258,"x_max":1400,"o":"m 1367 1352 l 1400 1274 l 1005 1044 l 977 1113 l 1367 1352 m 1015 1352 l 1047 1274 l 652 1044 l 624 1113 l 1015 1352 m 1071 481 q 1093 623 1093 557 q 1020 809 1093 745 q 842 873 948 873 q 744 859 794 873 q 643 815 694 845 q 548 741 592 785 q 466 634 503 698 q 406 494 428 570 q 384 349 384 414 q 450 160 384 229 q 629 91 517 91 q 728 105 677 91 q 830 150 779 119 q 927 226 882 181 q 1010 336 972 271 q 1071 481 1048 402 m 879 974 q 1126 889 1035 974 q 1218 655 1218 804 q 1193 493 1218 579 q 960 130 1128 269 q 592 -10 792 -10 q 461 10 522 -10 q 356 69 401 30 q 284 170 310 108 q 258 311 258 232 q 283 479 258 389 q 514 839 348 703 q 879 974 681 974 z "},"ő":{"ha":809,"x_min":160,"x_max":1052,"o":"m 597 666 q 770 610 706 666 q 835 451 835 554 q 818 340 835 399 q 653 82 771 178 q 392 -14 535 -14 q 222 44 284 -14 q 160 203 160 101 q 178 319 160 258 q 338 572 223 478 q 597 666 454 666 m 562 571 q 457 546 510 571 q 359 466 405 520 q 292 338 313 411 q 278 248 278 290 q 318 127 278 174 q 431 81 359 81 q 595 147 518 81 q 703 318 673 213 q 716 407 716 365 q 672 528 716 485 q 562 571 627 571 m 1013 1050 l 1052 973 l 736 750 l 704 821 l 1013 1050 m 720 1050 l 759 973 l 446 750 l 414 821 l 720 1050 z "},"Œ":{"ha":1355,"x_min":255,"x_max":1522,"o":"m 959 862 l 920 862 q 791 855 836 862 q 547 733 650 834 q 397 475 443 633 q 377 345 377 405 q 490 135 377 199 q 563 108 526 114 q 656 102 601 102 l 741 102 l 959 862 m 503 830 q 601 893 549 867 q 699 932 654 919 q 802 953 744 946 q 899 962 859 960 q 996 964 939 964 l 1522 964 l 1493 862 l 1074 862 l 984 547 l 1366 547 l 1337 446 l 955 446 l 857 102 l 1276 102 l 1246 0 l 660 0 q 515 8 577 0 q 404 39 454 16 q 255 300 255 112 q 283 477 255 380 q 503 830 349 706 z "},"œ":{"ha":1204,"x_min":159,"x_max":1240,"o":"m 418 80 q 526 112 475 80 q 611 192 577 143 q 665 298 645 240 q 684 410 684 356 q 650 524 684 479 q 547 568 616 568 q 391 501 463 568 q 290 332 319 434 q 276 241 276 286 q 313 124 276 168 q 418 80 351 80 m 1018 564 q 873 501 937 564 q 785 352 810 438 l 1109 352 q 1126 456 1126 415 q 1018 564 1126 564 m 1069 659 q 1240 502 1240 659 q 1206 319 1240 435 l 1191 268 l 758 268 q 752 222 752 245 q 799 117 752 160 q 939 73 845 73 q 1085 97 999 73 l 1082 22 q 871 -16 974 -16 q 654 107 694 -16 q 379 -14 537 -14 q 217 42 275 -14 q 159 199 159 98 q 178 321 159 256 q 334 570 223 478 q 585 663 445 663 q 721 628 669 663 q 791 531 773 594 q 872 599 829 572 q 952 638 914 627 q 1018 655 991 650 q 1069 659 1044 659 z "},"Ŕ":{"ha":975,"x_min":197,"x_max":1048,"o":"m 1034 699 q 996 608 1020 651 q 936 525 972 564 q 849 457 900 486 q 736 414 798 428 l 889 0 l 760 0 l 614 402 q 592 402 607 402 q 570 401 578 401 l 428 401 l 313 0 l 197 0 l 473 964 l 827 964 q 883 962 860 964 q 934 953 906 960 q 984 931 962 947 q 1021 892 1006 916 q 1048 793 1048 853 q 1034 699 1048 750 m 457 503 l 623 503 q 769 523 709 503 q 875 605 829 543 q 909 670 896 633 q 922 742 922 707 q 829 856 922 835 q 736 863 800 863 l 560 863 l 457 503 m 1018 1340 l 1041 1257 l 637 1057 l 616 1130 l 1018 1340 z "},"ŕ":{"ha":535,"x_min":119,"x_max":743,"o":"m 391 603 q 592 666 492 666 q 709 639 659 666 l 651 551 q 551 571 606 571 l 549 571 q 381 526 467 571 l 231 0 l 119 0 l 307 653 l 385 653 l 391 603 m 705 1050 l 743 973 l 431 750 l 397 821 l 705 1050 z "},"Ŗ":{"ha":975,"x_min":108,"x_max":1048,"o":"m 291 -83 l 413 -83 l 230 -347 l 108 -347 l 291 -83 m 457 503 l 623 503 q 769 523 709 503 q 875 605 829 543 q 909 670 896 633 q 922 742 922 707 q 829 856 922 835 q 736 863 800 863 l 560 863 l 457 503 m 1034 699 q 996 608 1020 651 q 936 525 972 564 q 849 457 900 486 q 736 414 798 428 l 889 0 l 760 0 l 614 402 q 592 402 607 402 q 570 401 578 401 l 428 401 l 313 0 l 197 0 l 473 964 l 827 964 q 883 962 860 964 q 934 953 906 960 q 984 931 962 947 q 1021 892 1006 916 q 1048 793 1048 853 q 1034 699 1048 750 z "},"ŗ":{"ha":536,"x_min":-82,"x_max":712,"o":"m 393 603 q 595 666 494 666 q 712 639 662 666 l 654 551 q 553 571 610 571 l 552 571 q 383 526 469 571 l 231 -6 l 120 -6 l 309 653 l 387 653 l 393 603 m 99 -87 l 221 -87 l 40 -347 l -82 -347 l 99 -87 z "},"Ř":{"ha":975,"x_min":197,"x_max":1048,"o":"m 1034 699 q 996 608 1020 651 q 936 525 972 564 q 849 457 900 486 q 736 414 798 428 l 889 0 l 760 0 l 614 402 q 592 402 607 402 q 570 401 578 401 l 428 401 l 313 0 l 197 0 l 473 964 l 827 964 q 883 962 860 964 q 934 953 906 960 q 984 931 962 947 q 1021 892 1006 916 q 1048 793 1048 853 q 1034 699 1048 750 m 457 503 l 623 503 q 769 523 709 503 q 875 605 829 543 q 909 670 896 633 q 922 742 922 707 q 829 856 922 835 q 736 863 800 863 l 560 863 l 457 503 m 777 1057 l 659 1251 l 739 1310 l 821 1177 l 981 1310 l 1025 1257 l 777 1057 z "},"ř":{"ha":535,"x_min":119,"x_max":790,"o":"m 391 603 q 592 666 492 666 q 709 639 659 666 l 651 551 q 551 571 606 571 l 549 571 q 381 526 467 571 l 231 0 l 119 0 l 307 653 l 385 653 l 391 603 m 543 749 l 431 954 l 512 1016 l 588 876 l 747 1015 l 790 961 l 543 749 z "},"Ś":{"ha":923,"x_min":178,"x_max":1064,"o":"m 1018 1340 l 1041 1257 l 637 1057 l 616 1130 l 1018 1340 m 836 972 q 1064 934 947 972 l 996 829 q 795 864 885 864 q 613 821 694 864 q 512 712 531 779 q 507 681 507 697 q 530 624 507 649 q 588 582 552 599 q 668 549 625 565 q 755 514 711 533 q 834 473 798 496 q 893 415 871 450 q 916 334 916 380 q 905 269 916 305 q 871 192 895 231 q 808 116 848 154 q 719 50 769 79 q 600 4 669 22 q 452 -14 530 -14 q 312 3 373 -14 q 178 52 251 19 l 249 163 q 498 100 401 100 q 679 142 602 100 q 775 252 755 183 q 781 288 781 269 q 758 349 781 322 q 699 392 735 375 q 620 425 663 410 q 533 458 576 441 q 453 497 489 475 q 394 552 417 518 q 372 631 372 587 q 381 693 372 661 q 542 891 414 809 q 836 972 669 972 z "},"ś":{"ha":682,"x_min":97,"x_max":791,"o":"m 585 666 q 611 666 599 666 q 635 664 623 665 q 654 662 646 663 q 672 659 662 661 q 688 656 683 657 q 703 652 692 655 q 716 648 714 649 q 731 644 719 648 q 745 639 743 640 l 692 555 q 542 579 607 579 q 456 568 494 579 q 398 539 418 557 q 368 507 378 522 q 354 479 358 492 q 352 465 352 472 q 375 426 352 444 q 431 396 397 408 q 505 368 465 384 q 578 335 545 352 q 635 290 612 319 q 658 226 658 262 q 652 186 658 208 q 629 134 644 159 q 587 81 615 109 q 523 33 559 54 q 430 0 486 13 q 307 -14 374 -14 q 97 37 205 -14 l 151 120 q 254 84 213 95 q 336 74 294 74 q 528 176 498 74 q 530 192 530 184 q 499 237 530 218 q 424 270 468 256 q 336 301 380 284 q 261 349 292 318 q 230 425 230 380 q 237 469 230 446 q 258 518 243 493 q 302 570 273 543 q 368 618 331 597 q 462 652 406 639 q 585 666 519 666 m 751 1050 l 791 973 l 477 750 l 444 821 l 751 1050 z "},"Ŝ":{"ha":923,"x_min":178,"x_max":1064,"o":"m 836 972 q 1064 934 947 972 l 996 829 q 795 864 885 864 q 613 821 694 864 q 512 712 531 779 q 507 681 507 697 q 530 624 507 649 q 588 582 552 599 q 668 549 625 565 q 755 514 711 533 q 834 473 798 496 q 893 415 871 450 q 916 334 916 380 q 905 269 916 305 q 871 192 895 231 q 808 116 848 154 q 719 50 769 79 q 600 4 669 22 q 452 -14 530 -14 q 312 3 373 -14 q 178 52 251 19 l 249 163 q 498 100 401 100 q 679 142 602 100 q 775 252 755 183 q 781 288 781 269 q 758 349 781 322 q 699 392 735 375 q 620 425 663 410 q 533 458 576 441 q 453 497 489 475 q 394 552 417 518 q 372 631 372 587 q 381 693 372 661 q 542 891 414 809 q 836 972 669 972 m 861 1310 l 979 1116 l 899 1057 l 817 1190 l 656 1057 l 612 1110 l 861 1310 z "},"ŝ":{"ha":682,"x_min":97,"x_max":774,"o":"m 585 666 q 611 666 599 666 q 635 664 623 665 q 654 662 646 663 q 672 659 662 661 q 688 656 683 657 q 703 652 692 655 q 716 648 714 649 q 731 644 719 648 q 745 639 743 640 l 692 555 q 542 579 607 579 q 456 568 494 579 q 398 539 418 557 q 368 507 378 522 q 354 479 358 492 q 352 465 352 472 q 375 426 352 444 q 431 396 397 408 q 505 368 465 384 q 578 335 545 352 q 635 290 612 319 q 658 226 658 262 q 652 186 658 208 q 629 134 644 159 q 587 81 615 109 q 523 33 559 54 q 430 0 486 13 q 307 -14 374 -14 q 97 37 205 -14 l 151 120 q 254 84 213 95 q 336 74 294 74 q 528 176 498 74 q 530 192 530 184 q 499 237 530 218 q 424 270 468 256 q 336 301 380 284 q 261 349 292 318 q 230 425 230 380 q 237 469 230 446 q 258 518 243 493 q 302 570 273 543 q 368 618 331 597 q 462 652 406 639 q 585 666 519 666 m 662 1016 l 774 812 l 693 749 l 617 889 l 457 750 l 414 806 l 662 1016 z "},"Ş":{"ha":923,"x_min":178,"x_max":1064,"o":"m 581 -214 q 515 -305 566 -267 q 400 -343 464 -343 q 351 -338 375 -343 q 250 -307 328 -332 l 290 -237 q 426 -271 392 -271 q 476 -256 455 -271 q 502 -222 496 -242 q 504 -208 504 -214 q 503 -198 504 -203 q 497 -189 501 -193 q 489 -181 493 -184 q 477 -174 485 -178 q 462 -168 469 -170 q 443 -161 455 -165 q 422 -154 431 -157 q 396 -145 412 -151 q 368 -136 380 -140 l 436 -14 q 307 3 363 -14 q 178 52 251 19 l 249 163 q 498 100 401 100 q 679 142 602 100 q 775 252 755 183 q 781 288 781 269 q 758 349 781 322 q 699 392 735 375 q 620 425 663 410 q 533 458 576 441 q 453 497 489 475 q 394 552 417 518 q 372 631 372 587 q 381 693 372 661 q 542 891 414 809 q 836 972 669 972 q 1064 934 947 972 l 996 829 q 795 864 885 864 q 613 821 694 864 q 512 712 531 779 q 507 681 507 697 q 530 624 507 649 q 588 582 552 599 q 668 549 625 565 q 755 514 711 533 q 834 473 798 496 q 893 415 871 450 q 916 334 916 380 q 905 269 916 305 q 865 183 893 226 q 792 101 836 140 q 683 32 749 61 q 539 -8 616 2 l 494 -92 l 499 -94 q 510 -96 505 -95 q 522 -101 514 -98 q 536 -107 530 -104 q 550 -116 543 -111 q 564 -128 558 -121 q 575 -142 570 -134 q 583 -160 580 -150 q 585 -182 585 -170 q 581 -214 585 -198 z "},"ş":{"ha":683,"x_min":97,"x_max":746,"o":"m 353 -221 q 355 -206 355 -213 q 353 -192 355 -199 q 343 -180 350 -186 q 330 -171 336 -175 q 310 -161 323 -167 q 288 -153 297 -156 q 259 -143 278 -150 q 228 -133 240 -137 l 293 -14 q 97 37 196 -9 l 151 120 q 254 84 214 95 q 336 74 295 74 q 529 176 500 74 q 531 192 531 184 q 509 232 531 214 q 453 260 486 250 q 380 285 420 271 q 308 315 341 300 q 252 359 275 331 q 230 425 230 388 q 237 469 230 446 q 258 518 243 493 q 302 570 273 543 q 369 618 331 597 q 463 652 406 639 q 585 666 519 666 q 612 666 600 666 q 635 664 624 665 q 655 662 647 663 q 674 659 663 661 q 689 656 684 657 q 705 652 694 655 q 718 648 715 649 q 732 644 720 648 q 746 639 744 640 l 693 555 q 543 579 608 579 q 456 568 494 579 q 398 539 418 557 q 368 507 378 522 q 354 479 358 492 q 352 465 352 472 q 375 426 352 444 q 432 396 397 408 q 506 368 466 384 q 579 335 545 352 q 636 290 614 319 q 659 226 659 262 q 653 186 659 208 q 626 127 644 156 q 577 70 608 99 q 495 19 547 41 q 380 -9 444 -2 l 335 -92 l 346 -96 q 360 -100 356 -99 q 375 -106 364 -102 q 391 -115 386 -111 q 405 -126 396 -119 q 417 -141 413 -134 q 425 -159 421 -149 q 428 -181 428 -170 q 423 -214 428 -197 q 361 -300 409 -262 q 252 -338 314 -338 q 222 -335 237 -338 q 189 -328 206 -333 q 160 -320 171 -323 q 131 -311 150 -317 q 110 -303 113 -304 l 145 -241 q 273 -273 240 -273 q 325 -258 303 -273 q 353 -221 347 -243 z "},"Š":{"ha":923,"x_min":178,"x_max":1064,"o":"m 804 1057 l 686 1251 l 766 1310 l 848 1177 l 1008 1310 l 1053 1257 l 804 1057 m 836 972 q 1064 934 947 972 l 996 829 q 795 864 885 864 q 613 821 694 864 q 512 712 531 779 q 507 681 507 697 q 530 624 507 649 q 588 582 552 599 q 668 549 625 565 q 755 514 711 533 q 834 473 798 496 q 893 415 871 450 q 916 334 916 380 q 905 269 916 305 q 871 192 895 231 q 808 116 848 154 q 719 50 769 79 q 600 4 669 22 q 452 -14 530 -14 q 312 3 373 -14 q 178 52 251 19 l 249 163 q 498 100 401 100 q 679 142 602 100 q 775 252 755 183 q 781 288 781 269 q 758 349 781 322 q 699 392 735 375 q 620 425 663 410 q 533 458 576 441 q 453 497 489 475 q 394 552 417 518 q 372 631 372 587 q 381 693 372 661 q 542 891 414 809 q 836 972 669 972 z "},"š":{"ha":682,"x_min":97,"x_max":817,"o":"m 568 749 l 456 954 l 537 1016 l 613 876 l 773 1015 l 817 961 l 568 749 m 585 666 q 611 666 599 666 q 635 664 623 665 q 654 662 646 663 q 672 659 662 661 q 688 656 683 657 q 703 652 692 655 q 716 648 714 649 q 731 644 719 648 q 745 639 743 640 l 692 555 q 542 579 607 579 q 456 568 494 579 q 398 539 418 557 q 368 507 378 522 q 354 479 358 492 q 352 465 352 472 q 375 426 352 444 q 431 396 397 408 q 505 368 465 384 q 578 335 545 352 q 635 290 612 319 q 658 226 658 262 q 652 186 658 208 q 629 134 644 159 q 587 81 615 109 q 523 33 559 54 q 430 0 486 13 q 307 -14 374 -14 q 97 37 205 -14 l 151 120 q 254 84 213 95 q 336 74 294 74 q 528 176 498 74 q 530 192 530 184 q 499 237 530 218 q 424 270 468 256 q 336 301 380 284 q 261 349 292 318 q 230 425 230 380 q 237 469 230 446 q 258 518 243 493 q 302 570 273 543 q 368 618 331 597 q 462 652 406 639 q 585 666 519 666 z "},"Ţ":{"ha":821,"x_min":183,"x_max":1093,"o":"m 361 -270 q 414 -254 396 -270 q 437 -220 432 -238 q 439 -211 439 -214 q 432 -191 439 -200 q 408 -174 425 -182 q 379 -161 391 -165 q 340 -149 368 -157 q 302 -136 311 -140 q 329 -89 311 -120 q 350 -52 346 -58 q 364 -25 353 -45 q 376 1 374 -5 q 386 26 378 7 q 397 60 393 45 q 409 102 401 75 l 627 862 l 304 862 l 334 964 l 1093 964 l 1064 862 l 742 862 l 526 109 q 489 -3 505 37 q 442 -94 473 -43 q 520 -179 520 -119 q 515 -214 520 -197 q 450 -304 500 -264 q 333 -343 399 -343 q 309 -342 321 -343 q 288 -339 297 -340 q 264 -333 279 -337 q 241 -326 250 -329 q 213 -317 233 -323 q 183 -307 193 -311 l 224 -237 q 361 -270 326 -270 z "},"ţ":{"ha":505,"x_min":76,"x_max":633,"o":"m 381 862 l 492 862 l 433 653 l 633 653 l 608 566 l 408 566 l 304 203 q 292 138 292 161 q 372 66 292 66 q 479 81 393 66 l 472 6 q 344 -18 395 -14 l 302 -96 q 311 -99 302 -96 q 324 -103 320 -102 q 337 -109 328 -105 q 352 -115 347 -112 q 365 -124 357 -119 q 377 -135 372 -129 q 386 -148 381 -141 q 393 -165 391 -155 q 395 -184 395 -174 q 391 -216 395 -199 q 329 -300 377 -262 q 218 -338 281 -338 q 189 -336 204 -338 q 155 -329 174 -334 q 127 -321 137 -323 q 98 -311 117 -318 q 76 -304 78 -304 l 111 -243 q 240 -273 205 -273 q 293 -258 271 -273 q 321 -222 315 -243 q 323 -208 323 -214 q 320 -195 323 -201 q 311 -183 318 -189 q 298 -173 304 -177 q 278 -164 292 -170 q 255 -156 264 -159 q 225 -147 245 -153 q 193 -136 205 -140 l 262 -14 q 175 102 175 7 q 189 191 175 142 l 296 566 l 208 566 l 233 653 l 321 653 l 381 862 z "},"Ť":{"ha":821,"x_min":304,"x_max":1093,"o":"m 749 1057 l 631 1251 l 711 1310 l 793 1177 l 954 1310 l 998 1257 l 749 1057 m 334 964 l 1093 964 l 1064 862 l 742 862 l 495 0 l 380 0 l 627 862 l 304 862 l 334 964 z "},"ť":{"ha":507,"x_min":176,"x_max":846,"o":"m 724 1036 l 846 1036 l 659 759 l 537 759 l 724 1036 m 379 854 l 490 854 l 433 653 l 635 653 l 610 566 l 408 566 l 305 208 q 294 145 294 168 q 375 73 294 73 q 482 87 395 73 l 476 12 q 315 -14 372 -14 q 176 105 176 -14 q 193 205 176 146 l 296 566 l 208 566 l 233 653 l 321 653 l 379 854 z "},"Ŧ":{"ha":821,"x_min":290,"x_max":1093,"o":"m 334 964 l 1093 964 l 1064 862 l 742 862 l 642 511 l 884 511 l 854 409 l 612 409 l 495 0 l 380 0 l 497 409 l 290 409 l 319 511 l 526 511 l 627 862 l 304 862 l 334 964 z "},"ŧ":{"ha":504,"x_min":137,"x_max":632,"o":"m 472 12 q 315 -14 368 -14 q 176 106 176 -14 q 193 205 176 149 l 224 315 l 137 315 l 158 389 l 245 389 l 296 566 l 208 566 l 233 653 l 321 653 l 381 862 l 492 862 l 433 653 l 632 653 l 607 566 l 408 566 l 357 389 l 556 389 l 535 315 l 336 315 l 304 207 q 294 145 294 167 q 374 73 294 73 q 479 87 393 73 l 472 12 z "},"Ũ":{"ha":1072,"x_min":266,"x_max":1205,"o":"m 473 964 l 588 964 l 409 339 q 390 237 390 273 q 410 163 390 195 q 587 86 456 86 q 760 128 683 86 q 876 245 836 170 q 911 339 894 278 l 1090 964 l 1205 964 l 1050 420 q 1040 384 1046 410 q 976 203 1010 267 q 559 -14 859 -14 q 460 -6 505 -14 q 386 14 416 2 q 333 44 356 26 q 298 79 311 62 q 278 118 286 97 q 268 156 271 140 q 266 190 266 172 l 266 203 q 276 275 267 236 q 301 366 285 313 q 317 420 317 418 l 473 964 m 985 1141 q 1008 1146 996 1141 q 1029 1157 1020 1151 q 1052 1178 1038 1164 q 1072 1202 1065 1193 q 1096 1233 1080 1211 q 1121 1264 1113 1254 l 1183 1232 q 1165 1207 1180 1227 q 1143 1180 1149 1187 q 1123 1155 1137 1173 q 1099 1129 1108 1137 q 1076 1107 1090 1121 q 1049 1086 1061 1093 q 1022 1072 1038 1080 q 992 1061 1007 1064 q 961 1058 977 1058 q 907 1070 931 1058 q 868 1101 884 1083 q 840 1137 853 1119 q 811 1167 827 1155 q 779 1180 796 1180 q 760 1177 769 1180 q 740 1166 750 1174 q 722 1153 730 1159 q 703 1133 715 1146 q 685 1111 692 1119 q 664 1084 678 1102 q 643 1057 650 1066 l 581 1088 q 599 1113 584 1093 q 621 1140 614 1133 q 641 1165 627 1147 q 665 1192 656 1183 q 688 1214 673 1200 q 714 1234 703 1227 q 742 1249 726 1241 q 772 1260 757 1257 q 803 1263 787 1263 q 857 1250 833 1263 q 896 1220 880 1238 q 924 1184 911 1202 q 952 1153 937 1166 q 985 1141 968 1141 z "},"ũ":{"ha":792,"x_min":172,"x_max":940,"o":"m 746 670 l 857 670 l 665 0 l 587 0 l 579 56 q 327 -14 433 -14 q 172 126 172 -14 q 197 270 172 184 l 311 670 l 422 670 l 305 262 q 292 185 292 218 q 404 86 292 86 q 593 138 481 86 l 746 670 m 743 846 q 763 849 753 846 q 782 860 772 852 q 800 874 792 867 q 819 894 808 881 q 837 916 830 907 q 857 943 844 925 q 878 970 871 960 l 940 938 q 921 913 937 933 q 900 886 906 893 q 880 861 895 879 q 857 835 865 843 q 834 813 848 827 q 807 792 819 799 q 781 778 795 785 q 751 767 766 770 q 720 764 736 764 q 668 776 691 764 q 629 807 644 789 q 602 843 614 825 q 574 873 589 861 q 543 886 559 886 q 523 883 532 886 q 504 872 514 880 q 486 859 494 865 q 468 838 479 852 q 450 816 456 825 q 429 790 443 808 q 408 762 416 772 l 345 794 q 364 819 348 798 q 385 846 380 840 q 405 871 390 852 q 429 898 420 890 q 452 919 437 905 q 478 940 467 934 q 505 954 490 946 q 535 965 520 962 q 566 968 550 968 q 618 956 595 968 q 656 925 642 943 q 684 889 671 907 q 712 859 697 871 q 743 846 727 846 z "},"Ū":{"ha":1072,"x_min":266,"x_max":1205,"o":"m 473 964 l 588 964 l 409 339 q 390 237 390 273 q 410 163 390 195 q 587 86 456 86 q 760 128 683 86 q 876 245 836 170 q 911 339 894 278 l 1090 964 l 1205 964 l 1050 420 q 1040 384 1046 410 q 976 203 1010 267 q 559 -14 859 -14 q 460 -6 505 -14 q 386 14 416 2 q 333 44 356 26 q 298 79 311 62 q 278 118 286 97 q 268 156 271 140 q 266 190 266 172 l 266 203 q 276 275 267 236 q 301 366 285 313 q 317 420 317 418 l 473 964 m 598 1151 l 1161 1151 l 1136 1063 l 573 1063 l 598 1151 z "},"ū":{"ha":789,"x_min":172,"x_max":857,"o":"m 746 670 l 857 670 l 665 0 l 587 0 l 579 56 q 327 -14 433 -14 q 172 126 172 -14 q 197 270 172 184 l 311 670 l 422 670 l 305 262 q 292 185 292 218 q 404 86 292 86 q 593 138 481 86 l 746 670 m 455 904 l 852 904 l 827 817 l 430 817 l 455 904 z "},"Ŭ":{"ha":1072,"x_min":266,"x_max":1205,"o":"m 608 1232 l 705 1276 q 718 1233 709 1253 q 742 1193 727 1213 q 783 1161 758 1173 q 839 1149 808 1149 q 957 1186 894 1149 q 1076 1276 1020 1223 l 1137 1224 q 972 1104 1063 1152 q 801 1056 882 1056 q 718 1071 755 1056 q 659 1112 682 1086 q 624 1168 636 1137 q 608 1232 611 1198 m 473 964 l 588 964 l 409 339 q 390 237 390 273 q 410 163 390 195 q 587 86 456 86 q 760 128 683 86 q 876 245 836 170 q 911 339 894 278 l 1090 964 l 1205 964 l 1050 420 q 1040 384 1046 410 q 976 203 1010 267 q 559 -14 859 -14 q 460 -6 505 -14 q 386 14 416 2 q 333 44 356 26 q 298 79 311 62 q 278 118 286 97 q 268 156 271 140 q 266 190 266 172 l 266 203 q 272 258 267 229 q 283 306 278 287 q 300 364 288 325 q 317 420 313 403 l 473 964 z "},"ŭ":{"ha":789,"x_min":172,"x_max":928,"o":"m 746 670 l 857 670 l 665 0 l 587 0 l 579 56 q 327 -14 433 -14 q 172 126 172 -14 q 197 270 172 184 l 311 670 l 422 670 l 305 262 q 292 185 292 218 q 404 86 292 86 q 593 138 481 86 l 746 670 m 407 937 l 504 982 q 517 939 508 959 q 540 899 526 918 q 579 867 555 879 q 634 855 604 855 q 750 892 688 855 q 866 982 812 929 l 928 930 q 765 809 853 857 q 597 762 676 762 q 461 813 509 762 q 407 937 412 865 z "},"Ů":{"ha":1072,"x_min":266,"x_max":1205,"o":"m 939 1361 q 1020 1330 989 1361 q 1051 1251 1051 1299 q 1045 1209 1051 1232 q 970 1101 1027 1146 q 852 1057 913 1057 q 772 1087 803 1057 q 741 1166 741 1118 q 747 1209 741 1187 q 822 1317 765 1272 q 939 1361 878 1361 m 922 1299 q 851 1273 884 1299 q 808 1209 818 1246 q 804 1183 804 1196 q 821 1137 804 1156 q 870 1118 839 1118 q 940 1146 907 1118 q 983 1209 972 1173 q 986 1234 986 1220 q 969 1281 986 1262 q 922 1299 951 1299 m 473 964 l 588 964 l 409 339 q 390 237 390 273 q 410 163 390 195 q 587 86 456 86 q 760 128 683 86 q 876 245 836 170 q 911 339 894 278 l 1090 964 l 1205 964 l 1050 420 q 1040 384 1046 410 q 976 203 1010 267 q 559 -14 859 -14 q 460 -6 505 -14 q 386 14 416 2 q 333 44 356 26 q 298 79 311 62 q 278 118 286 97 q 268 156 271 140 q 266 190 266 172 l 266 203 q 272 258 267 229 q 283 306 278 287 q 300 364 288 325 q 317 420 313 403 l 473 964 z "},"ů":{"ha":793,"x_min":172,"x_max":860,"o":"m 749 670 l 860 670 l 668 0 l 590 0 l 583 56 q 328 -14 436 -14 q 172 126 172 -14 q 197 270 172 184 l 311 670 l 422 670 l 305 262 q 292 185 292 218 q 405 86 292 86 q 596 138 482 86 l 749 670 m 702 1067 q 781 1036 751 1067 q 811 958 811 1006 q 805 915 811 937 q 731 807 787 852 q 615 762 675 762 q 536 793 566 762 q 506 871 506 823 q 512 915 506 892 q 586 1022 530 978 q 702 1067 642 1067 m 684 1005 q 615 978 648 1005 q 573 915 583 951 q 569 888 569 902 q 586 842 569 860 q 633 824 603 824 q 701 851 669 824 q 743 915 732 879 q 747 941 747 928 q 730 987 747 968 q 684 1005 713 1005 z "},"Ű":{"ha":1072,"x_min":266,"x_max":1359,"o":"m 473 964 l 588 964 l 409 339 q 390 237 390 273 q 410 163 390 195 q 587 86 456 86 q 760 128 683 86 q 876 245 836 170 q 911 339 894 278 l 1090 964 l 1205 964 l 1050 420 q 1040 384 1046 410 q 976 203 1010 267 q 559 -14 859 -14 q 460 -6 505 -14 q 386 14 416 2 q 333 44 356 26 q 298 79 311 62 q 278 118 286 97 q 268 156 271 140 q 266 190 266 172 l 266 203 q 272 258 267 229 q 283 306 278 287 q 300 364 288 325 q 317 420 313 403 l 473 964 m 975 1345 l 1006 1267 l 612 1037 l 584 1106 l 975 1345 m 1327 1345 l 1359 1267 l 964 1037 l 937 1106 l 1327 1345 z "},"ű":{"ha":789,"x_min":172,"x_max":1060,"o":"m 746 670 l 857 670 l 665 0 l 587 0 l 579 56 q 327 -14 433 -14 q 172 126 172 -14 q 197 270 172 184 l 311 670 l 422 670 l 305 262 q 292 185 292 218 q 404 86 292 86 q 593 138 481 86 l 746 670 m 714 1050 l 753 977 l 444 763 l 409 831 l 714 1050 m 1020 1050 l 1060 977 l 747 763 l 713 831 l 1020 1050 z "},"Ų":{"ha":1072,"x_min":267,"x_max":1205,"o":"m 290 329 q 304 375 294 345 q 317 420 313 405 l 473 964 l 588 964 l 409 339 q 390 237 390 273 q 410 163 390 195 q 587 86 456 86 q 760 128 683 86 q 876 245 836 170 q 911 339 894 278 l 1090 964 l 1205 964 l 1026 335 q 986 224 1008 271 q 942 145 964 177 q 885 88 919 114 q 819 46 851 62 q 736 8 787 29 q 625 -49 674 -18 q 548 -110 576 -81 q 505 -163 520 -140 q 485 -205 490 -186 q 481 -229 481 -216 q 496 -266 481 -253 q 537 -279 511 -279 q 658 -238 584 -279 l 673 -300 q 476 -370 564 -370 q 399 -345 425 -370 q 374 -277 374 -319 q 422 -142 374 -216 q 553 -14 470 -68 q 267 194 267 -14 q 290 329 267 250 z "},"ų":{"ha":795,"x_min":171,"x_max":857,"o":"m 288 -240 q 386 -107 309 -167 q 591 5 463 -48 l 584 55 q 335 -14 441 -14 q 253 1 286 -14 q 171 131 171 37 q 197 274 171 182 q 203 289 199 279 q 209 304 208 298 l 309 653 l 420 653 l 308 260 q 294 184 294 213 q 357 94 294 117 q 408 86 379 86 q 598 137 487 86 l 746 653 l 857 653 l 661 -31 q 621 -48 649 -36 q 580 -67 593 -61 q 543 -85 567 -74 q 505 -104 518 -97 q 474 -123 492 -112 q 444 -144 455 -135 q 421 -166 433 -154 q 402 -190 410 -178 q 391 -216 395 -203 q 388 -240 388 -227 q 441 -284 388 -284 q 563 -249 488 -284 l 579 -304 q 386 -368 465 -368 q 309 -343 336 -368 q 281 -279 281 -319 q 288 -240 281 -260 z "},"Ŵ":{"ha":1461,"x_min":371,"x_max":1697,"o":"m 371 964 l 494 964 l 505 154 l 981 964 l 1097 964 l 1116 154 l 1583 964 l 1697 964 l 1132 0 l 1009 0 l 987 805 l 519 0 l 397 0 l 371 964 m 1143 1313 l 1261 1119 l 1181 1059 l 1100 1192 l 939 1060 l 895 1113 l 1143 1313 z "},"ŵ":{"ha":1122,"x_min":232,"x_max":1272,"o":"m 232 670 l 351 670 l 366 108 l 696 670 l 802 670 l 816 109 l 1154 670 l 1272 670 l 839 0 l 730 0 l 711 543 l 384 0 l 275 0 l 232 670 m 852 1019 l 966 825 l 888 766 l 810 899 l 652 766 l 609 819 l 852 1019 z "},"Ŷ":{"ha":857,"x_min":344,"x_max":1105,"o":"m 344 964 l 480 964 l 612 566 l 977 964 l 1105 964 l 632 456 l 501 0 l 386 0 l 517 456 l 344 964 m 836 1310 l 954 1116 l 874 1057 l 793 1190 l 631 1057 l 587 1110 l 836 1310 z "},"ŷ":{"ha":705,"x_min":68,"x_max":862,"o":"m 225 670 l 340 670 l 389 102 l 747 670 l 862 670 l 187 -360 l 68 -360 l 301 -26 l 225 670 m 656 1016 l 769 822 l 690 762 l 612 895 l 453 763 l 409 816 l 656 1016 z "},"Ÿ":{"ha":857,"x_min":344,"x_max":1105,"o":"m 344 964 l 480 964 l 612 566 l 977 964 l 1105 964 l 632 456 l 501 0 l 386 0 l 517 456 l 344 964 m 907 1287 l 1032 1287 l 996 1162 l 871 1162 l 907 1287 m 602 1287 l 727 1287 l 691 1162 l 566 1162 l 602 1287 z "},"Ź":{"ha":921,"x_min":105,"x_max":1138,"o":"m 401 964 l 1138 964 l 1117 890 l 288 102 l 909 102 l 880 0 l 105 0 l 127 75 l 944 862 l 372 862 l 401 964 m 1036 1340 l 1059 1257 l 655 1057 l 634 1130 l 1036 1340 z "},"ź":{"ha":718,"x_min":99,"x_max":793,"o":"m 286 653 l 785 653 l 768 594 l 265 87 l 639 87 l 614 0 l 99 0 l 116 59 l 617 566 l 261 566 l 286 653 m 755 1050 l 793 973 l 481 750 l 448 821 l 755 1050 z "},"Ż":{"ha":921,"x_min":105,"x_max":1138,"o":"m 401 964 l 1138 964 l 1117 890 l 288 102 l 909 102 l 880 0 l 105 0 l 127 75 l 944 862 l 372 862 l 401 964 m 766 1240 l 909 1240 l 868 1098 l 726 1098 l 766 1240 z "},"ż":{"ha":721,"x_min":99,"x_max":787,"o":"m 286 653 l 787 653 l 771 594 l 265 87 l 642 87 l 617 0 l 99 0 l 116 59 l 621 566 l 261 566 l 286 653 m 563 964 l 694 964 l 657 836 l 526 836 l 563 964 z "},"Ž":{"ha":921,"x_min":105,"x_max":1138,"o":"m 401 964 l 1138 964 l 1117 890 l 288 102 l 909 102 l 880 0 l 105 0 l 127 75 l 944 862 l 372 862 l 401 964 m 789 1057 l 671 1251 l 751 1310 l 833 1177 l 994 1310 l 1038 1257 l 789 1057 z "},"ž":{"ha":718,"x_min":99,"x_max":805,"o":"m 286 653 l 785 653 l 768 594 l 265 87 l 639 87 l 614 0 l 99 0 l 116 59 l 617 566 l 261 566 l 286 653 m 558 750 l 448 954 l 527 1016 l 603 877 l 762 1015 l 805 961 l 558 750 z "},"Ƒ":{"ha":846,"x_min":-170,"x_max":1031,"o":"m -170 -341 l -130 -258 q -27 -275 -75 -275 q 92 -238 44 -275 q 159 -132 139 -201 l 473 964 l 1031 964 l 1002 862 l 559 862 l 469 547 l 871 547 l 842 446 l 439 446 l 273 -136 q 161 -311 239 -256 q -20 -367 83 -367 q -170 -341 -93 -367 z "},"ƒ":{"ha":543,"x_min":-176,"x_max":833,"o":"m 259 653 l 371 653 l 393 730 q 458 867 418 818 q 557 943 498 916 q 682 969 615 969 q 833 943 753 969 l 792 859 q 692 876 737 876 q 503 722 547 876 l 484 653 l 703 653 l 677 566 l 458 566 l 253 -151 q 243 -183 248 -169 q 227 -221 238 -197 q 202 -262 216 -244 q 166 -301 189 -281 q 118 -335 144 -322 q 55 -358 92 -349 q -26 -367 18 -367 q -176 -340 -97 -367 l -136 -258 q -36 -274 -79 -274 q 36 -263 4 -274 q 85 -238 67 -252 q 116 -203 102 -224 q 135 -168 130 -181 q 144 -138 140 -155 l 346 566 l 234 566 l 259 653 z "},"Ȭ":{"ha":1143,"x_min":258,"x_max":1278,"o":"m 777 1449 l 1278 1449 l 1253 1362 l 751 1362 l 777 1449 m 1158 1274 l 1228 1262 q 1216 1237 1225 1257 q 1203 1210 1207 1218 q 1190 1184 1200 1202 q 1175 1158 1181 1166 q 1158 1135 1169 1149 q 1139 1112 1147 1120 q 1118 1095 1131 1105 q 1093 1080 1105 1084 q 1066 1071 1081 1075 q 1035 1067 1051 1067 q 981 1080 1005 1067 q 941 1111 956 1093 q 912 1146 925 1128 q 884 1177 899 1164 q 854 1190 870 1190 q 834 1186 844 1190 q 817 1174 825 1183 q 802 1159 808 1166 q 787 1138 795 1152 q 775 1116 779 1123 q 763 1090 771 1108 q 751 1066 754 1072 l 682 1078 q 693 1102 684 1084 q 706 1129 703 1121 q 720 1155 710 1138 q 735 1181 729 1173 q 751 1205 741 1190 q 770 1227 762 1220 q 791 1245 779 1235 q 816 1260 804 1255 q 843 1269 828 1265 q 874 1272 858 1272 q 928 1260 904 1272 q 968 1229 953 1247 q 997 1193 984 1211 q 1025 1163 1010 1175 q 1055 1150 1039 1150 q 1075 1154 1065 1150 q 1093 1166 1084 1157 q 1108 1181 1102 1175 q 1123 1202 1114 1187 q 1135 1224 1131 1217 q 1147 1250 1138 1231 q 1158 1274 1156 1269 m 1071 481 q 1093 623 1093 560 q 1079 715 1093 673 q 1042 786 1065 758 q 986 835 1019 815 q 919 864 954 854 q 844 873 883 873 l 842 873 q 744 859 794 873 q 643 815 694 845 q 548 741 592 785 q 466 634 503 698 q 406 494 428 570 q 384 349 384 414 q 450 160 384 229 q 629 91 517 91 q 728 105 677 91 q 830 150 779 119 q 927 226 882 181 q 1010 336 972 271 q 1071 481 1048 402 m 879 974 q 1126 889 1035 974 q 1218 655 1218 804 q 1193 493 1218 579 q 960 130 1128 269 q 592 -10 792 -10 q 461 10 522 -10 q 356 69 401 30 q 284 170 310 108 q 258 311 258 232 q 283 479 258 389 q 514 839 348 703 q 879 974 681 974 z "},"ȭ":{"ha":812,"x_min":160,"x_max":989,"o":"m 857 976 l 927 964 q 915 939 924 958 q 902 911 906 920 q 889 885 899 903 q 874 859 880 867 q 858 835 868 850 q 838 812 847 820 q 817 794 829 804 q 793 779 805 783 q 766 770 781 774 q 736 766 751 766 q 683 779 707 766 q 644 810 659 792 q 616 847 629 829 q 590 879 604 866 q 561 892 576 892 q 542 888 551 892 q 524 876 532 885 q 509 861 515 867 q 494 839 503 855 q 482 817 486 823 q 470 790 479 810 q 458 766 460 770 l 388 777 q 400 802 391 783 q 413 829 409 821 q 426 856 416 838 q 441 882 435 873 q 457 906 447 891 q 477 929 468 921 q 498 947 486 937 q 522 962 510 958 q 549 971 534 967 q 579 975 564 975 q 632 962 608 975 q 671 930 656 949 q 699 893 686 911 q 725 862 711 875 q 754 849 739 849 q 773 852 764 849 q 792 865 783 856 q 807 880 801 874 q 821 903 812 886 q 833 925 830 919 q 846 951 837 931 q 857 976 855 972 m 496 1145 l 989 1145 l 964 1058 l 471 1058 l 496 1145 m 599 666 q 772 610 707 666 q 837 450 837 553 q 820 340 837 399 q 655 82 773 178 q 393 -14 537 -14 q 222 44 285 -14 q 160 204 160 101 q 178 319 160 258 q 339 572 223 477 q 599 666 454 666 m 562 571 q 457 546 510 571 q 359 466 405 520 q 292 338 313 411 q 278 249 278 290 q 319 127 278 174 q 433 81 359 81 q 597 147 520 81 q 705 318 675 212 q 718 406 718 365 q 673 528 718 484 q 562 571 629 571 z "},"ȷ":{"ha":352,"x_min":-68,"x_max":418,"o":"m 307 653 l 418 653 l 202 -97 q 192 -132 196 -118 q 177 -170 187 -145 q 155 -213 166 -195 q 123 -254 143 -231 q 80 -295 104 -277 q 23 -331 57 -313 q -51 -362 -11 -349 l -68 -279 q 88 -109 54 -228 l 307 653 z "},"ˆ":{"ha":1003,"x_min":543,"x_max":909,"o":"m 791 1045 l 909 851 l 829 791 l 748 924 l 587 792 l 543 845 l 791 1045 z "},"ˇ":{"ha":731,"x_min":452,"x_max":819,"o":"m 570 762 l 452 956 l 533 1016 l 614 883 l 774 1015 l 819 964 l 570 762 z "},"˘":{"ha":731,"x_min":368,"x_max":897,"o":"m 368 937 l 465 982 q 478 939 469 959 q 503 899 488 918 q 543 867 518 879 q 600 855 568 855 q 718 892 654 855 q 836 982 781 929 l 897 930 q 732 809 822 857 q 562 762 642 762 q 479 777 515 762 q 419 818 442 792 q 384 873 397 843 q 368 937 371 904 z "},"˙":{"ha":814,"x_min":568,"x_max":751,"o":"m 609 978 l 751 978 l 711 836 l 568 836 l 609 978 z "},"˚":{"ha":735,"x_min":501,"x_max":811,"o":"m 682 1005 q 612 978 645 1005 q 568 915 578 951 q 564 888 564 902 q 582 842 564 861 q 630 824 599 824 q 700 851 667 824 q 743 915 732 879 q 747 941 747 928 q 729 987 747 968 q 682 1005 712 1005 m 699 1067 q 780 1036 749 1067 q 811 957 811 1005 q 805 915 811 937 q 730 807 787 852 q 612 762 673 762 q 532 793 563 762 q 501 872 501 824 q 507 915 501 892 q 582 1022 526 978 q 699 1067 638 1067 z "},"˛":{"ha":735,"x_min":240,"x_max":637,"o":"m 343 -369 q 267 -343 294 -369 q 240 -273 240 -317 q 247 -227 240 -250 q 389 -32 275 -128 q 637 98 503 64 l 635 22 q 448 -80 528 -14 q 351 -205 368 -147 q 347 -229 347 -216 q 362 -266 347 -253 q 402 -279 376 -279 q 524 -239 444 -279 l 539 -300 q 343 -369 422 -369 z "},"˜":{"ha":949,"x_min":457,"x_max":1060,"o":"m 861 923 q 881 926 871 923 q 901 937 890 929 q 918 950 911 944 q 937 970 926 957 q 956 992 949 984 q 976 1019 962 1001 q 998 1046 990 1037 l 1060 1015 q 1041 990 1057 1010 q 1020 963 1026 970 q 999 938 1014 956 q 976 911 985 920 q 952 889 967 903 q 926 869 938 876 q 899 854 914 862 q 868 843 884 846 q 838 840 853 840 q 784 853 808 840 q 745 884 760 865 q 716 920 730 902 q 688 951 703 939 q 656 964 673 964 q 632 958 644 964 q 611 947 620 953 q 589 926 602 941 q 568 902 575 911 q 544 870 561 892 q 519 839 527 848 l 457 871 q 478 898 460 875 q 503 929 496 922 q 526 958 509 937 q 553 986 543 978 q 581 1009 563 995 q 612 1030 598 1024 q 644 1041 626 1036 q 680 1046 662 1046 q 733 1034 709 1046 q 772 1003 757 1021 q 801 966 787 985 q 829 936 814 948 q 861 923 844 923 z "},"˝":{"ha":1120,"x_min":435,"x_max":1211,"o":"m 1179 1087 l 1211 1008 l 817 779 l 788 848 l 1179 1087 m 827 1087 l 858 1008 l 464 779 l 435 848 l 827 1087 z "},"ˮ":{"ha":566,"x_min":286,"x_max":758,"o":"m 633 1025 l 758 1025 l 675 734 l 550 734 l 633 1025 m 368 1025 l 494 1025 l 411 734 l 286 734 l 368 1025 z "},"̂":{"ha":1003,"x_min":543,"x_max":909,"o":"m 791 1045 l 909 851 l 829 791 l 748 924 l 587 792 l 543 845 l 791 1045 z "},"Ḃ":{"ha":966,"x_min":197,"x_max":1021,"o":"m 563 876 l 470 552 q 515 553 483 553 q 565 554 547 553 q 615 556 583 554 q 668 562 648 559 q 718 571 688 565 q 766 586 747 578 q 809 608 786 595 q 848 637 832 621 q 877 676 863 654 q 899 726 891 699 q 905 771 905 749 q 870 846 905 817 q 749 876 835 876 l 563 876 m 445 463 l 341 102 l 521 102 q 562 102 545 102 q 611 106 578 102 q 667 116 644 110 q 722 136 691 123 q 774 168 752 149 q 816 215 796 186 q 846 280 836 243 q 854 333 854 309 q 799 436 854 399 q 644 472 743 472 q 445 463 631 472 m 473 964 l 812 964 q 901 953 863 964 q 961 926 939 943 q 997 887 983 910 q 1016 843 1011 864 q 1021 798 1021 822 q 1011 732 1021 765 q 938 614 994 673 q 831 538 881 555 q 937 477 899 526 q 975 361 975 429 q 965 292 975 328 q 949 248 959 271 q 919 196 939 225 q 875 140 900 167 q 814 88 850 114 q 734 43 777 62 q 633 12 691 24 q 510 0 575 0 l 197 0 l 473 964 m 830 1287 l 972 1287 l 932 1145 l 789 1145 l 830 1287 z "},"ḃ":{"ha":796,"x_min":125,"x_max":863,"o":"m 415 621 q 605 667 515 667 q 683 656 646 667 q 751 623 719 646 q 803 559 784 601 q 822 462 822 518 q 802 334 822 404 q 642 80 755 173 q 391 -14 528 -14 q 225 31 300 -14 l 203 0 l 125 0 l 418 1021 l 530 1021 l 415 621 m 541 574 q 392 540 469 574 l 267 104 q 399 74 331 74 q 460 80 429 74 q 526 104 491 87 q 590 148 560 121 q 646 217 620 174 q 688 315 672 260 q 705 420 705 376 q 690 497 705 465 q 649 545 675 528 q 597 568 623 561 q 541 574 570 574 m 720 1287 l 863 1287 l 822 1145 l 680 1145 l 720 1287 z "},"Ḋ":{"ha":1089,"x_min":197,"x_max":1152,"o":"m 872 1287 l 1015 1287 l 974 1145 l 831 1145 l 872 1287 m 559 862 l 341 102 l 481 102 q 532 102 512 102 q 588 106 553 103 q 649 117 623 110 q 712 136 676 123 q 777 168 747 149 q 839 214 806 186 q 900 279 871 243 q 1004 488 969 366 q 1025 619 1025 558 q 1009 716 1025 673 q 966 788 993 760 q 906 833 939 816 q 835 857 873 850 q 746 862 806 862 l 559 862 m 771 964 q 923 948 857 964 q 1031 905 989 932 q 1102 840 1074 878 q 1140 759 1129 801 q 1152 667 1152 717 q 1127 511 1152 595 q 1083 390 1109 448 q 1016 271 1057 332 q 925 163 975 211 q 807 77 876 115 q 660 20 739 39 q 571 6 619 11 q 492 1 523 1 q 406 0 461 0 l 197 0 l 473 964 l 771 964 z "},"ḋ":{"ha":800,"x_min":157,"x_max":962,"o":"m 682 1287 l 825 1287 l 783 1145 l 641 1145 l 682 1287 m 438 78 q 591 115 511 78 l 715 548 q 581 579 652 579 q 519 573 550 579 q 453 549 488 566 q 389 505 418 532 q 333 434 359 478 q 290 332 306 389 q 274 233 274 277 q 284 170 274 197 q 311 125 294 142 q 349 97 327 108 q 393 82 372 86 q 438 78 415 78 m 589 667 q 739 631 668 667 l 850 1021 l 962 1021 l 669 0 l 591 0 l 585 42 q 375 -14 476 -14 q 311 -7 342 -14 q 252 15 281 0 q 203 54 224 31 q 169 113 182 77 q 157 193 157 149 q 176 315 157 248 q 338 575 224 483 q 589 667 452 667 z "},"Ḟ":{"ha":846,"x_min":197,"x_max":1031,"o":"m 559 862 l 469 547 l 871 547 l 842 446 l 439 446 l 312 0 l 197 0 l 473 964 l 1031 964 l 1002 862 l 559 862 m 766 1287 l 909 1287 l 868 1145 l 726 1145 l 766 1287 z "},"ḟ":{"ha":550,"x_min":184,"x_max":833,"o":"m 692 869 q 620 858 652 869 q 569 831 588 846 q 535 793 550 815 q 515 758 521 772 q 505 730 509 745 l 484 653 l 706 653 l 681 566 l 458 566 l 296 0 l 184 0 l 346 566 l 252 566 l 277 653 l 371 653 l 391 724 q 406 769 399 752 q 426 814 412 787 q 457 863 439 841 q 556 937 497 911 q 682 963 614 963 q 833 936 752 963 l 793 852 q 692 869 734 869 m 637 1240 l 780 1240 l 739 1098 l 596 1098 l 637 1240 z "},"Ṁ":{"ha":1278,"x_min":197,"x_max":1411,"o":"m 473 964 l 635 964 l 777 379 l 1259 964 l 1411 964 l 1135 0 l 1020 0 l 1249 798 l 803 276 l 688 276 l 541 798 l 312 0 l 197 0 l 473 964 m 957 1287 l 1099 1287 l 1059 1145 l 916 1145 l 957 1287 z "},"ṁ":{"ha":1159,"x_min":119,"x_max":1170,"o":"m 545 564 q 378 513 489 564 l 231 0 l 119 0 l 307 653 l 385 653 l 392 597 q 618 666 531 666 q 754 591 719 666 q 1010 665 905 665 q 1132 629 1095 665 q 1170 525 1170 593 q 1147 392 1170 472 l 1034 0 l 922 0 l 1036 399 q 1048 470 1048 439 q 945 564 1048 564 q 768 513 883 564 q 743 386 767 472 l 632 0 l 520 0 l 635 400 q 646 469 646 438 q 545 564 646 564 m 789 964 l 931 964 l 890 822 l 748 822 l 789 964 z "},"Ṗ":{"ha":908,"x_min":197,"x_max":1053,"o":"m 473 964 l 791 964 q 832 963 816 964 q 879 960 848 963 q 929 950 909 956 q 975 932 950 945 q 1016 903 1000 920 q 1042 859 1031 886 q 1053 798 1053 832 q 1038 707 1053 755 q 1005 622 1025 661 q 964 553 986 583 q 913 500 942 524 q 858 461 885 477 q 796 434 830 446 q 733 415 762 422 q 667 405 703 409 q 602 400 630 401 q 538 399 573 399 q 428 404 492 399 l 312 0 l 197 0 l 473 964 m 457 506 q 579 500 521 500 q 635 501 612 500 q 691 506 658 502 q 748 517 724 510 q 801 538 772 524 q 849 572 829 553 q 887 621 869 591 q 916 688 905 650 q 926 749 926 721 q 913 801 926 779 q 882 834 900 823 q 834 852 863 846 q 782 861 805 859 q 727 862 759 862 l 559 862 l 457 506 m 781 1287 l 923 1287 l 882 1145 l 740 1145 l 781 1287 z "},"ṗ":{"ha":792,"x_min":16,"x_max":817,"o":"m 387 -14 q 237 22 307 -14 l 127 -360 l 16 -360 l 307 653 l 384 653 l 390 610 q 601 666 500 666 q 679 655 642 666 q 747 622 715 645 q 798 558 779 600 q 817 460 817 517 q 798 334 817 404 q 703 147 766 227 q 558 27 640 68 q 387 -14 477 -14 m 536 574 q 385 538 463 574 l 260 105 q 395 74 323 74 q 456 80 425 74 q 522 104 487 87 q 586 148 557 121 q 642 217 616 174 q 684 315 669 260 q 701 420 701 375 q 686 497 701 465 q 645 544 671 528 q 593 567 620 560 q 536 574 566 574 m 634 964 l 777 964 l 736 822 l 593 822 l 634 964 z "},"Ṡ":{"ha":923,"x_min":178,"x_max":1064,"o":"m 808 1287 l 950 1287 l 909 1145 l 767 1145 l 808 1287 m 836 972 q 1064 934 947 972 l 996 829 q 795 864 885 864 q 613 821 694 864 q 512 712 531 779 q 507 681 507 697 q 530 624 507 649 q 588 582 552 599 q 668 549 625 565 q 755 514 711 533 q 834 473 798 496 q 893 415 871 450 q 916 334 916 380 q 905 269 916 305 q 871 192 895 231 q 808 116 848 154 q 719 50 769 79 q 600 4 669 22 q 452 -14 530 -14 q 312 3 373 -14 q 178 52 251 19 l 249 163 q 498 100 401 100 q 679 142 602 100 q 775 252 755 183 q 781 288 781 269 q 758 349 781 322 q 699 392 735 375 q 620 425 663 410 q 533 458 576 441 q 453 497 489 475 q 394 552 417 518 q 372 631 372 587 q 381 693 372 661 q 542 891 414 809 q 836 972 669 972 z "},"ṡ":{"ha":685,"x_min":97,"x_max":748,"o":"m 587 666 q 617 665 602 666 q 641 664 631 665 q 664 661 651 663 q 683 658 677 659 q 701 653 688 657 q 716 649 714 650 q 732 644 718 649 q 748 639 747 639 l 695 555 q 544 579 610 579 q 457 568 495 579 q 399 539 419 557 q 368 507 378 522 q 354 479 358 492 q 352 465 352 472 q 369 431 352 446 q 413 404 386 415 q 474 380 441 392 q 539 355 507 369 q 600 325 572 341 q 644 282 627 308 q 661 226 661 257 q 655 186 661 208 q 633 134 647 159 q 591 81 618 109 q 526 33 563 54 q 433 0 490 13 q 309 -14 376 -14 q 97 37 205 -14 l 151 120 q 255 84 214 95 q 338 74 296 74 q 531 176 502 74 q 533 192 533 184 q 516 227 533 212 q 473 253 500 242 q 414 274 446 264 q 349 297 381 284 q 290 326 317 310 q 247 367 263 342 q 230 425 230 393 q 237 469 230 446 q 258 518 243 493 q 302 570 273 543 q 369 618 331 597 q 463 652 406 639 q 587 666 520 666 m 562 964 l 705 964 l 664 822 l 522 822 l 562 964 z "},"Ṫ":{"ha":821,"x_min":304,"x_max":1093,"o":"m 334 964 l 1093 964 l 1064 862 l 742 862 l 495 0 l 380 0 l 627 862 l 304 862 l 334 964 m 746 1287 l 888 1287 l 848 1145 l 705 1145 l 746 1287 z "},"ṫ":{"ha":505,"x_min":176,"x_max":633,"o":"m 473 12 q 315 -14 369 -14 q 176 104 176 -14 q 193 205 176 145 l 296 566 l 208 566 l 233 653 l 321 653 l 380 857 l 491 857 l 433 653 l 633 653 l 608 566 l 408 566 l 305 208 q 294 146 294 168 q 374 73 294 73 q 479 87 393 73 l 473 12 m 445 1099 l 587 1099 l 547 957 l 404 957 l 445 1099 z "},"Ẁ":{"ha":1461,"x_min":371,"x_max":1697,"o":"m 371 964 l 494 964 l 505 154 l 981 964 l 1097 964 l 1116 154 l 1583 964 l 1697 964 l 1132 0 l 1009 0 l 987 805 l 519 0 l 397 0 l 371 964 m 1030 1308 l 1312 1097 l 1249 1025 l 959 1224 l 1030 1308 z "},"ẁ":{"ha":1122,"x_min":232,"x_max":1272,"o":"m 232 670 l 351 670 l 366 108 l 696 670 l 802 670 l 816 109 l 1154 670 l 1272 670 l 839 0 l 730 0 l 711 543 l 384 0 l 275 0 l 232 670 m 770 1050 l 948 831 l 876 763 l 688 977 l 770 1050 z "},"Ẃ":{"ha":1461,"x_min":371,"x_max":1697,"o":"m 371 964 l 494 964 l 505 154 l 981 964 l 1097 964 l 1116 154 l 1583 964 l 1697 964 l 1132 0 l 1009 0 l 987 805 l 519 0 l 397 0 l 371 964 m 1270 1308 l 1294 1224 l 889 1025 l 868 1097 l 1270 1308 z "},"ẃ":{"ha":1122,"x_min":232,"x_max":1272,"o":"m 232 670 l 351 670 l 366 108 l 696 670 l 802 670 l 816 109 l 1154 670 l 1272 670 l 839 0 l 730 0 l 711 543 l 384 0 l 275 0 l 232 670 m 969 1050 l 1009 977 l 699 763 l 666 831 l 969 1050 z "},"Ẅ":{"ha":1461,"x_min":371,"x_max":1697,"o":"m 371 964 l 494 964 l 505 154 l 981 964 l 1097 964 l 1116 154 l 1583 964 l 1697 964 l 1132 0 l 1009 0 l 987 805 l 519 0 l 397 0 l 371 964 m 911 1287 l 1037 1287 l 1001 1162 l 876 1162 l 911 1287 m 1217 1287 l 1342 1287 l 1306 1162 l 1181 1162 l 1217 1287 z "},"ẅ":{"ha":1128,"x_min":232,"x_max":1279,"o":"m 232 670 l 351 670 l 366 108 l 699 670 l 805 670 l 822 109 l 1160 670 l 1279 670 l 845 0 l 735 0 l 715 543 l 385 0 l 275 0 l 232 670 m 623 964 l 749 964 l 713 839 l 587 839 l 623 964 m 924 964 l 1049 964 l 1013 839 l 888 839 l 924 964 z "},"Ỳ":{"ha":857,"x_min":344,"x_max":1105,"o":"m 344 964 l 480 964 l 612 566 l 977 964 l 1105 964 l 632 456 l 501 0 l 386 0 l 517 456 l 344 964 m 687 1308 l 968 1097 l 905 1025 l 616 1224 l 687 1308 z "},"ỳ":{"ha":705,"x_min":68,"x_max":862,"o":"m 225 670 l 340 670 l 389 102 l 747 670 l 862 670 l 187 -360 l 68 -360 l 301 -26 l 225 670 m 554 1050 l 732 831 l 661 763 l 471 977 l 554 1050 z "},"–":{"ha":786,"x_min":115,"x_max":928,"o":"m 142 494 l 928 494 l 901 399 l 115 399 l 142 494 z "},"—":{"ha":939,"x_min":115,"x_max":1080,"o":"m 142 494 l 1080 494 l 1053 399 l 115 399 l 142 494 z "},"―":{"ha":1085,"x_min":115,"x_max":1227,"o":"m 142 494 l 1227 494 l 1200 399 l 115 399 l 142 494 z "},"‘":{"ha":305,"x_min":355,"x_max":488,"o":"m 355 1025 l 487 1025 l 488 731 l 355 731 l 355 1025 z "},"’":{"ha":305,"x_min":237,"x_max":538,"o":"m 406 1025 l 538 1025 l 369 731 l 237 731 l 406 1025 z "},"‚":{"ha":305,"x_min":-15,"x_max":286,"o":"m 154 147 l 286 147 l 117 -146 l -15 -146 l 154 147 z "},"‛":{"ha":305,"x_min":355,"x_max":488,"o":"m 487 1025 l 488 731 l 355 731 l 355 1025 l 487 1025 z "},"“":{"ha":563,"x_min":237,"x_max":795,"o":"m 795 1025 l 627 731 l 494 731 l 663 1025 l 795 1025 m 538 1025 l 369 731 l 237 731 l 406 1025 l 538 1025 z "},"”":{"ha":563,"x_min":237,"x_max":795,"o":"m 663 1025 l 795 1025 l 627 731 l 494 731 l 663 1025 m 406 1025 l 538 1025 l 369 731 l 237 731 l 406 1025 z "},"„":{"ha":563,"x_min":-16,"x_max":543,"o":"m 411 145 l 543 145 l 374 -149 l 242 -149 l 411 145 m 153 145 l 286 145 l 117 -149 l -16 -149 l 153 145 z "},"‟":{"ha":563,"x_min":355,"x_max":745,"o":"m 487 1025 l 488 731 l 355 731 l 355 1025 l 487 1025 m 745 1025 l 745 731 l 613 731 l 612 1025 l 745 1025 z "},"†":{"ha":639,"x_min":299,"x_max":772,"o":"m 299 100 l 499 798 l 342 791 l 363 865 l 517 859 l 564 1025 l 661 1025 l 614 859 l 772 865 l 750 791 l 596 798 l 396 100 l 299 100 z "},"‡":{"ha":639,"x_min":115,"x_max":772,"o":"m 289 64 l 499 798 l 342 791 l 363 865 l 517 859 l 564 1025 l 661 1025 l 614 859 l 772 865 l 750 791 l 596 798 l 386 64 l 544 71 l 523 -3 l 368 3 l 321 -163 l 224 -163 l 271 3 l 115 -3 l 136 71 l 289 64 z "},"•":{"ha":434,"x_min":246,"x_max":473,"o":"m 296 585 l 473 585 l 422 409 l 246 409 l 296 585 z "},"…":{"ha":1166,"x_min":122,"x_max":1072,"o":"m 163 142 l 305 142 l 264 0 l 122 0 l 163 142 m 546 142 l 688 142 l 648 0 l 505 0 l 546 142 m 929 142 l 1072 142 l 1031 0 l 888 0 l 929 142 z "},"‰":{"ha":1302,"x_min":58,"x_max":1308,"o":"m 991 964 l 1106 964 l 173 0 l 58 0 l 991 964 m 1194 422 q 1232 418 1214 422 q 1268 403 1250 414 q 1297 370 1286 392 q 1308 315 1308 347 q 1296 238 1308 279 q 1211 97 1270 149 q 1085 45 1152 45 q 1004 71 1035 45 q 973 154 973 96 q 987 239 973 191 q 1072 375 1012 327 q 1194 422 1131 422 m 1175 357 q 1142 352 1158 357 q 1109 334 1126 347 q 1077 297 1092 321 q 1053 239 1062 273 q 1042 176 1042 204 q 1060 123 1042 138 q 1104 108 1078 108 q 1136 113 1120 108 q 1169 132 1152 119 q 1202 172 1186 145 q 1229 236 1218 198 q 1238 292 1238 269 q 1220 343 1238 328 q 1175 357 1201 357 m 783 422 q 820 418 802 422 q 857 403 838 414 q 886 370 875 392 q 897 315 897 347 q 884 238 897 279 q 800 97 859 149 q 673 45 741 45 q 592 71 623 45 q 562 154 562 96 q 575 239 562 191 q 660 375 600 327 q 783 422 720 422 m 763 357 q 731 352 747 357 q 697 334 715 347 q 665 297 680 321 q 641 239 650 273 q 631 176 631 204 q 649 123 631 138 q 692 108 667 108 q 724 113 709 108 q 757 132 740 119 q 790 172 774 145 q 817 236 806 198 q 827 292 827 269 q 808 343 827 328 q 763 357 789 357 m 487 924 q 524 920 507 924 q 560 905 542 916 q 589 872 578 895 q 600 818 600 850 q 588 741 600 783 q 504 598 562 650 q 378 547 445 547 q 296 573 328 547 q 265 656 265 599 q 279 741 265 694 q 331 844 296 801 q 407 905 367 886 q 487 924 446 924 m 468 860 q 436 854 452 860 q 402 837 420 849 q 370 800 385 824 q 346 742 355 776 q 335 678 335 705 q 353 625 335 640 q 397 610 371 610 q 429 616 413 610 q 461 634 444 621 q 495 674 479 648 q 522 739 511 701 q 531 795 531 771 q 468 860 531 860 z "},"′":{"ha":275,"x_min":286,"x_max":494,"o":"m 368 1025 l 494 1025 l 411 734 l 286 734 l 368 1025 z "},"″":{"ha":549,"x_min":286,"x_max":768,"o":"m 368 1025 l 494 1025 l 411 734 l 286 734 l 368 1025 m 643 1025 l 768 1025 l 686 734 l 560 734 l 643 1025 z "},"‴":{"ha":824,"x_min":286,"x_max":1043,"o":"m 368 1025 l 494 1025 l 411 734 l 286 734 l 368 1025 m 643 1025 l 768 1025 l 686 734 l 560 734 l 643 1025 m 918 1025 l 1043 1025 l 960 734 l 835 734 l 918 1025 z "},"‵":{"ha":275,"x_min":304,"x_max":473,"o":"m 341 1025 l 473 1025 l 437 731 l 304 731 l 341 1025 z "},"‹":{"ha":383,"x_min":172,"x_max":541,"o":"m 415 670 l 541 670 l 285 422 l 399 175 l 274 175 l 172 422 l 415 670 z "},"›":{"ha":383,"x_min":84,"x_max":454,"o":"m 226 670 l 351 670 l 454 422 l 210 175 l 84 175 l 341 422 l 226 670 z "},"‼":{"ha":882,"x_min":153,"x_max":995,"o":"m 191 136 l 327 136 l 288 0 l 153 0 l 191 136 m 439 964 l 554 964 l 367 311 l 252 311 l 439 964 m 632 136 l 768 136 l 729 0 l 593 0 l 632 136 m 880 964 l 995 964 l 808 311 l 692 311 l 880 964 z "},"‽":{"ha":709,"x_min":211,"x_max":819,"o":"m 250 136 l 385 136 l 347 0 l 211 0 l 250 136 m 566 975 q 659 967 617 975 q 739 942 701 960 q 798 892 777 925 q 819 814 819 860 q 807 742 819 784 q 765 646 792 689 q 706 572 738 602 q 638 516 674 543 q 567 466 602 490 q 500 414 532 441 q 444 350 469 387 q 406 266 418 312 l 304 266 l 438 732 l 540 732 l 476 512 q 519 541 484 517 q 573 579 554 564 q 619 618 591 593 q 664 670 647 643 q 690 726 682 697 q 696 764 696 746 q 656 845 696 813 q 528 878 617 878 q 346 846 435 878 l 334 928 q 566 975 443 975 z "},"⁄":{"ha":703,"x_min":14,"x_max":965,"o":"m 846 964 l 965 964 l 133 0 l 14 0 l 846 964 z "},"⁋":{"ha":907,"x_min":129,"x_max":1053,"o":"m 1040 768 q 892 546 999 626 q 657 465 786 465 l 524 0 l 407 0 l 671 923 l 509 923 l 244 0 l 129 0 l 422 1025 l 787 1025 q 935 1011 878 1025 q 1023 954 991 998 q 1053 853 1053 913 q 1040 768 1053 813 z "},"€":{"ha":905,"x_min":132,"x_max":1103,"o":"m 283 342 l 132 342 l 157 430 l 296 430 q 300 448 296 431 q 308 481 304 465 q 321 524 312 497 q 342 575 330 550 l 242 575 l 267 663 l 387 663 q 603 888 471 805 q 882 970 734 970 q 1103 919 999 970 l 1044 823 q 850 869 938 869 q 659 813 751 869 q 500 663 566 757 l 806 663 l 781 575 l 448 575 q 400 430 413 506 l 696 430 l 671 342 l 394 342 q 463 162 398 231 q 649 92 528 92 q 857 133 743 92 l 865 47 q 593 -14 721 -14 q 363 74 445 -14 q 281 307 281 161 q 283 342 281 317 z "},"™":{"ha":966,"x_min":353,"x_max":1151,"o":"m 443 640 l 376 640 l 471 970 l 353 970 l 368 1025 l 672 1025 l 656 970 l 538 970 l 443 640 m 762 1025 l 840 1025 l 895 810 l 1069 1025 l 1151 1025 l 1040 640 l 974 640 l 1061 942 l 895 743 l 849 743 l 805 945 l 718 640 l 651 640 l 762 1025 z "},"ﬀ":{"ha":1112,"x_min":-177,"x_max":1388,"o":"m 1248 876 q 1177 864 1208 876 q 1126 837 1145 852 q 1093 798 1107 821 q 1072 761 1078 775 q 1062 732 1067 747 l 1040 653 l 1259 653 l 1234 566 l 1015 566 l 814 -133 q 751 -265 789 -220 q 654 -335 711 -311 q 530 -360 597 -360 q 379 -334 456 -360 l 419 -253 q 519 -269 473 -269 q 590 -258 558 -269 q 640 -233 621 -247 q 672 -198 658 -218 q 691 -164 686 -177 q 701 -138 696 -152 l 902 566 l 808 566 l 833 653 l 927 653 l 948 725 q 1015 867 975 818 q 1113 943 1055 916 q 1238 969 1171 969 q 1388 943 1309 969 l 1348 859 q 1248 876 1293 876 m 692 876 q 621 864 652 876 q 570 837 589 852 q 536 798 551 821 q 516 761 522 775 q 506 732 511 747 l 484 653 l 703 653 l 677 566 l 458 566 l 258 -133 q 195 -265 233 -220 q 98 -335 155 -311 q -26 -360 41 -360 q -177 -334 -100 -360 l -137 -253 q -37 -269 -83 -269 q 34 -258 2 -269 q 83 -233 65 -247 q 116 -198 102 -218 q 135 -164 130 -177 q 144 -138 140 -152 l 346 566 l 252 566 l 277 653 l 371 653 l 392 725 q 458 867 418 818 q 557 943 498 916 q 682 969 615 969 q 832 943 753 969 l 791 859 q 692 876 736 876 z "},"ﬁ":{"ha":911,"x_min":-177,"x_max":1076,"o":"m 944 964 l 1076 964 l 1039 836 l 907 836 l 944 964 m 870 670 l 981 670 l 789 0 l 678 0 l 870 670 m 692 876 q 621 864 652 876 q 570 837 589 852 q 536 798 551 821 q 516 761 522 775 q 506 732 511 747 l 484 653 l 703 653 l 677 566 l 458 566 l 258 -133 q 195 -265 233 -220 q 98 -335 155 -311 q -26 -360 41 -360 q -177 -334 -100 -360 l -137 -253 q -37 -269 -83 -269 q 34 -258 2 -269 q 83 -233 65 -247 q 116 -198 102 -218 q 135 -164 130 -177 q 144 -138 140 -152 l 346 566 l 252 566 l 277 653 l 371 653 l 392 725 q 458 867 418 818 q 557 943 498 916 q 682 969 615 969 q 832 943 753 969 l 791 859 q 692 876 736 876 z "},"ﬂ":{"ha":939,"x_min":-177,"x_max":1097,"o":"m 985 1025 l 1097 1025 l 803 0 l 692 0 l 985 1025 m 692 876 q 621 864 652 876 q 570 837 589 852 q 536 798 551 821 q 516 761 522 775 q 506 732 511 747 l 484 653 l 703 653 l 677 566 l 458 566 l 258 -133 q 195 -265 233 -220 q 98 -335 155 -311 q -26 -360 41 -360 q -177 -334 -100 -360 l -137 -253 q -37 -269 -83 -269 q 34 -258 2 -269 q 83 -233 65 -247 q 116 -198 102 -218 q 135 -164 130 -177 q 144 -138 140 -152 l 346 566 l 252 566 l 277 653 l 371 653 l 392 725 q 458 867 418 818 q 557 943 498 916 q 682 969 615 969 q 832 943 753 969 l 791 859 q 692 876 736 876 z "},"ﬃ":{"ha":1468,"x_min":-177,"x_max":1632,"o":"m 1500 964 l 1632 964 l 1595 836 l 1463 836 l 1500 964 m 1426 670 l 1537 670 l 1345 0 l 1234 0 l 1426 670 m 1248 876 q 1177 864 1208 876 q 1126 837 1145 852 q 1093 798 1107 821 q 1072 761 1078 775 q 1062 732 1067 747 l 1040 653 l 1259 653 l 1234 566 l 1015 566 l 814 -133 q 751 -265 789 -220 q 654 -335 711 -311 q 530 -360 597 -360 q 379 -334 456 -360 l 419 -253 q 519 -269 473 -269 q 590 -258 558 -269 q 640 -233 621 -247 q 672 -198 658 -218 q 691 -164 686 -177 q 701 -138 696 -152 l 902 566 l 808 566 l 833 653 l 927 653 l 948 725 q 1015 867 975 818 q 1113 943 1055 916 q 1238 969 1171 969 q 1388 943 1309 969 l 1348 859 q 1248 876 1293 876 m 692 876 q 621 864 652 876 q 570 837 589 852 q 536 798 551 821 q 516 761 522 775 q 506 732 511 747 l 484 653 l 703 653 l 677 566 l 458 566 l 258 -133 q 195 -265 233 -220 q 98 -335 155 -311 q -26 -360 41 -360 q -177 -334 -100 -360 l -137 -253 q -37 -269 -83 -269 q 34 -258 2 -269 q 83 -233 65 -247 q 116 -198 102 -218 q 135 -164 130 -177 q 144 -138 140 -152 l 346 566 l 252 566 l 277 653 l 371 653 l 392 725 q 458 867 418 818 q 557 943 498 916 q 682 969 615 969 q 832 943 753 969 l 791 859 q 692 876 736 876 z "},"ﬄ":{"ha":1495,"x_min":-177,"x_max":1653,"o":"m 1541 1025 l 1653 1025 l 1359 0 l 1248 0 l 1541 1025 m 1248 876 q 1177 864 1208 876 q 1126 837 1145 852 q 1093 798 1107 821 q 1072 761 1078 775 q 1062 732 1067 747 l 1040 653 l 1259 653 l 1234 566 l 1015 566 l 814 -133 q 751 -265 789 -220 q 654 -335 711 -311 q 530 -360 597 -360 q 379 -334 456 -360 l 419 -253 q 519 -269 473 -269 q 590 -258 558 -269 q 640 -233 621 -247 q 672 -198 658 -218 q 691 -164 686 -177 q 701 -138 696 -152 l 902 566 l 808 566 l 833 653 l 927 653 l 948 725 q 1015 867 975 818 q 1113 943 1055 916 q 1238 969 1171 969 q 1388 943 1309 969 l 1348 859 q 1248 876 1293 876 m 692 876 q 621 864 652 876 q 570 837 589 852 q 536 798 551 821 q 516 761 522 775 q 506 732 511 747 l 484 653 l 703 653 l 677 566 l 458 566 l 258 -133 q 195 -265 233 -220 q 98 -335 155 -311 q -26 -360 41 -360 q -177 -334 -100 -360 l -137 -253 q -37 -269 -83 -269 q 34 -258 2 -269 q 83 -233 65 -247 q 116 -198 102 -218 q 135 -164 130 -177 q 144 -138 140 -152 l 346 566 l 252 566 l 277 653 l 371 653 l 392 725 q 458 867 418 818 q 557 943 498 916 q 682 969 615 969 q 832 943 753 969 l 791 859 q 692 876 736 876 z "}}}
